<svg width="49" height="60" viewBox="0 0 49 60" fill="none" xmlns="http://www.w3.org/2000/svg">
<g clip-path="url(#clip0)">
<path d="M39.1878 60H4.75373C2.13308 60 0 57.8451 0 55.1975V4.61775C0 2.09338 2.07214 0 4.5709 0H33.3675C38.7612 0 43.1797 4.43304 43.1797 9.91278V15.9466C43.1797 17.3012 42.0827 18.4094 40.7419 18.4094C39.4011 18.4094 38.3041 17.3012 38.3041 15.9466V9.91278C38.3041 7.17291 36.0796 4.9256 33.3675 4.9256H4.87562V55.0744H39.1878C41.8999 55.0744 44.1244 52.8271 44.1244 50.0872V38.0195C44.1244 34.941 41.6561 32.4474 38.6088 32.4474H33.6723C32.3315 32.4474 31.2345 31.3391 31.2345 29.9846C31.2345 28.6301 32.3315 27.5218 33.6723 27.5218H38.6088C44.3377 27.5218 49 32.2319 49 38.0195V50.0872C49 55.567 44.5815 60 39.1878 60Z" fill="white"/>
</g>
<defs>
<clipPath id="clip0">
<rect width="49" height="60" fill="white"/>
</clipPath>
</defs>
</svg>
