<svg xmlns="http://www.w3.org/2000/svg" viewBox="0 0 200 142.4"><style type="text/css">  
	.st0{fill:#ffffff;}
</style><path class="st0" d="M161.9 109.9c-0.7 0-1.6-0.3-2.2-0.9l-37.1-34.9c-1.3-1.2-1.3-3.2-0.1-4.6s3.2-1.3 4.6-0.1l37.1 34.9c1.3 1.2 1.3 3.2 0.1 4.6C163.7 109.6 162.8 109.9 161.9 109.9z"/><path class="st0" d="M38.1 109.9c-0.9 0-1.8-0.3-2.4-1 -1.2-1.3-1.2-3.4 0.1-4.6l37.1-34.9c1.3-1.2 3.4-1.2 4.6 0.1 1.2 1.3 1.2 3.4-0.1 4.6L40.3 109C39.7 109.6 38.8 109.9 38.1 109.9z"/><path class="st0" d="M183.8 142.2H16.2C7.4 142.2 0 135 0 126V16.2C0 7.4 7.2 0 16.2 0h167.6c8.8 0 16.2 7.2 16.2 16.2v110C200 135 192.8 142.2 183.8 142.2zM16.2 6.5c-5.3 0-9.7 4.4-9.7 9.7v110c0 5.3 4.4 9.7 9.7 9.7h167.6c5.3 0 9.7-4.4 9.7-9.7v-110c0-5.3-4.4-9.7-9.7-9.7C183.8 6.5 16.2 6.5 16.2 6.5z"/><path class="st0" d="M100 87.4c-4.3 0-8.5-1.5-11.9-4.3L5.3 10.9C4 9.7 3.8 7.6 5 6.3 6.2 5 8.2 4.9 9.6 6l82.8 72.2c4.1 3.5 11 3.5 15.1 0l82.6-72.1c1.3-1.2 3.4-1 4.6 0.3 1.2 1.3 1 3.4-0.3 4.6l-82.6 72.1C108.5 85.9 104.3 87.4 100 87.4z"/></svg>