<svg xmlns="http://www.w3.org/2000/svg" viewBox="0 0 122.04 122.01"><defs><style>.cls-1{fill:#e1071b;}</style></defs><title>phone</title><g id="Layer_2" data-name="Layer 2"><g id="Layer_1-2" data-name="Layer 1"><path class="cls-1" d="M98,122c-5.1,0-11.2-1.3-17.9-3.8-14.8-5.6-30.9-16.6-45.3-31s-25.4-30.5-31-45.3c-5.09-13.4-5.09-24.5,0-29.5.7-.7,1.5-1.5,2.2-2.3,4.6-4.8,9.8-10.3,16.71-10.1,4.8.2,9.4,3.2,14.09,9,13.91,17.3,7.7,23.5.41,30.7L35.92,41c-1.19,1.2-3.4,6.7,17.5,27.6a125.61,125.61,0,0,0,17.3,14.9c2.9,1.9,8.2,4.8,10.3,2.6l1.3-1.3c7.2-7.3,13.31-13.5,30.7.4,5.9,4.7,8.8,9.3,9,14.1.3,6.9-5.2,12.1-10.1,16.7-.8.8-1.6,1.5-2.3,2.2C107,120.81,103,122,98,122Z"/></g></g></svg>