<svg xmlns="http://www.w3.org/2000/svg" xmlns:xlink="http://www.w3.org/1999/xlink" viewBox="0 0 861.85 766.52"><defs><style>.cls-1,.cls-60{fill:none;}.cls-2{isolation:isolate;}.cls-3{fill:#fff;}.cls-4{fill:#333;}.cls-5{fill:#683f18;}.cls-6{fill:#86c440;}.cls-7{fill:url(#linear-gradient);}.cls-8{fill:url(#linear-gradient-2);}.cls-9{fill:url(#linear-gradient-3);}.cls-10{fill:#553014;}.cls-11{fill:#52b148;}.cls-12{fill:gray;}.cls-13{fill:url(#linear-gradient-4);}.cls-14{fill:#c2d6e4;}.cls-15{fill:#417194;}.cls-16{fill:url(#linear-gradient-5);}.cls-17{fill:url(#linear-gradient-6);}.cls-18{fill:url(#linear-gradient-7);}.cls-19{fill:url(#linear-gradient-8);}.cls-20{fill:url(#linear-gradient-9);}.cls-21{fill:url(#linear-gradient-10);}.cls-22{fill:#dae7ef;}.cls-23{fill:url(#linear-gradient-11);}.cls-24{fill:#aab2bd;}.cls-25{fill:#444a54;}.cls-26{fill:#6899d1;}.cls-27{fill:#5386c6;}.cls-28{fill:#666e79;}.cls-29{fill:url(#linear-gradient-12);}.cls-30{fill:#010101;}.cls-31{fill:#fdc113;}.cls-32{fill:url(#linear-gradient-13);}.cls-33{fill:#617d8c;}.cls-34{fill:url(#linear-gradient-14);}.cls-35{fill:#f0efef;}.cls-36{fill:#cdd1d3;}.cls-37{fill:#e2584d;}.cls-38{fill:#487db0;}.cls-39{fill:#e6695f;}.cls-40{fill:#ad3427;}.cls-41{fill:#bf3b2b;}.cls-42{fill:#e9b59a;}.cls-43{fill:#efc6b7;}.cls-44{fill:#353434;}.cls-45,.cls-50{fill:#151515;}.cls-46,.cls-59{opacity:0.3;}.cls-46{mix-blend-mode:lighten;}.cls-47{clip-path:url(#clip-path);}.cls-48{clip-path:url(#clip-path-2);}.cls-49{fill:#cd956e;}.cls-50,.cls-54{opacity:0.8;}.cls-51{fill:#303030;}.cls-52,.cls-53,.cls-54{fill:#434342;}.cls-52{opacity:0.5;}.cls-52,.cls-54{mix-blend-mode:screen;}.cls-55{fill:#2f353e;}.cls-56{fill:#d39173;}.cls-57{fill:#35506b;}.cls-58{fill:#5b7893;opacity:0.55;}.cls-60{stroke:#fff;stroke-miterlimit:10;stroke-width:1.06px;opacity:0.44;}</style><linearGradient id="linear-gradient" x1="685.39" y1="464.45" x2="723.94" y2="464.45" gradientUnits="userSpaceOnUse"><stop offset="0.06" stop-color="#5ebb4c"/><stop offset="0.95" stop-color="#03793e"/></linearGradient><linearGradient id="linear-gradient-2" x1="-3438.11" y1="-630.35" x2="-3438.15" y2="-630.34" gradientTransform="matrix(60.28, 0, 0, -104.08, 204387.1, -66808.93)" xlink:href="#linear-gradient"/><linearGradient id="linear-gradient-3" x1="709.7" y1="481.11" x2="741.04" y2="488.88" gradientUnits="userSpaceOnUse"><stop offset="0.06" stop-color="#5ebb4c"/><stop offset="0.27" stop-color="#41a648"/><stop offset="0.56" stop-color="#1f8d42"/><stop offset="0.8" stop-color="#0b7e3f"/><stop offset="0.95" stop-color="#03793e"/></linearGradient><linearGradient id="linear-gradient-4" x1="596.39" y1="289.19" x2="633.04" y2="289.19" gradientTransform="translate(-28.05 7.72) rotate(0.72)" gradientUnits="userSpaceOnUse"><stop offset="0" stop-color="#4f5761"/><stop offset="1" stop-color="#65778e"/></linearGradient><linearGradient id="linear-gradient-5" x1="290.46" y1="307.15" x2="297.24" y2="307.15" gradientTransform="matrix(1, 0, 0, 1, 0, 0)" xlink:href="#linear-gradient-4"/><linearGradient id="linear-gradient-6" x1="275.91" y1="305.38" x2="285.03" y2="305.38" gradientTransform="matrix(1, 0, 0, 1, 0, 0)" xlink:href="#linear-gradient-4"/><linearGradient id="linear-gradient-7" x1="268.87" y1="302.14" x2="275.57" y2="302.14" gradientTransform="matrix(1, 0, 0, 1, 0, 0)" xlink:href="#linear-gradient-4"/><linearGradient id="linear-gradient-8" x1="281.36" y1="299.38" x2="306.31" y2="299.38" gradientTransform="matrix(1, 0, 0, 1, 0, 0)" xlink:href="#linear-gradient-4"/><linearGradient id="linear-gradient-9" x1="269.73" y1="307.02" x2="279.63" y2="307.02" gradientTransform="matrix(1, 0, 0, 1, 0, 0)" xlink:href="#linear-gradient-4"/><linearGradient id="linear-gradient-10" x1="267.14" y1="298.52" x2="274.14" y2="298.52" gradientTransform="matrix(1, 0, 0, 1, 0, 0)" xlink:href="#linear-gradient-4"/><linearGradient id="linear-gradient-11" x1="299.22" y1="292.98" x2="318.09" y2="292.98" gradientTransform="matrix(1, 0, 0, 1, 0, 0)" xlink:href="#linear-gradient-4"/><linearGradient id="linear-gradient-12" x1="410.53" y1="224.78" x2="461.64" y2="224.78" gradientTransform="matrix(1, 0, 0, 1, 0, 0)" xlink:href="#linear-gradient-4"/><linearGradient id="linear-gradient-13" x1="-509.37" y1="318.85" x2="-491.19" y2="318.85" gradientTransform="translate(667.86 -3.31) rotate(-18.26)" xlink:href="#linear-gradient-4"/><linearGradient id="linear-gradient-14" x1="412.03" y1="552.97" x2="464.63" y2="552.97" gradientTransform="matrix(1, 0, 0, 1, 0, 0)" xlink:href="#linear-gradient-4"/><clipPath id="clip-path"><path class="cls-1" d="M440.05,352.18s3.08-3.88,4.16-4.07,6.15-.24,7.32.35,3.74,3.75,3.74,3.75.44,4.87.09,5.72-2.42,3.92-3.57,4.55-6.39.86-7.79,0-3.38-3.61-3.67-4.82A44.39,44.39,0,0,1,440.05,352.18Z"/></clipPath><clipPath id="clip-path-2"><path class="cls-1" d="M418.56,351.75s3.24-3.74,4.33-3.89,6.15,0,7.3.66,3.58,3.89,3.58,3.89.23,4.89-.15,5.73-2.58,3.81-3.76,4.39-6.41.59-7.78-.35-3.23-3.75-3.46-5A42.67,42.67,0,0,1,418.56,351.75Z"/></clipPath></defs><g class="cls-2"><g id="Layer_2" data-name="Layer 2"><g id="Layer_1-2" data-name="Layer 1"><g id="background"><polyline class="cls-3" points="816.8 386.81 57.37 386.81 194.29 193.72 232.66 211.52 434.89 0.63 640.54 210.55 678.27 186.58 816.8 386.81"/><rect id="Rectangle_72" data-name="Rectangle 72" class="cls-3" x="168.59" y="118.31" width="537" height="537" transform="translate(-145.49 422.36) rotate(-45)"/><polyline class="cls-3" points="816.6 386.18 57.17 386.18 194.09 193.09 232.46 210.89 434.69 0 640.34 209.92 678.08 185.96 816.6 386.18"/><polygon class="cls-4" points="434.69 9.64 422.91 65.26 445.33 81.63 422.91 109.02 640.34 219.56 434.69 9.64"/><polygon class="cls-4" points="232.46 213.89 194.09 196.09 198.5 204.99 194.09 213.89 232.46 213.89"/><polygon class="cls-4" points="678.08 189.96 699.85 221.43 670.93 212.88 678.66 205.69 676.04 197.69 678.08 189.96"/><g id="tree"><rect class="cls-5" x="83.5" y="381.22" width="7.13" height="19.05"/><polygon class="cls-6" points="87.06 305.8 65.47 383.7 108.66 383.7 87.06 305.8"/></g><g id="plant"><path class="cls-5" d="M741.79,508.84a.6.6,0,0,1-.1.32c-.44.66-2.21,1.27-4.94,1.77a137.71,137.71,0,0,1-38.47,0c-2.73-.5-4.5-1.11-4.94-1.77a.62.62,0,0,1-.11-.32c0-1.91,10.88-3.45,24.28-3.45S741.79,506.93,741.79,508.84Z"/><path class="cls-4" d="M700.87,543.52a.4.4,0,0,1-.08-.22v-.07Z"/><g id="Group_57" data-name="Group 57"><g id="Group_55" data-name="Group 55"><path id="Path_1164" data-name="Path 1164" class="cls-6" d="M716.92,514c4.14-6.68,5.72-12.58,2.73-20.11a35.83,35.83,0,0,0-11.59-13.56c-4.8-3.78-10-6.94-14.07-10.66a25.72,25.72,0,0,1-7.5-26.6,27.11,27.11,0,0,1,20.94-19.71c4.84-1,10.45-.74,14,3,4.06,4.22,4.13,11.2,2.48,16.76s-4.64,10.4-5.9,15.8-.22,12.33,4.55,15.79c4.29,3.18,10.57,2,14,4.84,3,2.59,1.66,8.4-.59,12.74A83.68,83.68,0,0,1,718.57,514Z"/><path id="Path_1165" data-name="Path 1165" class="cls-7" d="M723.23,487.7c-2.87-9.95-13.26-18.08-18.45-28a27.92,27.92,0,0,1-2.31-21.58,28.26,28.26,0,0,1,12.51-15,20.18,20.18,0,0,0-7.55.29,27.11,27.11,0,0,0-20.95,19.7,25.71,25.71,0,0,0,7.5,26.6c4.1,3.72,9.28,6.88,14.08,10.67a35.73,35.73,0,0,1,11.58,13.56,18.61,18.61,0,0,1,1,12.07c.27-.5.52-1,.76-1.54A24.28,24.28,0,0,0,723.23,487.7Z"/></g><g id="Group_56" data-name="Group 56"><path id="Path_1166" data-name="Path 1166" class="cls-8" d="M718,514a12.59,12.59,0,0,1-1.68-12.4,21.87,21.87,0,0,1,7.14-8.36c3-2.34,6.15-4.29,8.68-6.58a15.85,15.85,0,0,0,4.63-16.4,16.73,16.73,0,0,0-12.91-12.16,9.13,9.13,0,0,0-8.64,1.83,10.82,10.82,0,0,0-1.53,10.34c1,3.45,2.86,6.41,3.64,9.74a9.49,9.49,0,0,1-2.81,9.74c-2.64,2-6.51,1.23-8.6,3-1.87,1.61-1,5.18.36,7.86A52,52,0,0,0,717,514Z"/><path id="Path_1167" data-name="Path 1167" class="cls-9" d="M714.14,497.8c1.76-6.14,8.18-11.15,11.37-17.24a17.24,17.24,0,0,0,1.43-13.3,17.42,17.42,0,0,0-7.71-9.28,12.14,12.14,0,0,1,4.65.18,16.68,16.68,0,0,1,12.91,12.15,15.84,15.84,0,0,1-4.62,16.4c-2.53,2.3-5.71,4.24-8.69,6.58a22,22,0,0,0-7.14,8.36,11.4,11.4,0,0,0-.58,7.44c-.17-.31-.33-.63-.47-.95A14.93,14.93,0,0,1,714.14,497.8Z"/></g></g><path class="cls-5" d="M739.91,514.3l-7,27.92a.31.31,0,0,1-.07.2c-.27.42-1.4.81-3.14,1.13a88.27,88.27,0,0,1-24.44,0c-1.73-.32-2.86-.71-3.13-1.13l-.07-.26-7-27.86Z"/><path class="cls-10" d="M741.79,509.16V513c0,1.9-10.87,3.44-24.28,3.44s-24.28-1.54-24.28-3.44v-3.87h.11c.44.66,2.21,1.27,4.94,1.77a137.71,137.71,0,0,0,38.47,0c2.73-.5,4.5-1.11,4.94-1.77Z"/></g><g id="tree-2" data-name="tree"><rect class="cls-5" x="58.33" y="369.02" width="7.13" height="19.05"/><polygon class="cls-11" points="61.9 293.6 40.3 371.5 83.5 371.5 61.9 293.6"/></g></g><ellipse id="shadow" class="cls-12" cx="437.86" cy="668.86" rx="84.57" ry="3.72"/><g id="levi"><g id="orbs"><g id="Repair"><path class="cls-13" d="M601,292.63l-.06-.12-4.37,4.27-5.23-5.42,4.38-4.27-.06-.06a8.94,8.94,0,0,0-9.34,2,9.09,9.09,0,0,0-2.64,6.36,10,10,0,0,0,.45,2.93l-9.8,9.55a7.75,7.75,0,0,0-7.51,1.91,7.64,7.64,0,0,0,0,10.84,7.74,7.74,0,0,0,5.33,2.26h.06a7.6,7.6,0,0,0,5.45-2.24,7.39,7.39,0,0,0,2-7.28l4.25-4.15,5.61-5.41a12.16,12.16,0,0,0,2.55.52h0a8.93,8.93,0,0,0,6.73-2.53A8.82,8.82,0,0,0,601,292.63ZM574,317h0a2.58,2.58,0,1,1-1.77-4.41,2.57,2.57,0,0,1,1.82.76A2.53,2.53,0,0,1,574,317Z"/><path class="cls-4" d="M594.21,320.37l-2.45,6.06-3.65-.05a17.74,17.74,0,0,1-4.38,4.39l.26,3.65L577.93,337l-2.52-2.65a21.27,21.27,0,0,1-6.22.1l-2.4,2.71-6.12-2.45.17-3.65a18.87,18.87,0,0,1-4.45-4.38l-3.66.2-2.54-6,2.65-2.52a21.27,21.27,0,0,1-.1-6.22l-2.71-2.4,2.45-6.12,3.65.17a16.86,16.86,0,0,1,4.38-4.45l-.26-3.66,6.06-2.6,2.52,2.71a17.52,17.52,0,0,1,6.21-.1l2.41-2.71,6.12,2.45h.12a10,10,0,0,0,.45,2.93l-5.49,5.35-.12-.13a13.16,13.16,0,1,0,6.74,11.65h0a13.25,13.25,0,0,0-1.33-5.92h-.12l5.61-5.41a12.16,12.16,0,0,0,2.55.52l2.07,4.9-2.65,2.4a21.61,21.61,0,0,1,.1,6.27Z"/></g><g id="Telescope"><path class="cls-14" d="M293.85,332.91a.83.83,0,0,1-.83-.83V310.89a.83.83,0,1,1,1.66,0v21.19A.83.83,0,0,1,293.85,332.91Z"/><path class="cls-15" d="M299.85,322.32H287.56a.83.83,0,1,1,0-1.66h12.29a.83.83,0,0,1,0,1.66Z"/><path class="cls-14" d="M281.83,335.28a.78.78,0,0,1-.33-.07.83.83,0,0,1-.44-1.09l10.47-24.58a.83.83,0,1,1,1.52.65l-10.46,24.58a.82.82,0,0,1-.76.51Z"/><path class="cls-14" d="M305.87,335.28a.82.82,0,0,1-.76-.51l-10.46-24.58a.83.83,0,1,1,1.52-.65l10.47,24.58a.83.83,0,0,1-.44,1.09.78.78,0,0,1-.33.07Z"/><path class="cls-16" d="M296.13,312.29h-4.56a1.11,1.11,0,0,1-1.11-1.11V302h6.78v9.17A1.11,1.11,0,0,1,296.13,312.29Z"/><path class="cls-4" d="M294.58,302v9.17a1.11,1.11,0,0,1-1.11,1.11h2.66a1.11,1.11,0,0,0,1.11-1.11V302Z"/><path class="cls-17" d="M275.91,304.83l7.22-3.19,1.9,4.3-7.22,3.19Z"/><path class="cls-4" d="M276.86,307l7.22-3.19.95,2.15-7.22,3.19Z"/><path class="cls-18" d="M268.87,299.31l3.51-1.55,3.19,7.22-3.51,1.55Z"/><path class="cls-4" d="M270.62,298.53l1.76-.77,3.19,7.22-1.76.78Z"/><path class="cls-19" d="M306.31,299.11l-9.07,4-1.45,0-1.21,1.21-8.77,3.87a1.12,1.12,0,0,1-1.46-.57l-.5-1.14.09-.42-.4-.28L281.45,301a1.11,1.11,0,0,1,.57-1.46l20.49-9.05Z"/><path class="cls-20" d="M279,310.64,270,307a.45.45,0,0,1,0-.82l4.17-1.84.57-.05.35-.35,1.09-.49a.45.45,0,0,1,.59.23l1.24,2.82.1,1.29.85.86.64,1.44A.45.45,0,0,1,279,310.64Z"/><path class="cls-4" d="M276.18,303.41l-2,.89,2.34,5.31,2.51,1a.45.45,0,0,0,.58-.59l-2.83-6.41a.45.45,0,0,0-.59-.23Z"/><path class="cls-4" d="M283.54,305.75l.81,1.84a1.12,1.12,0,0,0,1.46.57l20.5-9.05-1.26-2.85Z"/><path class="cls-21" d="M268,300.53a.82.82,0,0,1-.76-.49.83.83,0,0,1,.42-1.1l5.34-2.35a.83.83,0,1,1,.67,1.51l-5.34,2.36a.78.78,0,0,1-.33.07Z"/><circle class="cls-22" cx="290.98" cy="305.55" r="3.52"/><path class="cls-14" d="M291.09,302a3.53,3.53,0,0,1-.88,5.89,3.39,3.39,0,0,1-1.52.3,3.52,3.52,0,1,0,2.4-6.19Z"/><path class="cls-23" d="M317.1,296.2l-7.89,3.48-.86.11-.66.56-2.64,1.17a1.11,1.11,0,0,1-1.46-.57l-.24-.54,0-.78-.6-.51-3.46-7.85a1.1,1.1,0,0,1,.56-1.46l2.64-1.17.84-.1L304,288l7.89-3.48a1.66,1.66,0,0,1,2.19.85L318,294a1.66,1.66,0,0,1-.85,2.19Z"/><path class="cls-4" d="M311.93,284.49l-1.33.59,3.24,7.34a1.66,1.66,0,0,1-.85,2.19l-10.21,4.51.81,1.83a1.11,1.11,0,0,0,1.46.57l2.64-1.17.66-.56.86-.11,7.89-3.48A1.66,1.66,0,0,0,318,294l-3.83-8.67a1.66,1.66,0,0,0-2.19-.85Z"/><path class="cls-14" d="M302.53,288.64l1.52-.67,5.17,11.71-1.52.67Z"/><path class="cls-15" d="M291,306.79a1.21,1.21,0,1,0-1.21-1.21A1.21,1.21,0,0,0,291,306.79Z"/></g><g id="DSLR"><path class="cls-24" d="M573.33,444.65a.83.83,0,0,1,.69.92l-.24,1.6a.81.81,0,0,1-.92.68l-3.21-.47-1.6-.24-1.6-.23a.81.81,0,0,1-.68-.92l.23-1.6a.81.81,0,0,1,.92-.68Z"/><path class="cls-4" d="M605.78,451.88l-3.2-.47a4.85,4.85,0,0,1-4.09-5.51,1.63,1.63,0,0,0-1.37-1.84h0l-11.2-1.65a1.62,1.62,0,0,0-1.84,1.35h0a4.86,4.86,0,0,1-5.51,4.1l-4.79-.71-4.81-.71a4.83,4.83,0,0,1,4.09,5.51l-3.3,22.4a4.83,4.83,0,0,1-5.5,4.09h0l36.82,5.43a4.88,4.88,0,0,0,5.51-4.1l3.3-22.41a4.87,4.87,0,0,0-4.1-5.51Z"/><path class="cls-25" d="M600.87,465.89a13.57,13.57,0,0,1-.08,3.24,13.39,13.39,0,0,1-.86,3.13,12.94,12.94,0,1,1,.94-6.37Zm-3.28,2.77a9.71,9.71,0,1,0-11,8.19A9.71,9.71,0,0,0,597.59,468.66Z"/><path class="cls-24" d="M601.5,464.34a3.24,3.24,0,1,1-1,6.4l-.39-.08a13.4,13.4,0,0,0,.87-3.13,13.06,13.06,0,0,0,.07-3.24Z"/><path class="cls-26" d="M589.64,456a9.71,9.71,0,1,1-11,8.19,9.71,9.71,0,0,1,11-8.19Z"/><path class="cls-27" d="M589.64,456A10,10,0,0,0,588,456a9.69,9.69,0,0,1-2.78,18.91,9.12,9.12,0,0,0,1.58.39A9.71,9.71,0,0,0,589.64,456Z"/><path class="cls-28" d="M601.1,464.29a13.06,13.06,0,0,1-.07,3.24,13.54,13.54,0,0,1-.87,3.13,12.94,12.94,0,1,1,.94-6.37Zm-3.28,2.77a9.7,9.7,0,1,0-11,8.19A9.71,9.71,0,0,0,597.82,467.06Z"/><path class="cls-12" d="M573.06,452l-3.3,22.4a4.83,4.83,0,0,1-5.5,4.09h0l-3.2-.47a4.87,4.87,0,0,1-4.09-5.51l3.3-22.41a4.87,4.87,0,0,1,5.51-4.09l3.2.47a4.83,4.83,0,0,1,4.09,5.51Z"/><path class="cls-28" d="M594.93,447.83l-8-1.18a.81.81,0,0,1-.68-.92.8.8,0,0,1,.92-.68l8,1.18a.81.81,0,0,1-.24,1.6Z"/><path class="cls-28" d="M592.18,449.88l-3.2-.48a.81.81,0,0,1,.23-1.6l3.2.48a.8.8,0,0,1,.69.91A.82.82,0,0,1,592.18,449.88Z"/></g><g id="gamepad"><path class="cls-29" d="M461.61,231.21a46.61,46.61,0,0,0-1.4-9.23,35.52,35.52,0,0,0-2.86-7.77c-4.46-7.83-9.3-6.62-15.09-5.09a42.21,42.21,0,0,1-5.86,1.14h-.63a42.21,42.21,0,0,1-5.86-1.14c-5.79-1.47-10.63-2.74-15.09,5.15A32.85,32.85,0,0,0,412,222a48.24,48.24,0,0,0-1.4,9.23,17.33,17.33,0,0,0,.89,7.26,4.8,4.8,0,0,0,3.06,2.86,6.24,6.24,0,0,0,4.07-.44,30,30,0,0,0,8.15-5.8c2-1.91,5.66-2.86,9.36-2.86s7.38,1,9.35,2.86a30.18,30.18,0,0,0,8.15,5.8,6.68,6.68,0,0,0,4.08.44,4.74,4.74,0,0,0,3.05-2.93A17,17,0,0,0,461.61,231.21Z"/><circle class="cls-4" cx="447.16" cy="216.88" r="2.23"/><circle class="cls-4" cx="447.16" cy="225.92" r="2.23"/><circle class="cls-4" cx="442.64" cy="221.4" r="2.23"/><circle class="cls-4" cx="424.21" cy="221.4" r="6.07"/><circle class="cls-4" cx="451.68" cy="221.4" r="2.23"/><path class="cls-30" d="M427.75,222.2a1.06,1.06,0,0,1-.77.31h-.72a1,1,0,0,0-1,1v.67a1,1,0,0,1-.31.77,1,1,0,0,1-.77.3,1.08,1.08,0,0,1-.77-.3,1.06,1.06,0,0,1-.3-.77v-.72a1,1,0,0,0-1-1h-.72a1,1,0,0,1-.76-.31,1,1,0,0,1,0-1.49l.05,0a1.24,1.24,0,0,1,.71-.26h.72a1,1,0,0,0,1-1v-.72a1.06,1.06,0,0,1,.3-.77,1.09,1.09,0,0,1,.77-.31,1.06,1.06,0,0,1,.77.31l0,.05a1.2,1.2,0,0,1,.26.72v.72a1,1,0,0,0,1,1H427a1.06,1.06,0,0,1,.77.31,1.11,1.11,0,0,1,0,1.54Z"/><circle class="cls-4" cx="428.61" cy="233.1" r="3.48"/><circle class="cls-4" cx="443.9" cy="233.1" r="3.48"/></g><g id="paint"><path class="cls-31" d="M302.24,441.64a20.63,20.63,0,0,0-2.84-.13c-30.32,3-16.45,29.13-16.45,29.13,3.84.44,6.49,1.66,7.89,3.63a7.07,7.07,0,0,1,1,5.47,4.41,4.41,0,0,0,3.35,5.38,22.12,22.12,0,0,0,26.21-21.73c-.1-11.95-9.75-20.72-19.14-21.75Z"/><circle class="cls-6" cx="292.99" cy="452.48" r="4.06"/><circle class="cls-4" cx="305.08" cy="453.21" r="4.06"/><circle class="cls-12" cx="312.52" cy="463.51" r="4.06"/><circle class="cls-6" cx="306.63" cy="474.16" r="4.06"/><path class="cls-32" d="M299.3,450.33l-8.36,16-5.38-2.71,7.92-16.25a3.33,3.33,0,0,1,4.38-1.46A3.27,3.27,0,0,1,299.3,450.33Z"/><path class="cls-4" d="M290.94,466.37l-.7,1.34-4.07,7.86a.78.78,0,0,1-.44.36.67.67,0,0,1-.57-.05L281.35,474a.74.74,0,0,1-.35-1h0l3.88-8,.67-1.36Z"/><path class="cls-33" d="M279.85,473.11a5.4,5.4,0,0,0-3.51,6.73.76.76,0,0,0,1,.48c1.48-.61,2.06-.09,3,.77a4.49,4.49,0,0,0,5,1.31h0a.77.77,0,0,0,.42-.35,7.24,7.24,0,0,0,.93-5.48A5.46,5.46,0,0,0,279.85,473.11Z"/><path class="cls-6" d="M285.74,481.2a.76.76,0,0,0-.81-.24,3,3,0,0,1-3.56-1,3.82,3.82,0,0,0-4.6-1.06.77.77,0,0,0-.46.7,2.2,2.2,0,0,0,.06.37,9.21,9.21,0,0,1-.18,4.94c-.3,1.34-.54,2.4.23,3a1.83,1.83,0,0,0,1.77.05,23.34,23.34,0,0,0,3.95-2,10.26,10.26,0,0,0,3.68-3.89A.76.76,0,0,0,285.74,481.2Z"/></g><g id="compass"><path class="cls-34" d="M438.33,526.67A26.3,26.3,0,1,1,412,553,26.33,26.33,0,0,1,438.33,526.67Z"/><path class="cls-35" d="M438.33,532a21,21,0,1,1-21,21A21,21,0,0,1,438.33,532Z"/><path class="cls-36" d="M438.33,542.5A10.47,10.47,0,1,0,448.79,553,10.48,10.48,0,0,0,438.33,542.5Zm0,19.49a9,9,0,1,1,9-9A9,9,0,0,1,438.33,562Z"/><path class="cls-26" d="M450.92,540.37c.8.8-8.8,14.77-9.63,15.56s-14.76,10.43-15.59,9.64,8.84-14.8,9.63-15.56S450.09,539.54,450.92,540.37Z"/><path class="cls-36" d="M438.33,535.65a1.08,1.08,0,1,0,1.08,1.08A1.08,1.08,0,0,0,438.33,535.65Zm0,32.48a1.08,1.08,0,1,0,1.08,1.08A1.06,1.06,0,0,0,438.33,568.13Zm16.24-16.24a1.08,1.08,0,1,0,1.08,1.08A1.08,1.08,0,0,0,454.57,551.89Zm-32.48,0a1.08,1.08,0,1,0,1.08,1.08A1.08,1.08,0,0,0,422.09,551.89Zm27,11.51a1.1,1.1,0,1,0,1.55,0A1.09,1.09,0,0,0,449.12,563.4ZM426,541a1.1,1.1,0,0,0,0,1.56,1.1,1.1,0,1,0,0-1.56Z"/><path class="cls-37" d="M441.5,555.75c1.56-2,10.22-14.58,9.42-15.34s-14.11,8.34-15.48,9.53Z"/><path class="cls-38" d="M435.37,550c-.76.76-10.25,14.47-9.64,15.52l25.16-25.16C449.73,539.8,436.13,549.25,435.37,550Z"/><path class="cls-39" d="M435.44,549.94l3,2.89,12.45-12.46C449.77,539.8,436.81,548.78,435.44,549.94Z"/><path class="cls-40" d="M438,551.53a1.81,1.81,0,1,1-1.81,1.8A1.78,1.78,0,0,1,438,551.53Z"/><path class="cls-41" d="M438,551.53a1.79,1.79,0,0,0-1.81,1.8,1.77,1.77,0,0,0,.51,1.26l2.56-2.56A1.8,1.8,0,0,0,438,551.53Z"/><path class="cls-35" d="M438.33,551.17a1.8,1.8,0,1,1-1.81,1.8A1.78,1.78,0,0,1,438.33,551.17Z"/></g></g><g id="me"><path class="cls-42" d="M421.23,365.66s1.53,36.25-8.89,36.58c-9,.28-20,3.9-20,3.9s-3.56,20.51,44.47,20.42c46.44-.08,38.08-20.92,38.08-20.92l-11.68-4s-14.16,2.78-11.23-37.95S421.23,365.66,421.23,365.66Z"/><path class="cls-43" d="M411.76,353.21s.23,14.87,2.38,19.06,11,15,13.71,16.2c6.33,2.87,13.32,4,20.48-1.91,10.89-13.29,9.29-17.84,9.23-25.75s.88-21.3.12-25.75-1.81-23.29-25-19.87-20.43,16-20.7,23.42c-.19,5.23-.24,10.3-.25,12.86C411.76,352.57,411.76,353.21,411.76,353.21Z"/><path class="cls-42" d="M458.15,352.35l0-.05a2,2,0,0,1,3.89,1.1,47.23,47.23,0,0,1-2.34,9.3c-.28,3.22.08,6-1.75,6.24,0,0-.63.42-.71-.76s.05-7.52.05-7.52S457.27,353.55,458.15,352.35Z"/><path class="cls-42" d="M414.05,357.45s-1.56-8.24-4.81-7.16-1.1,8.28-.45,11.28c.31,1.42,2,3.2,2.31,4.14s.19,2.29.7,3c.95,1.32,1.49,1.56,2.62.92C414.6,367.66,414.05,357.45,414.05,357.45Z"/><path class="cls-44" d="M413.26,356.68s-.77-18.52-.29-20.5c-.42-1.84-1-1.72-1.81-3.66-.86,1.75-.9,12.25.55,21C413,361.13,413.26,356.68,413.26,356.68Z"/><path class="cls-45" d="M447.68,363.24a8.57,8.57,0,0,1-3.79-.61c-1.31-1-3.46-3.68-3.76-4.95a42.29,42.29,0,0,1-.29-5.5v-.08l0-.05c.32-.41,3.17-3.95,4.3-4.14s6.22-.26,7.45.37,3.7,3.66,3.81,3.79l0,.05v.07c0,.5.43,4.95.07,5.82s-2.42,4-3.66,4.65A11.69,11.69,0,0,1,447.68,363.24Zm-7.42-11a40.6,40.6,0,0,0,.28,5.33c.27,1.18,2.37,3.81,3.58,4.7s6.48.61,7.57,0,3.12-3.57,3.47-4.44a25.74,25.74,0,0,0-.09-5.56c-.33-.4-2.59-3.11-3.63-3.64s-6-.53-7.19-.33C443.52,348.45,441.48,350.72,440.26,352.25Z"/><path class="cls-45" d="M426.57,363.15c-1.82,0-3.8-.24-4.61-.8-1.26-1-3.3-3.82-3.55-5.1a43.42,43.42,0,0,1-.06-5.51v-.07l0-.06c.33-.38,3.32-3.8,4.46-3.95s6.22,0,7.43.67,3.55,3.82,3.65,3.95l0,.06v.06c0,.51.22,5-.17,5.82s-2.58,3.87-3.85,4.5A10,10,0,0,1,426.57,363.15Zm-7.81-11.32a42.23,42.23,0,0,0,.06,5.34c.23,1.19,2.22,3.9,3.39,4.85s6.45.87,7.56.32,3.26-3.44,3.66-4.29a26.23,26.23,0,0,0,.13-5.57c-.31-.41-2.46-3.21-3.48-3.78s-6-.78-7.17-.63C422.18,348.17,420.05,350.35,418.76,351.83Z"/><path class="cls-45" d="M433.87,352.73l-.19-.38a9.92,9.92,0,0,1,6.42-.27l-.11.41A9.56,9.56,0,0,0,433.87,352.73Z"/><rect class="cls-45" x="411.52" y="351.81" width="7.12" height="0.42" transform="translate(-30.55 39.58) rotate(-5.27)"/><rect class="cls-45" x="456.59" y="351.28" width="0.42" height="2.93" transform="translate(42.43 754.49) rotate(-81.79)"/><path class="cls-45" d="M434.1,328.7l.57.05.38,0,2,.23.13,0,.48.06h0l1.25.17h0c1,.15,2,.32,3,.51h0c.61.12,1.2.23,1.78.36l.09,0c1,.21,1.93.42,2.83.65a9.53,9.53,0,0,1,2.81.76,8,8,0,0,1,.72.35h0a9.37,9.37,0,0,1,1,.67l.09.06.29.21a1,1,0,0,0,.11.1c4.83,4,5.49,11.84,5.49,11.84l3.39-6.82c.17-.65.34-1.27.49-1.87l0-.14c0-.09.05-.19.07-.28l.09-.36a.31.31,0,0,0,0-.08h0c.41-1.68.74-3.14,1-4.42,0,0,0,0,0-.05.69-3.63.73-5.82.3-7.47,0,0,0,0,0,0-.05-.21-.12-.4-.18-.59l0-.06h0a13.81,13.81,0,0,0-2.38-3.7l-.17-.2-.57-.75c-.35-.45-.71-.89-1.07-1.31l-.15-.17-.11-.12-.14-.15-.26-.28h0c-.43-.45-.87-.88-1.31-1.28l-.47-.42h0c-.32-.26-.63-.52-.94-.76h0l-.23-.18c-.24-.18-.49-.35-.73-.51h0c-.3-.19-.58-.38-.88-.55l-.17-.11h0l-.67-.37h0c-.4-.21-.79-.39-1.18-.55h0a11.69,11.69,0,0,0-1.45-.48h0a7.88,7.88,0,0,0-1.58-.24c-1.14-.47-2.16-.88-3.13-1.24-.72-.27-1.4-.5-2.07-.71h0l-.11,0h0l-.09,0h0l-.2-.06a25.49,25.49,0,0,0-3-.71,39.54,39.54,0,0,0-8.92-.28h-.17l-.28,0c-.56,0-1.06.07-1.54.12h0l-.57.06h0s0,0,0,0,0,0,0,0c-.32,0-.62.07-.91.12h-.1a17.41,17.41,0,0,0-2.25.48h0c-.26.08-.49.15-.69.23h0c-1.75.68-1.6,1.42-1.6,1.42l-.67-.06-.42,0h0l-.56,0-.17,0c-.48,0-.93-.06-1.39-.06H418a5.87,5.87,0,0,0-.59.05h0l-.43.06h0a8,8,0,0,0-1.85.52,10.13,10.13,0,0,0-3.18,2.23h0c-.3.3-.61.63-.92,1h0l-.39.47-.18.32h0a16.77,16.77,0,0,0-1.33,3c-.13.38-.25.76-.35,1.13v.05a16.9,16.9,0,0,0-.56,4.31h0a18.35,18.35,0,0,0,.15,2.25,23.39,23.39,0,0,0,4.75,11.05,7.37,7.37,0,0,1,4-5.39h0a12.7,12.7,0,0,1,1.17-.57l0,0c.32-.13.66-.26,1-.38l.1,0,.55-.18h0l.77-.21h0l1-.22h0c.32-.06.65-.13,1-.18h0l.73-.11h0c.76-.11,1.55-.19,2.35-.25h0l.7,0h0l.27,0h0l.94,0h.59s0,0,0,0c.46,0,.93,0,1.4,0h.31l.67,0H431l.56,0h0l.8.05h.11l.92.07Z"/><g class="cls-46"><g class="cls-47"><rect class="cls-3" x="449.93" y="348.82" width="1.12" height="18.31" rx="0.56" transform="translate(360.59 -210.36) rotate(42.54)"/><rect class="cls-3" x="453.7" y="347.52" width="1.21" height="18.31" rx="0.6" transform="translate(547.89 926.64) rotate(-137.46)"/></g></g><g class="cls-46"><g class="cls-48"><rect class="cls-3" x="427.55" y="349.64" width="1.12" height="18.31" rx="0.56" transform="translate(355.25 -195.01) rotate(42.54)"/><rect class="cls-3" x="431.31" y="348.34" width="1.21" height="18.31" rx="0.6" transform="translate(508.46 912.92) rotate(-137.46)"/></g></g><path class="cls-49" d="M435.28,368.45a2,2,0,0,0-2-.85s-.89.11-.49.52,1.52-.31,1.52-.31S434.64,367.77,435.28,368.45Z"/><path class="cls-49" d="M438.84,368.7a2,2,0,0,1,1.85-1.11s.9,0,.55.45-1.54-.1-1.54-.1S439.38,368,438.84,368.7Z"/><path class="cls-50" d="M457.52,358.14c-.06,0-.25.05-.28.19-.34,1.73-2,9.57-2.87,13.47a18.86,18.86,0,0,1-1.54,4.26c-1,2-2.53,4.94-3.18,5.88-1,1.5-1.74-1.59-1.59-4.61.22-4.46-1.39-5-3.23-5.84s-6.09-1.09-6.09-1.09l-1.93.88-.53-.14-2.12-.55c-2.13-.56-3.92.7-6.77,1.6s-1.66,4.74-1.5,7.13.13.7-.9,2.55c-3.7-.81-9.36-12.18-10.14-14.47s-1.63-9.85-1.63-9.85a5,5,0,0,0-.65,1.51c.29,4.56.28,10.55,1.57,13.21,2.08,4.28,11,15,13.71,16.2,6.34,2.87,13.32,4,20.49-1.91,4.94-6,7.31-10.26,8.42-13.82a30.08,30.08,0,0,0,.93-4.43S457.68,358,457.52,358.14ZM445,385c-2.49.64-8.59,2.14-11.76.8s-5.44-2.57-5.88-4.85-1.06-5.42-.31-5.84c.35-.2,1.11-.53,1.11-.53s5.7-2.12,7-1.74l1.35.38a3.64,3.64,0,0,1,1.77-.24c1.29,0,8.29.57,8.39,2.15S447.52,384.33,445,385Z"/><path class="cls-44" d="M457,357s0-21.34-.49-23.31c.41-1.85,2.82-1.14,3.34-.63.86,1.75-.31,11.91-1.77,20.66-.44,2.69-.43,4-.65,4.38-.05.09-.28,0-.29,0A7,7,0,0,1,457,357Z"/><path class="cls-51" d="M439.66,327.54s7.87-16.9,20.23-10.2C459.89,317.34,449.49,311.26,439.66,327.54Z"/><path class="cls-51" d="M437.62,329.27s8.23-20.65,21.62-12.24C459.24,317,448,309.41,437.62,329.27Z"/><path class="cls-51" d="M450,329.91s8.72-3.26,12.42.52C462.4,330.43,459.75,327.5,450,329.91Z"/><path class="cls-51" d="M450.34,330.66s8.72-3.27,12.41.51C462.75,331.17,460.1,328.24,450.34,330.66Z"/><path class="cls-51" d="M463.75,324.89c0-.07-.24-.65-.64-1.5,0,0,0,0,0,0-.1-.19-.2-.41-.31-.63,0,0,0,0,0-.05a26.85,26.85,0,0,0-2.23-3.61,1.71,1.71,0,0,0-.11-.14,17.12,17.12,0,0,0-1.93-2.18l-.15-.14h0l-.14-.12a1.07,1.07,0,0,0-.16-.14,5.71,5.71,0,0,0-.47-.39h0a9.13,9.13,0,0,0-5.76-2.13h0c-.2,0-.41,0-.61,0a7.49,7.49,0,0,0-4,1.71,14.39,14.39,0,0,0-2.16,2.12,24.52,24.52,0,0,0-1.87,2.6c-.51.8-1,1.63-1.39,2.45h0a47.64,47.64,0,0,0-2.78,6.55h0a50.54,50.54,0,0,1,2-5.43c.25-.6.54-1.21.84-1.83.18-.37.36-.74.56-1.11a25.65,25.65,0,0,1,1.82-3c1.76-2.49,4-4.45,6.56-4.71h0a4.41,4.41,0,0,1,.73,0,10,10,0,0,1,1.25.1h0a10.93,10.93,0,0,1,3.06.94h0a12.35,12.35,0,0,1,3.73,2.9h0c.41.47.79.94,1.14,1.42h0l.42.62a.43.43,0,0,0,0,.07,1.74,1.74,0,0,1,.11.18l0,0a21.59,21.59,0,0,1,1.68,3.24l0,0h0l.26.64h0A11.48,11.48,0,0,1,463.75,324.89Z"/><path class="cls-51" d="M449,312.35l.57-.11a4,4,0,0,0-.49.15l0,0-.16,0a7.94,7.94,0,0,0-1.11.53l-.05,0-.1.06-.16.08a10.69,10.69,0,0,0-1.05.74c-2.89,2.24-6.07,6.76-9.22,15.14l-.13,0c1-3.36,3.7-10.86,8.13-14.63a12,12,0,0,1,1.44-1.05l.32-.18.31-.16.15-.07h0l.39-.18h0a9,9,0,0,1,1.11-.37Z"/><path class="cls-51" d="M458.09,315.48a16,16,0,0,0-3.15-2.2h0a8.94,8.94,0,0,0-1.06-.48h0a9.24,9.24,0,0,0-1.23-.4l-.2,0h0a7.4,7.4,0,0,0-2.84-.09,7,7,0,0,1,1-.2h0a6.42,6.42,0,0,1,1.31,0h.25l.34.05h0l.27.05h.05a7.67,7.67,0,0,1,1.12.32h0A10.4,10.4,0,0,1,458.09,315.48Z"/><path class="cls-51" d="M455.64,313.88l-.09-.05c-.32-.2-.64-.37-.95-.53a9.71,9.71,0,0,0-1.62-.64h0l-.11,0a8.41,8.41,0,0,0-3.71-.2h0l-.21,0a9.34,9.34,0,0,0-1,.27h0l-.45.16h0l-.19.08-.42.19h0a12.27,12.27,0,0,0-1.19.62h0a14.33,14.33,0,0,0-2,1.47h0a24.68,24.68,0,0,0-6.51,9.4,17.2,17.2,0,0,1-2,4.11l-.38,0a32.22,32.22,0,0,0,1.89-4.34,23.58,23.58,0,0,1,4.3-7.34c.3-.35.6-.68.92-1h0a18.45,18.45,0,0,1,3.36-2.68h0c.35-.21.69-.39,1-.56l.22-.11h0l.15-.06a9.91,9.91,0,0,1,1.42-.53l.13,0,.17,0,.07,0,.2,0a8.68,8.68,0,0,1,1.45-.2h.25a7.08,7.08,0,0,1,1.41.11h.06l.27.05.07,0h0l.42.1h0l.49.17a7.38,7.38,0,0,1,1.95,1h0A6.7,6.7,0,0,1,455.64,313.88Z"/><path class="cls-51" d="M435.38,324.38a29.88,29.88,0,0,1,6.7-9.68,13.62,13.62,0,0,1,1.32-1.06l0,0c.33-.23.65-.44,1-.63l.43-.24.05,0h0l.13-.07.44-.22a11.05,11.05,0,0,1,1.78-.65l.27-.07h.12a9.27,9.27,0,0,1,1.58-.23h.42a8.22,8.22,0,0,1,1.53.11h0l.44.07.54.13h0a8.51,8.51,0,0,1,1.82.7h0l.25.13a12.12,12.12,0,0,0-1.4-.47h0a6.58,6.58,0,0,0-.74-.17H452l-.27-.05h-.07a9.54,9.54,0,0,0-1.4-.11H450a9.85,9.85,0,0,0-1.73.2l-.08,0-.15,0-.16,0a10.49,10.49,0,0,0-1.55.53l-.22.09-.22.11h0l-.11.05a11.72,11.72,0,0,0-1.29.72,18.61,18.61,0,0,0-4.09,3.64l-.59.72a26.81,26.81,0,0,0-4,7"/><path class="cls-51" d="M448.22,313.22c-.25,0-.49-.05-.74-.06h-.74a8.24,8.24,0,0,0-1.58.22h0c-.23.05-.47.12-.69.19a10.56,10.56,0,0,0-2.38,1.12c-5,3.14-8.24,10.3-9.58,13.88h-.11c2.63-8.44,5.8-12.53,8.61-14.41a9.6,9.6,0,0,1,1.21-.7l.36-.16h0a7.76,7.76,0,0,1,2.05-.57,1.9,1.9,0,0,1,.25,0h0l.39,0a7.72,7.72,0,0,1,.84,0l.31,0h0a7.9,7.9,0,0,1,.94.18l.07,0,.24.07h.07l.13.05a1.83,1.83,0,0,1,.26.11l.07,0h0Z"/><path class="cls-51" d="M446,312.85h-.25a10,10,0,0,0-1.35.12,10.23,10.23,0,0,0-1.61.39l-.35.13a9.42,9.42,0,0,0-1.44.67c-5.69,3.16-8.49,11.16-9.41,14.36h0c2-8.32,5-12.38,7.75-14.29a8.79,8.79,0,0,1,1.43-.85,8.49,8.49,0,0,1,.85-.35,7.69,7.69,0,0,1,3.44-.4l.26,0a4.45,4.45,0,0,1,.5.11l.09,0Z"/><path class="cls-51" d="M463.76,323.5s-15.08-2.92-20.07,7C443.69,330.47,445.35,320,463.76,323.5Z"/><path class="cls-45" d="M464.07,322.93S449,320,444,329.9C444,329.9,445.66,319.38,464.07,322.93Z"/><path class="cls-51" d="M448.22,313.22h0l-.57-.13-.09,0-.27-.06-.11,0a8.46,8.46,0,0,0-1-.15,1.63,1.63,0,0,0-.31,0h-.12a7.6,7.6,0,0,0-.94-.05h-.2a10.94,10.94,0,0,0-2.75.37c-.29.08-.58.18-.86.28a10.29,10.29,0,0,0-1.73.85c-5.29,3.18-7.52,10.66-8.31,14.27h-.12c1.31-8.86,4.39-13.05,7.6-14.91a9,9,0,0,1,1.68-.77,10.84,10.84,0,0,1,5.31-.4c.32.05.61.12.88.18l.24.06q.46.12.81.24h0l.06,0,.22.08h.07l.13.05.26.11.07,0Z"/><path class="cls-51" d="M429.92,326.86c0,.52,0,1.06,0,1.62h0C429.88,328,429.89,327.46,429.92,326.86Z"/><path class="cls-51" d="M443.55,313.66l-.15,0c-.33-.06-.65-.11-1-.14l-.23,0c-.41,0-.81-.07-1.19-.08h-.3a12.34,12.34,0,0,0-2.26.2,8.72,8.72,0,0,0-5.16,2.94c-2.54,2.92-3.23,7.28-3.38,10.3a26.89,26.89,0,0,1,.94-6.9,12,12,0,0,1,2.18-4.37h0a7.69,7.69,0,0,1,1.55-1.44,7.48,7.48,0,0,1,2-1,9.12,9.12,0,0,1,3.5-.32,13.1,13.1,0,0,1,1.43.22l.31.07c.26.07.49.13.69.2h0l.21.06.64.24Z"/><path class="cls-51" d="M430,328.48a28.12,28.12,0,0,1,2.25-9.34,51.21,51.21,0,0,0-2.08,9.34Z"/><path class="cls-51" d="M448.49,312.38l-.5-.25-.11-.06-.65-.3c-3.8-1.63-7.16-1.16-9.55.55a12.11,12.11,0,0,0-1,.82,15.25,15.25,0,0,0-2.08,2.18,18.22,18.22,0,0,0-2.28,3.81,25.23,25.23,0,0,1,1-2.6,18.51,18.51,0,0,1,1.3-2.41,11.36,11.36,0,0,1,2.55-2.86h0a7.13,7.13,0,0,1,2.15-1.17h0a7.32,7.32,0,0,1,2.62-.37,8.06,8.06,0,0,1,1,.1,9,9,0,0,1,1.7.43l.16.06a12.91,12.91,0,0,1,2.5,1.24h0l.23.15.13.09a4.28,4.28,0,0,1,.36.26l.08,0Z"/><path class="cls-51" d="M450.68,312.1l-.12-.06c-.11-.06-.29-.15-.55-.26h0l-.79-.33h0a23.32,23.32,0,0,0-4.39-1.16l-.84-.13-.82-.1-.77-.06-.41,0a8.41,8.41,0,0,0-4.8,1.28h0a13.32,13.32,0,0,0-4.1,4.3h0a27,27,0,0,0-2.18,4.37,45.16,45.16,0,0,0-2.38,8.54s0,0,0,0c1.69-11.43,5-16.18,8.72-18a10.32,10.32,0,0,1,4.25-1h.77a16.88,16.88,0,0,1,2.89.3h0a15.4,15.4,0,0,1,4.55,1.6c.23.12.42.24.57.33h0l.39.26Z"/><path class="cls-51" d="M453.43,313.06a.77.77,0,0,0-.17-.13c-.09-.08-.23-.18-.4-.31l-.42-.29h0c-.16-.1-.33-.22-.52-.33l-.18-.11-.57-.34h0c-.48-.28-1-.56-1.65-.84h0a20.09,20.09,0,0,0-4.71-1.48c-.55-.1-1.13-.17-1.72-.22a10.46,10.46,0,0,0-2.45.06l-.33.05-.29.06a9.8,9.8,0,0,0-3.72,1.61c-5.94,4.14-7.87,14.15-8.38,17.69h0a39.11,39.11,0,0,1,2.59-11.29v0c.07-.19.15-.37.23-.55a16.54,16.54,0,0,1,2.92-4.48,11.07,11.07,0,0,1,4.38-2.91c.32-.11.64-.21,1-.3s.41-.11.62-.15c.39-.08.78-.14,1.18-.19h.11a14,14,0,0,1,1.83-.07h.08a16.21,16.21,0,0,1,8.18,2.68h0l.64.42.46.33h0l.08.05.49.37.33.27h0l.31.27A1,1,0,0,1,453.43,313.06Z"/><path class="cls-51" d="M426.91,328.5v0Z"/><path class="cls-51" d="M448.66,311.14a30.18,30.18,0,0,0-4-.91l-.79-.11-.79-.08c-.37,0-.74-.06-1.1-.07a18.7,18.7,0,0,0-2.64.1h0a12.72,12.72,0,0,0-2.16.42c-.31.08-.61.18-.9.28a12.1,12.1,0,0,0-2.66,1.36,12.89,12.89,0,0,0-1.22,1c-.25.22-.48.46-.71.7h0c-3.36,3.57-4.37,8.83-4.66,12.3a.22.22,0,0,1,0,.08c0,.56-.06,1.06-.08,1.51,0-.56,0-1.1,0-1.62a1,1,0,0,1,0-.17,33.1,33.1,0,0,1,.72-5.69v0c.17-.76.36-1.48.58-2.15,0-.1.07-.21.11-.32a11.75,11.75,0,0,1,.44-1.14c.08-.21.17-.41.26-.6h0a12.84,12.84,0,0,1,2.66-3.82l.17-.16h0a10.85,10.85,0,0,1,6.07-2.76,13.31,13.31,0,0,1,1.78-.12h.51l.6,0a21.62,21.62,0,0,1,4.2.7h0A22.3,22.3,0,0,1,448.66,311.14Z"/><path class="cls-51" d="M428.67,311.86l-.24.3h0a12,12,0,0,0-2,4.35h0a1.82,1.82,0,0,0-.07.25h0a18.23,18.23,0,0,0-.4,2.42h0a29.84,29.84,0,0,0,.71,9.32h0a35,35,0,0,1-1-4.81h0a19.44,19.44,0,0,1,.07-6.27.06.06,0,0,1,0,0C426.45,313.23,428.67,311.86,428.67,311.86Z"/><path class="cls-51" d="M423.47,328.68l0,.13h0Z"/><path class="cls-51" d="M441,308.62l-.25,0h0c-.92-.09-1.79-.14-2.62-.15-.56,0-1.1,0-1.62,0-15.78.71-13.82,16.12-13.08,20-.25-1.21-.45-2.36-.59-3.43h0c-1.6-12.6,4.28-16.22,9.77-17a18.68,18.68,0,0,1,2.2-.16,23.62,23.62,0,0,1,4.21.34c.92.15,1.58.32,1.85.39Z"/><path class="cls-51" d="M422.42,327.33c.1.52.21,1,.33,1.59h0C422.67,328.59,422.54,328,422.42,327.33Z"/><path class="cls-51" d="M442.76,308.5l-.18,0h0l-.68-.13h0a30.27,30.27,0,0,0-7.68-.55,16.74,16.74,0,0,0-1.83.21h0a11.49,11.49,0,0,0-8.18,5.07s0,0,0,0c-2.88,4.56-2.33,10.84-1.77,14.08a29.89,29.89,0,0,1-.47-10.55v0a13.7,13.7,0,0,1,1.18-3.8,9.49,9.49,0,0,1,3-3.63h0a10.15,10.15,0,0,1,2.22-1.2h0a13.52,13.52,0,0,1,1.32-.43h0c.2,0,.39-.11.59-.15h0c.43-.09.87-.17,1.32-.23h.06a25.1,25.1,0,0,1,8.59.65h0c1,.23,1.71.46,2.12.59h0l.07,0,.09,0h0l.14.05h0Z"/><path class="cls-51" d="M442.76,308.5l-.29-.07h0l-.27-.07h0a39,39,0,0,0-5.17-.87h0a22.52,22.52,0,0,0-5.37.08,17.74,17.74,0,0,0-1.79.35,11.26,11.26,0,0,0-5,2.69,10.73,10.73,0,0,0-1.75,2.19,17,17,0,0,0-2.13,8.41,34.3,34.3,0,0,0,.78,7.89h0a43.27,43.27,0,0,1-1-5.25c0-.21-.05-.42-.07-.63-.73-7,1-11.05,3.79-13.38a10.54,10.54,0,0,1,3-1.73l.33-.13c.51-.18,1-.33,1.54-.46l.58-.12c.35-.07.71-.13,1.07-.18H431l.64-.08h0a28.34,28.34,0,0,1,8,.56s0,0,0,0c1.22.26,2.15.52,2.65.67h0l.2.06Z"/><path class="cls-51" d="M443.89,308.53h-.07l-.2-.06c-6.06-1.79-10.65-2.14-14.1-1.53h0a12.59,12.59,0,0,0-1.31.29h0l-.42.12h0c-.32.09-.61.2-.9.31h0l-.18.07h0c-.32.13-.63.28-.92.43h0c-8.4,4.35-6.06,16.94-5,21.17h0c-3.32-12.24-.92-18.24,3.38-20.95h0l.26-.16h0l.3-.17h0l.34-.19h0a9.1,9.1,0,0,1,.85-.37h0l.44-.17h0a15.08,15.08,0,0,1,2.22-.58h0c.35-.07.7-.12,1.05-.16h0l.53-.06h0l.56,0c.42,0,.84,0,1.26,0h.09c.72,0,1.43,0,2.14.08h0c.64.05,1.28.12,1.89.2h0A40.44,40.44,0,0,1,443.89,308.53Z"/><path class="cls-51" d="M445.59,308.74c-2.15-.73-4.13-1.31-6-1.74h0l-.51-.12a38.23,38.23,0,0,0-5.91-.9c-.49,0-.95,0-1.4,0h-.58a17.25,17.25,0,0,0-4.45.59h0l-.44.14a.35.35,0,0,0-.11,0,11.55,11.55,0,0,0-1.85.78l-.36.2c-.26.16-.51.31-.75.48l-.42.32-.22.18a7.81,7.81,0,0,0-.67.62c-.17.17-.34.35-.5.54-4.76,5.6-2.57,15.69-1.53,19.43-2.34-7.93-2.33-13.34-.9-16.95l.06-.16a10.49,10.49,0,0,1,.89-1.7c.16-.25.33-.48.5-.7l.17-.2c.16-.19.32-.37.49-.54s.33-.33.5-.48a8.45,8.45,0,0,1,.75-.59l.34-.23.28-.17.27-.16a7.88,7.88,0,0,1,.76-.4l.25-.11.3-.12a16.17,16.17,0,0,1,5.16-1,26.78,26.78,0,0,1,3,0c.26,0,.51,0,.76.06h0l.3,0,.75.08a43.84,43.84,0,0,1,5.69,1.11l.35.1A46.24,46.24,0,0,1,445.59,308.74Z"/><path class="cls-51" d="M419.44,329.72l-.1,0c-1.3-2.36-4.68-9.77-.62-16.8C418.45,313.47,415.32,319.94,419.44,329.72Z"/><path class="cls-51" d="M419.57,311.82c-.2.16-.38.32-.56.48-7,6.39-2.42,15.09-.68,17.83l0,0c-7.73-10.82-1.18-16.61.78-18A4.2,4.2,0,0,1,419.57,311.82Z"/><path class="cls-51" d="M416.66,330c.14.24.29.49.45.73h0C417,330.56,416.84,330.31,416.66,330Z"/><path class="cls-51" d="M432.59,306c-.76.14-1.49.27-2.19.42l-.47.11-.22.05h0c-.55.13-1.08.27-1.6.41l-1.07.31-.52.15-1.2.4-.57.22h0c-.35.13-.7.27-1,.42-.62.26-1.2.53-1.75.82-.32.16-.62.33-.92.5h0c-.37.22-.72.43-1.06.66-5.6,3.73-6.4,8.67-5.73,12.78a19.52,19.52,0,0,0,1.42,4.74h0c.31.69.61,1.28.87,1.76a23.73,23.73,0,0,1-2.61-6.15,11.57,11.57,0,0,1,.55-8,13.75,13.75,0,0,1,5.83-5.84l.33-.18h0c.52-.29,1.06-.56,1.61-.8l.59-.26h0c.36-.16.72-.3,1.09-.44h0c.49-.19,1-.36,1.47-.51.21-.08.42-.14.63-.2,1.07-.33,2.1-.58,3-.77l.17,0,.59-.12C431.48,306.07,432.59,306,432.59,306Z"/><path class="cls-51" d="M415.89,331s-14.59-24.13,18.52-25.21C434.41,305.8,400.17,304.69,415.89,331Z"/><path class="cls-52" d="M414.78,331.34s-19.18-30.46,28.16-23.93C442.94,307.41,395.71,298.87,414.78,331.34Z"/><path class="cls-51" d="M441.91,329.93s7.87-16.9,20.23-10.21C462.14,319.72,451.73,313.65,441.91,329.93Z"/><path class="cls-45" d="M413.29,331.45s-16.08-25.22,17.76-26C431.05,305.43,396.61,303.53,413.29,331.45Z"/><path class="cls-45" d="M412,333.07s-16.76-25.53,19.08-25.84C431.05,307.23,395.38,305.22,412,333.07Z"/><path class="cls-51" d="M429.42,311.44a12,12,0,0,0-2.69,4.54,3.53,3.53,0,0,0-.15.46,18.92,18.92,0,0,0-.65,2.75h0a28.75,28.75,0,0,0-.36,4.5h0a35.49,35.49,0,0,0,.33,4.85h0a26.5,26.5,0,0,1-.21-11.13.06.06,0,0,1,0,0,10.07,10.07,0,0,1,2.78-5.22h0A4.59,4.59,0,0,1,429.42,311.44Z"/><path class="cls-52" d="M426,317.3s2.72-4.43,6.83-5.51C432.8,311.79,428.48,312.24,426,317.3Z"/><path class="cls-52" d="M428.83,314.31a11.34,11.34,0,0,0-2.07,4.68S427.12,315.51,428.83,314.31Z"/><path class="cls-52" d="M424.13,318.08s2.14-8.06,10.51-9.05A11.38,11.38,0,0,0,424.13,318.08Z"/><path class="cls-53" d="M414.78,311.21s16-10.33,38.66,3.6C453.44,314.81,434.75,302.11,414.78,311.21Z"/><path class="cls-54" d="M456.91,316s-10.47-4.41-15.12,6.49C441.79,322.44,444.44,311,456.91,316Z"/><path class="cls-54" d="M463.36,323.1s-8.12-19.46-24.81-4.08C438.55,319,453,302.13,463.36,323.1Z"/><path class="cls-51" d="M416.76,330.1c.12.21.23.41.36.62h0Z"/><path class="cls-51" d="M436,305.07a56,56,0,0,0-6.22.63h0a38.9,38.9,0,0,0-3.87.83l-.4.12-.79.23c-.48.16-.94.31-1.38.49s-.65.25-1,.39h0l-.65.31a15.54,15.54,0,0,0-1.77.95c-.3.18-.59.37-.86.57l-.1.07h0a11.7,11.7,0,0,0-4.44,5.9,14.81,14.81,0,0,0-.23,7.66,26.51,26.51,0,0,0,2.5,6.82q-.59-1.07-1.08-2.07h0a29.85,29.85,0,0,1-1.74-4.38,14.75,14.75,0,0,1-.46-8.07,10.21,10.21,0,0,1,3.05-5,4,4,0,0,1,.38-.34,6.4,6.4,0,0,1,.5-.41h0a13.12,13.12,0,0,1,1.47-1h0c.23-.15.47-.28.72-.41a17,17,0,0,1,1.55-.74h0l1.25-.49a33.65,33.65,0,0,1,6.41-1.54l.9-.12h0A43.84,43.84,0,0,1,436,305.07Z"/><path class="cls-51" d="M423.12,327.13c.11.54.23,1.1.37,1.68h0C423.38,328.43,423.25,327.86,423.12,327.13Z"/><path class="cls-51" d="M443.94,308.55h0l-1.56-.18h-.25l-.28,0h0c-1-.09-2-.13-2.86-.14q-1,0-1.92,0c-.49,0-1,.06-1.41.11-12.36,1.31-13.38,10.9-12.85,16.64h0c.08.78.18,1.48.28,2.09-1.3-6.56-.65-11,1.05-14,0,0,0,0,0,0a11,11,0,0,1,7.36-5.11c.52-.11,1.05-.21,1.58-.28a23,23,0,0,1,3.86-.18c.79,0,1.55.09,2.26.17l.48,0s0,0,0,0l.57.08a28.19,28.19,0,0,1,3.53.73Z"/><path class="cls-52" d="M427.06,326.32a33.37,33.37,0,0,1-.69-9A18,18,0,0,0,427.06,326.32Z"/><path class="cls-52" d="M427.13,322.24s-.77-5.1,1.07-8.67A31,31,0,0,0,427.13,322.24Z"/><path class="cls-52" d="M427.68,320.23s-.31-4.51.87-7.21C428.55,313,427.92,316.7,427.68,320.23Z"/><path class="cls-52" d="M428.27,318.51s-.09-4.53,1-6.53C429.25,312,428.64,315.77,428.27,318.51Z"/><path class="cls-52" d="M428.79,317.37s-.06-4.44,1.88-6.27A26.53,26.53,0,0,0,428.79,317.37Z"/><path class="cls-52" d="M430.23,318.2s1-6.42,4.42-7.09C434.65,311.11,431.78,311.92,430.23,318.2Z"/><path class="cls-52" d="M412.8,332s-12.64-24.16,13.06-26.3C425.86,305.65,399.29,305.88,412.8,332Z"/><path class="cls-52" d="M420.71,326s-1.3-27.24,22.91-18.36C443.62,307.68,419.42,296.7,420.71,326Z"/><path class="cls-51" d="M450.49,332s8.91-1.47,10.91,2.88C461.4,334.85,460.26,329.56,450.49,332Z"/><path class="cls-51" d="M451.38,332.78s7.6-1.48,9.3,2.88C460.68,335.66,459.71,330.37,451.38,332.78Z"/><path class="cls-51" d="M451.45,333.06s7.67-.91,9.13,3.56C460.58,336.62,459.9,331.27,451.45,333.06Z"/><path class="cls-50" d="M433.39,378.05s2.95.31,3.73-.21a6,6,0,0,0,3.2.21c.89-.37-2.93,2-3.14,3.16C437.18,381.21,435.92,378.42,433.39,378.05Z"/><path class="cls-55" d="M517.38,459.74c7.7,2.39-16.74,28.79-33.48,22.76S498,453.71,517.38,459.74Z"/><path class="cls-43" d="M598.77,521.33a7.26,7.26,0,0,1-2.2,2.19,52.52,52.52,0,0,1-6,4c-2.43,1.33-7,5.6-7.37,5.75,0,.12-8.32,3-12.39,3.3-3.31.25-14.24-.32-21-2.25a36.83,36.83,0,0,0-4.29-1c-5.94-.89-33.59-3.13-38.11-10.3-3.05-4.81-13.9-26.93-16.67-38.63-1.69-7.13-3.33-14.15-4.46-19l-1.49-6.48,6.53-40.5c3.4,3.4,13.83,15.23,18,29.61s13.75,49.87,15.26,54,30.73,16.85,30.73,16.85a17.07,17.07,0,0,1,10.24-8c3.58-1,8.24-5.38,10.35-7s3.83-1.32,4.08.27a2.6,2.6,0,0,1,0,.79,7.75,7.75,0,0,1-1.65,3.43c-.36.51-.77,1-1.19,1.51l-.28.33c-1,1.2-2.13,2.33-2.9,3.25a11.27,11.27,0,0,0-2.44,4.89,25.82,25.82,0,0,0,6.8.3,2.52,2.52,0,0,1,2.38,1.14c.92,1.21,3.09,1.3,5.76.07,5.3-2.47,6.93-3.62,8.5-4.89,2.41-2,3.87-.49,3.3,1.43a3.93,3.93,0,0,1-.71,1.33,13.1,13.1,0,0,1-1.41,1.42A2.09,2.09,0,0,1,598.77,521.33Z"/><path class="cls-56" d="M497.9,495.62c-1.59-9.48-.15-19.75,6.39-27.17a22.56,22.56,0,0,1,9-6.21c-1.54-5.53-3-10.57-4-14.23-4.16-14.38-14.59-26.21-18-29.61l-6.53,40.5,1.49,6.48c1.13,4.85,2.77,11.87,4.46,19,1.73,7.29,6.59,18.63,10.75,27.3A135.47,135.47,0,0,1,497.9,495.62Z"/><path class="cls-56" d="M594.82,519.86l0,0,1-.62,0,0,.22-.13a13.1,13.1,0,0,0,1.41-1.42,3.93,3.93,0,0,0,.71-1.33c-1.27.83-3.93,2.57-6,4a97.63,97.63,0,0,1-9.43,5.34c.21-.07,1.94-.62,3.91-1.49C588.46,523.51,592.7,521.11,594.82,519.86Z"/><path class="cls-56" d="M589.56,524.81c-2.21,1.32-6.29,4.3-6.63,4.46,2.21-.51,10.44-5.25,11.36-5.59a1.44,1.44,0,0,1,1.51.25l.77-.41C597.77,522.59,596.72,520.54,589.56,524.81Z"/><path class="cls-56" d="M580,504.91a7.75,7.75,0,0,1-1.65,3.43c-.36.51-.77,1-1.19,1.51l-.28.33c-1,1.2-2.13,2.33-2.9,3.25a11.27,11.27,0,0,0-2.44,4.89,2.43,2.43,0,0,0-1.22,0c-.72.15-3,.82-3.33.91,1.59-.64,2.84-4.36,5.67-6.44s5.44-4,7.2-7.87Z"/><path class="cls-56" d="M561.36,522.8c5.63-2.07,7.52.32,10.6,2a13.48,13.48,0,0,0,5.23,1.83,23,23,0,0,1-6.3-5.08C568.75,518.77,561.36,522.8,561.36,522.8Z"/><path class="cls-42" d="M563.24,535.56c9.88,1,18.3.19,22.93-2.59a76.21,76.21,0,0,0,8.21-5.63c2.61-1.91,2.09-3.76,1.12-4.28s-1.81,0-4.08,1.25A112.43,112.43,0,0,1,577.47,530Z"/><path class="cls-4" d="M517.38,459.74s-15.32-.44-25.79,8.95a27,27,0,0,0-6.35,8.45s-2.06-15.25-4.49-34.4c-.41-3.32-.84-6.75-1.27-10.23-2.94-23.65,5.43-25.33,5.43-25.33,25.16,1.93,19.07,21.76,25.78,37.16Z"/><path class="cls-6" d="M491.59,468.69a27,27,0,0,0-6.35,8.45s-6.69-24.1-2.68-50.21C484.92,435.83,488.12,461.3,491.59,468.69Z"/><path class="cls-55" d="M356,459.74c-7.7,2.39,16.73,28.79,33.47,22.76S375.44,453.71,356,459.74Z"/><path class="cls-43" d="M274.63,521.33a7.34,7.34,0,0,0,2.21,2.19,52.48,52.48,0,0,0,6,4c2.43,1.33,7,5.6,7.37,5.75,0,.12,8.33,3,12.39,3.3,3.32.25,13.77-1.47,20.53-3.41,1.64-.46,3.58.33,4.75.15,5.94-.89,33.6-3.13,38.11-10.3,3.05-4.81,13.9-26.93,16.68-38.63,1.69-7.13,3.32-14.15,4.45-19l1.49-6.48-6.52-40.5c-3.4,3.4-13.84,15.23-18,29.61s-13.75,49.87-15.26,54-30.72,16.85-30.72,16.85a17.07,17.07,0,0,0-10.24-8c-3.59-1-8.24-5.38-10.35-7s-3.84-1.32-4.09.27a3,3,0,0,0,0,.79,7.65,7.65,0,0,0,1.65,3.43c.36.51.77,1,1.19,1.51.09.12.18.22.27.33,1.05,1.2,2.14,2.33,2.91,3.25a11.31,11.31,0,0,1,2.43,4.89,25.73,25.73,0,0,1-6.79.3,2.52,2.52,0,0,0-2.39,1.14c-.92,1.21-3.08,1.3-5.75.07-5.31-2.47-6.93-3.62-8.51-4.89-2.4-2-3.86-.49-3.29,1.43a3.93,3.93,0,0,0,.71,1.33,12.85,12.85,0,0,0,1.4,1.42A2.1,2.1,0,0,0,274.63,521.33Z"/><path class="cls-56" d="M375.5,495.62c1.6-9.48.16-19.75-6.39-27.17a22.46,22.46,0,0,0-9-6.21c1.54-5.53,2.95-10.57,4-14.23,4.16-14.38,14.6-26.21,18-29.61l6.52,40.5-1.49,6.48c-1.13,4.85-2.76,11.87-4.45,19C381,491.67,376.11,503,372,511.68A137.4,137.4,0,0,0,375.5,495.62Z"/><path class="cls-56" d="M278.59,519.86l0,0-1-.62,0,0a1.79,1.79,0,0,0-.22-.13,12.85,12.85,0,0,1-1.4-1.42,3.93,3.93,0,0,1-.71-1.33c1.27.83,3.93,2.57,5.95,4a97.47,97.47,0,0,0,9.44,5.34c-.21-.07-1.94-.62-3.92-1.49C284.94,523.51,280.7,521.11,278.59,519.86Z"/><path class="cls-56" d="M283.84,524.81c2.22,1.32,6.3,4.3,6.63,4.46-2.2-.51-10.43-5.25-11.35-5.59a1.44,1.44,0,0,0-1.51.25l-.77-.41C275.63,522.59,276.69,520.54,283.84,524.81Z"/><path class="cls-56" d="M293.45,504.91a7.65,7.65,0,0,0,1.65,3.43c.36.51.77,1,1.19,1.51.09.12.18.22.27.33,1.05,1.2,2.14,2.33,2.91,3.25a11.31,11.31,0,0,1,2.43,4.89,2.48,2.48,0,0,1,1.23,0c.72.15,3,.82,3.32.91-1.58-.64-2.84-4.36-5.66-6.44s-5.44-4-7.2-7.87Z"/><path class="cls-42" d="M291.66,520.87A19.4,19.4,0,0,1,281.39,517c-5.32-3.86-3.24-6.09-2.07-5.79s2.62,2,5,3.39c1.46.84,6.47,3.8,9.29,3.86s1.24,1.61,1.24,1.61S294.35,521.25,291.66,520.87Z"/><path class="cls-56" d="M312.05,522.8c-5.63-2.07-7.53.32-10.6,2a13.55,13.55,0,0,1-5.24,1.83,23,23,0,0,0,6.31-5.08C304.66,518.77,312.05,522.8,312.05,522.8Z"/><path class="cls-42" d="M310.16,535.56c-9.87,1-18.3.19-22.93-2.59a76.9,76.9,0,0,1-8.2-5.63c-2.62-1.91-2.1-3.76-1.12-4.28s1.81,0,4.08,1.25A112.43,112.43,0,0,0,295.94,530Z"/><path class="cls-4" d="M356,459.74s15.31-.44,25.78,8.95a27,27,0,0,1,6.36,8.45s2.05-15.25,4.48-34.4c.41-3.32.85-6.75,1.28-10.23,2.93-23.65-5.44-25.33-5.44-25.33-26,4.45-19.07,21.76-25.77,37.16Z"/><path class="cls-6" d="M381.81,468.69a27,27,0,0,1,6.36,8.45s6.69-24.1,2.67-50.21C388.49,435.83,385.29,461.3,381.81,468.69Z"/><path class="cls-4" d="M485.35,542.84c-14.22,3.18-34.28,9.94-50.09,10.18-31.61.48-44.72-8.45-47-11.78-2.12-2.76,2.34-22.36,2-43.09-.58-32.41-1.77-91-1.77-91a124.47,124.47,0,0,1,17.75-6.36,88.44,88.44,0,0,1,11-2.44A18.27,18.27,0,0,0,415.1,402c-1.48,4.54,9.56,8.65,21.34,8.65s21.35-3.87,21.35-8.65c0-1.59-.36-2.31-1.71-4.69,2.52.29,3.91,1,6.53,1.45a33,33,0,0,1,6.95,2l15.35,6.42s-.06,45.16-1.33,65.07C482.35,491.49,485.35,542.84,485.35,542.84Z"/><path class="cls-57" d="M526.39,535.93c-17-4.44-46.59,9.61-56.2,9.61l-33.6,5.93L403,545.54c-9.61,0-39.19-14-56.2-9.61s11.09,44.37,46.59,56.94c17.71,6.27,68.7,6.27,86.41,0C515.3,580.3,543.4,540.36,526.39,535.93Z"/><path class="cls-58" d="M526.39,535.93c-17-4.44-46.59,9.61-56.2,9.61,10.64,1.44,35.89-3.11,35.89-3.11s-6.7,1.67-13.06,9.7S439.46,603,439.46,603,413.68,579.59,407,570.55s-20.42-20.42-24.1-24.78c-2.32-2.74,3.47-2.16,16.36-.68C387.16,542.73,362,532,346.8,535.93c-17,4.43,11.09,44.37,46.59,56.94,17.71,6.27,29.9,9.78,37.66,11.73l-.06,2.32s1.74-.19,5.6-1c3.87.84,5.61,1,5.61,1l-.07-2.32c7.77-2,20-5.46,37.67-11.73C515.3,580.3,543.4,540.36,526.39,535.93Z"/><path class="cls-43" d="M553.24,555.15a35.64,35.64,0,0,1-8.08,12C533.69,579,514.76,588,506.05,592.26a174.55,174.55,0,0,1-20.58,8.36c-17.58,6-34.08,9.35-38.39,10.73-5,1.61-14.17,6.22-21.28,8.41-.92.29-1.81.53-2.64.73-.55.12-1.09.23-1.59.31-7.21,1.1-25.52-3.89-32.18-3.89S378.3,622.45,375,620.8s-2.21-8.34,0-9.45a5.31,5.31,0,0,1,2.77-6.64,32.81,32.81,0,0,1,7.29-3.09,14,14,0,0,1,4.92-.24c4.81.52,21.95,3.12,25.69,2.32a2.14,2.14,0,0,0,.37-.1c2.78-1.11,6.1-7.22,11.65-7.22,3.24,0,5.35-.37,9.66-3,3.06-1.87,7.2-4.88,13.64-9.72,1.54-1.15,3.24-2.55,5.08-4.1,13.25-11.29,33.79-31.84,56.06-42a66.83,66.83,0,0,1,18.41-5.63c6.4-.88,18.88,2.41,22.82,11C554.85,546.14,555.1,550.22,553.24,555.15Z"/><path class="cls-42" d="M553.33,542.84a21,21,0,0,0-8.17-2.68c-11.76-1.43-18.06-5.57-33.06-2.68a66.83,66.83,0,0,1,18.41-5.63C536.91,531,549.39,534.26,553.33,542.84Z"/><path class="cls-56" d="M485.47,600.62c-17.58,6-34.08,9.35-38.4,10.73-5,1.61-14.16,6.22-21.27,8.42a124.36,124.36,0,0,0-10.16-16.07,2.14,2.14,0,0,0,.37-.1c2.78-1.11,6.1-7.21,11.65-7.21,3.24,0,5.36-.38,9.66-3,3.05-1.87,7.2-4.89,13.64-9.72,1.54-1.15,3.24-2.55,5.07-4.11-6.68,8.79-7.64,16.07,3.77,18.15C467,599,477.05,600,485.47,600.62Z"/><path class="cls-56" d="M545.16,567.13C533.68,579,514.76,588,506,592.26c-23.29,11.44-53,17.16-59,19.09-5.59,1.81-16.6,7.45-23.91,9.13a55.76,55.76,0,0,1-7.48-4.74c-4.12-3.54-21-10.39-30.65-14.13a14.25,14.25,0,0,1,4.92-.23c5,.55,23.3,3.32,26.06,2.22s6.1-7.21,11.65-7.21c3.24,0,3.14,5.27,7.45,2.61,7.43,2,18.91,2.71,33.47,1.34C483.78,598.92,522.14,585.61,545.16,567.13Z"/><g class="cls-59"><line class="cls-60" x1="437.45" y1="551.46" x2="437.78" y2="592.31"/><path class="cls-60" d="M444.48,549.79s2,7.37.67,11.05-7.37,8.37-7.37,8.37"/></g><path class="cls-43" d="M342.69,531.85c-8.86-1.22-29.4,5.55-22.74,23.3s35.88,31.26,47.2,37.17c23.1,12,52.86,17.37,59,19s18.31,8.32,25.52,9.43,25.51-3.89,32.16-3.89,11.1,5.55,14.42,3.89,2.22-8.32,0-9.43a5.33,5.33,0,0,0-2.77-6.66c-4.44-2.22-7.21-3.88-12.2-3.33s-23.29,3.33-26.07,2.22-6.1-7.21-11.65-7.21-10.73-1.11-26.26-12.75S374.85,536.29,342.69,531.85Z"/><path class="cls-42" d="M320.07,542.84a21,21,0,0,1,8.18-2.68c11.75-1.43,18.06-5.57,33.05-2.68a66.76,66.76,0,0,0-18.4-5.63C336.5,531,324,534.26,320.07,542.84Z"/><path class="cls-42" d="M593.91,515.45a19.46,19.46,0,0,1-9.54,5.45c-6.36,1.64-6.75-1.38-5.78-2.09s3.22-.74,5.81-1.72c1.58-.6,7.05-2.57,8.89-4.71s2,.07,2,.07S595.92,513.63,593.91,515.45Z"/><path class="cls-3" d="M448,515.24l-.54-2.08a10.81,10.81,0,0,0-1.8-4.09,10.58,10.58,0,0,0-4.52-3.26,12.23,12.23,0,0,0-6.73-.89,8.54,8.54,0,0,0-7,5.14,9.78,9.78,0,0,0-.69,3.86,10,10,0,0,0,1.82,6.15,8.59,8.59,0,0,0,7.87,3.75,8.16,8.16,0,0,0,7-4.94,8,8,0,0,0,1-3.54,6.37,6.37,0,0,0-2-4.73,7.9,7.9,0,0,0-4.85-2.36,6.07,6.07,0,0,0-5.61,2.12,5.31,5.31,0,0,0-.2,6.12,4.65,4.65,0,0,0,3.46,2.35c2.19.26,3.65-.33,4.56-2.39a2.22,2.22,0,0,0,.1-1.44,8.87,8.87,0,0,1-.31-1.68,1,1,0,0,1,1.06-1.13.76.76,0,0,1,.66.36,3.75,3.75,0,0,1,.55,1.72,5.85,5.85,0,0,1-4.43,6.22,6.36,6.36,0,0,1-7.63-3.57,7.94,7.94,0,0,1,.43-6.84c1.43-2.86,4-4.08,7.37-3.82a9.18,9.18,0,0,1,5.81,2.68,8.58,8.58,0,0,1,2.73,7.17,10.57,10.57,0,0,1-8.16,9.27,10.27,10.27,0,0,1-11.3-5,11.59,11.59,0,0,1-1.7-6.76c.21-3.48,2.38-8.23,6.85-9.9a11.22,11.22,0,0,1,4.77-.57,14.75,14.75,0,0,1,4.93,1.13,10.55,10.55,0,0,1,6.39,7.82,12.71,12.71,0,0,1,.28,3.14Z"/><path class="cls-3" d="M412.37,511.28l-2.83-1,0-.1.77-.26a1.42,1.42,0,0,0,1.06-1.91c-.14-.69-.34-1.37-.5-2.06a1.89,1.89,0,0,1,0-.58,1,1,0,0,1,.19-.32,1.13,1.13,0,0,1,.24.25,3.06,3.06,0,0,1,.13.43,2.91,2.91,0,0,0,3.4,2.16l1.19-.17c.28,0,.48,0,.46.33-.53.35-1,.71-1.59,1a4.49,4.49,0,0,1-.65.21,15.77,15.77,0,0,0-1.47.62.57.57,0,0,0,.07,1,4.7,4.7,0,0,0,1.1.35c.44.06.61-.13.65-.59,0-.13,0-.27.07-.5.16.09.32.13.39.23a.87.87,0,0,1-.59,1.37c-.23,0-.45,0-.58.28,0,.06-.23.06-.34,0-.4,0-.8-.11-1.2-.12a.53.53,0,0,0-.42.21.89.89,0,0,1-.68.45c-.08,0-.15.07-.31.15l1.07.3c-.27.14-.48.24-.68.37a1.74,1.74,0,0,0-.5.48h2.5l0,.08c-.34.17-.67.37-1,.51a3.14,3.14,0,0,0-2.06,3c-.06.65,0,1.32,0,2a1.06,1.06,0,0,1-.14.56,3.62,3.62,0,0,0-.52,1.83c0,.15,0,.3,0,.45l-.11,0a1.21,1.21,0,0,1-.18-.28,2,2,0,0,1,.09-1.44,2.59,2.59,0,0,0,.13-1.88,4.23,4.23,0,0,1,.53-3.49c-.16-.21-.31-.13-.44,0a5.49,5.49,0,0,1-.4.43c-.18.14-.39.24-.58.36l-.09-.09a2.52,2.52,0,0,1,.12-.29,3.13,3.13,0,0,0,.37-.6,3,3,0,0,1,1.31-1.62l.27-.2-.77-.27a1,1,0,0,0-1.37,1,2.25,2.25,0,0,1,0,.44.46.46,0,0,1-.21.28.28.28,0,0,1-.26-.11c-.41-.94-.61-1.66.62-2.34a6.81,6.81,0,0,1,2.94-.75,6.13,6.13,0,0,0,.73-.11Z"/><path class="cls-3" d="M456.24,541a4.57,4.57,0,0,1-.32-.92,22.53,22.53,0,0,1-.28-2.59,3.67,3.67,0,0,1,.3-1.18c.26-.77.59-1.52.8-2.3a1.94,1.94,0,0,0-.25-1.71,1,1,0,0,0-1.71,0,2,2,0,0,0-.24.57,1.13,1.13,0,0,0,0,.4h.09a.35.35,0,0,0,.05-.08c0-.26,0-.58.37-.63a1.07,1.07,0,0,1,1.12.36,1.75,1.75,0,0,1-.19,2,.52.52,0,0,1-.27.15c-1.25.13-2.07,0-2.56-1.33a2.52,2.52,0,0,1,.48-2.82,2.83,2.83,0,0,1,2.94-.85,2.06,2.06,0,0,1,1,.64c1.21,1.52,1.44,2.73.59,4.34-.37.7-.77,1.38-1.12,2.09a6,6,0,0,0-.61,2.93c0,.28,0,.57,0,.86Z"/><path class="cls-3" d="M462,499.86a2.16,2.16,0,0,1-.57,1.1,9.26,9.26,0,0,1-2.47,1.6,3.07,3.07,0,0,0-1.35,1,1.78,1.78,0,0,0,0,1.76,1,1,0,0,0,1.56,0l-.69.06a.61.61,0,0,1-.64-.4,1.14,1.14,0,0,1,1-1.74c1.17-.05,1.82.6,1.95,1.83a2.13,2.13,0,0,1-2.2,2.5,5.22,5.22,0,0,1-1.62-.2,1.92,1.92,0,0,1-1.45-1.62,3.08,3.08,0,0,1,1-3.24,6.19,6.19,0,0,1,1.48-.79c1.09-.48,2.19-.91,3.28-1.38A6.37,6.37,0,0,0,462,499.86Z"/><path class="cls-3" d="M414.6,532.61l.1-.28a1,1,0,0,1,.88-.63.85.85,0,0,1,.93.42,1.19,1.19,0,0,1-.12,1.6,2.06,2.06,0,0,1-1.9.66,1.24,1.24,0,0,1-.9-.63,2.42,2.42,0,0,1,.63-3.35,2.6,2.6,0,0,1,2.58-.49,2.92,2.92,0,0,1,1.76,2.52,3,3,0,0,1-1.16,2.73c-1.16,1-2.38,2-3.58,2.91a1.89,1.89,0,0,1-.48.21c0-.2,0-.44.05-.58a18.5,18.5,0,0,1,1.28-1.64c.58-.66,1.22-1.26,1.8-1.91a2.38,2.38,0,0,0,.67-1.36,1.54,1.54,0,0,0-1.31-1.49,1.27,1.27,0,0,0-1.3,1.23Z"/><path class="cls-3" d="M437.48,487a2.54,2.54,0,0,1,0,.29,6.86,6.86,0,0,1-2,3.58,1.78,1.78,0,0,0-.58,1.92.48.48,0,0,0,.11.24,1.31,1.31,0,0,0,1.53.1.81.81,0,0,0,.25-.85l-.2.32c-.23.38-.38.44-.83.33s-.64-.31-.66-.71a1.38,1.38,0,0,1,1.9-1.42,1.59,1.59,0,0,1,1.24,1.43,3.1,3.1,0,0,1-.45,2.3,2.29,2.29,0,0,1-2.4.89,2.45,2.45,0,0,1-2.06-2,2.86,2.86,0,0,1,1-3.1,18.19,18.19,0,0,0,3-3.18,1.07,1.07,0,0,1,.14-.16Z"/><path class="cls-3" d="M409.46,499.86a6,6,0,0,1,3,3.43c.16.45.33.9.52,1.34a1.6,1.6,0,0,0,1.26.95.78.78,0,0,0,.93-.79,1,1,0,0,0-.09-.22c-.06.05-.15.09-.17.15-.12.26-.21.54-.56.53s-.77,0-1-.44a1.22,1.22,0,0,1-.06-1.3,1.52,1.52,0,0,1,1.41-.7,2.21,2.21,0,0,1,2.09,2,2.63,2.63,0,0,1-2.52,2.81,1.64,1.64,0,0,1-1.45-.78,12.58,12.58,0,0,1-1.34-2.73c-.43-1-.89-2-1.36-3-.19-.38-.44-.72-.66-1.08A1.82,1.82,0,0,1,409.46,499.86Z"/><path class="cls-3" d="M462.25,511.47c.56.88,1.41.37,2.15.59a3.49,3.49,0,0,0-1.53,2l1.53-.2a13,13,0,0,0-2.21,2.63l1.44-.3a.87.87,0,0,1-.38.73,2.8,2.8,0,0,0-.93,1.49.79.79,0,0,0,.27.89c.13.11.27.22.39.34a.51.51,0,0,1-.19.94l-.26.08,0,.08a1.66,1.66,0,0,1,.81,1.66,5.14,5.14,0,0,1-.53,1.86,3.17,3.17,0,0,1-2.26,1.5c-.11,0-.22.07-.33.1s0,0,0,0a2.42,2.42,0,0,1,.48.48,1.76,1.76,0,0,1,.16.7,1.35,1.35,0,0,0-1.72-.57c-.18-.59.44-1.29,1-1.42a2.33,2.33,0,0,0,1.36-1,3.62,3.62,0,0,1,.36-.42,2.39,2.39,0,0,0,.6-1.87c0-.18-.24-.4-.42-.53-.36-.27-.38-.41,0-.65a.53.53,0,0,0,.2-.86,1,1,0,0,0-.15-.19,1.26,1.26,0,0,1-.53-1.27h-.17a.76.76,0,0,1-.93-.78.29.29,0,0,1,.15-.24,2,2,0,0,0,1.6-2l-1,.16.84-2.09-.95.25c.24-.59.43-1.14.68-1.66C461.83,511.67,462.07,511.6,462.25,511.47Z"/><path class="cls-3" d="M410.92,525.74c-.06.33-.09.58-.15.83a1.28,1.28,0,0,1-.17.26,1.85,1.85,0,0,1-.27-.19,2.67,2.67,0,0,1-.36-.47,4,4,0,0,1-.51-1.23,1.4,1.4,0,0,1,.39-.91,3.69,3.69,0,0,0,.74-2.88.9.9,0,0,0-.07-.22l-.37.91a1.24,1.24,0,0,1-.09-1.14,1.88,1.88,0,0,1,.3-.6c.26-.39.56-.76.81-1.16s.37-.68.55-1a2.68,2.68,0,0,1,.18-.28l.13,0a9,9,0,0,1-.12,1.06,3.14,3.14,0,0,1-.35.8c-.18.34-.39.65-.23,1.06a.68.68,0,0,0,.72.46l-.16-.19c0-.05-.07-.11-.14-.22.56-.17.69.45,1.16.51l-.66-.62a.51.51,0,0,1,.67,0,2.67,2.67,0,0,1,.66.64c.2.28,0,.52-.31.5-.53,0-1-.06-1.58-.09-.09,0-.23,0-.26,0-.2.34-.38.71-.56,1.07l.06.1c.54-.68,1.37-.6,2.08-.86-.34.47-1,.61-1.17,1.24h.36l-.6,1.1-.11,0-.06-.94h-.1l-.17.55h-.07l-.07-.3a2.18,2.18,0,0,0-.54,2.75,5,5,0,0,0,.08-.6c0-.28,0-.57.26-.77.07-.06.05-.22.1-.32a2.29,2.29,0,0,1,.27-.27c.07.1.18.18.2.29s.05.52.08.79a.6.6,0,0,0,.52.59,1.33,1.33,0,0,1,1,.83.75.75,0,0,1-.12.85,2.6,2.6,0,0,0-.25.87l.13.08.45-.36a4.25,4.25,0,0,1,.46-.27l.07.1c-.18.32-.34.65-.54.95a3.34,3.34,0,0,0-.59,1.52,1.64,1.64,0,0,1-.26.51,1.7,1.7,0,0,1-.17-.51c-.06-1.1-.11-2.2-.14-3.3a1.23,1.23,0,0,0-.46-.92Z"/><path class="cls-3" d="M427.12,530.93l.18-.7-.77-.51a.63.63,0,0,0-1.06.43.39.39,0,0,0,.19.46,3.74,3.74,0,0,0,1.65.54l.4.07-.3.19a3.58,3.58,0,0,0-2,2.63,1.14,1.14,0,0,1-.6.78l-.11,0a2.52,2.52,0,0,1,.06-.48A2.33,2.33,0,0,0,425,533c-.12-.46-.42-.59-.84-.35a1.5,1.5,0,0,0-.67,1.72c0,.19.11.38.15.57a1.73,1.73,0,0,1-.92,1.93,4,4,0,0,0-.77.77c-.08.09-.13.19-.23.33a1.42,1.42,0,0,1,.72-1.48,1.18,1.18,0,0,0,.67-1.42.38.38,0,0,0-.1-.25.75.75,0,0,1-.29-.79,7.76,7.76,0,0,1,.2-1.28,1.59,1.59,0,0,1,1.68-1.15,3.66,3.66,0,0,1,1,.41l.43-.52c-.5-.13-1-.23-1.52-.39a9.37,9.37,0,0,1-1.26-.54.28.28,0,0,1-.15-.23c0-.06.13-.14.21-.16a3.77,3.77,0,0,0,1.76-1.09,1.36,1.36,0,0,1,1.45,0,1.7,1.7,0,0,0,1.24.49,2,2,0,0,1,.34,0c.18,0,.21.13.11.26-.24.32-.49.63-.74.94C427.37,530.86,427.28,530.87,427.12,530.93Z"/><path class="cls-3" d="M451.1,523.41l.22-1a1.11,1.11,0,0,0-.88.45.72.72,0,0,1,.46-.85,3.06,3.06,0,0,0,1.53-.87s.07,0,.18-.08l-.17.42a5.14,5.14,0,0,0-.32,4,4.71,4.71,0,0,1,.14,1.12l-1.74-1.17.82.06a1.7,1.7,0,0,0-.72-1.33,1.81,1.81,0,0,0-1.48-.27,8,8,0,0,0,.68-2.84l-.11.06a4.51,4.51,0,0,1-1.24,2.14,1.82,1.82,0,0,0-.33,1.44c0,.23.06.47.09.71l-2.1-.24c0-.21.12-.4.39-.41a.57.57,0,0,0,.58-.45,4.29,4.29,0,0,1,1.46-2,4.28,4.28,0,0,0,1.26-3.17,2.45,2.45,0,0,1,0-.27.19.19,0,0,1,.14-.11s.11.06.14.11a.47.47,0,0,1,0,.17c.06.84.13,1.67.16,2.51a9.89,9.89,0,0,1-.08,1.33c0,.39,0,.44.35.48Z"/><path class="cls-3" d="M425.63,501l1.6.53c.38-.29.26-.65.21-1a.5.5,0,0,1,.37-.63c.21,0,.53.22.59.48,0,.08,0,.16,0,.27a11.69,11.69,0,0,1,1.24-.75,9.72,9.72,0,0,1,1.38-.44,5.82,5.82,0,0,0-.33-.59,1.19,1.19,0,0,1-.12-1.16,9.75,9.75,0,0,0,.28-1.61,1.64,1.64,0,0,1,.21.37,2.92,2.92,0,0,1,0,.59,3.32,3.32,0,0,0,.68,2.52,1.18,1.18,0,0,1,.11.39,1.07,1.07,0,0,1-.41.1,2.52,2.52,0,0,0-2.28.66c-.45.39-.92.76-1.38,1.13a.72.72,0,0,1-.27.12c-.26,0-.53,0-.8.06,0,.23-.06.45-.11.67a1.88,1.88,0,0,1-.78,1.14,7.65,7.65,0,0,0-2.67,4.63c-.15.59-.23,1.19-.36,1.78,0,.09-.11.17-.16.25l-.11,0-.06-1c0-.61-.05-1.21-.06-1.82a2.23,2.23,0,0,1,.1-.43l.38.27c.21-.41.44-.85.65-1.29a7.94,7.94,0,0,1,1.76-2.64,2.57,2.57,0,0,0,.64-1,1.34,1.34,0,0,0-.12-.77,5.06,5.06,0,0,0-.3-.67Z"/><path class="cls-3" d="M452.82,499.56a3.66,3.66,0,0,1,1.78-.86l.07.07a3.75,3.75,0,0,1-.51.6,2.11,2.11,0,0,0-.81,1.77,1.44,1.44,0,0,1-1,1.3c-1.06.53-1.08.53-.93,1.69a.82.82,0,0,1-.31.9,1,1,0,0,1-1,0,3,3,0,0,1-.56-.45,1,1,0,0,0-1-.28,2.9,2.9,0,0,0,.58.48,1.16,1.16,0,0,1,.65,1.27,4,4,0,0,0,.07.83c-.26.13-.36-.05-.41-.24a4.7,4.7,0,0,0-1.32-2.09c-.13-.15-.33-.24-.43-.4a4.29,4.29,0,0,1-.33-.72.52.52,0,0,1,.26-.13,10.12,10.12,0,0,1,1.09.25,8.22,8.22,0,0,1,.83.3,3.85,3.85,0,0,0,.63.27.51.51,0,0,0,.46-.08.54.54,0,0,0,.07-.49.59.59,0,0,1,0-.79h0a5.43,5.43,0,0,1,.92-.61c.3-.14.65-.16.76-.54s.18-.64.25-1,.11-.74.17-1.11Z"/><path class="cls-3" d="M459.85,514.31a3.94,3.94,0,0,1,.07-2.38,3,3,0,0,1,1.16-1.63,3,3,0,0,0,1.22-2.25c0-.24.05-.48.07-.71s.24-.49.52-.34a1.16,1.16,0,0,1,.53.52,2.85,2.85,0,0,1-.81,3.39,3.87,3.87,0,0,1-.7.43,3.62,3.62,0,0,0-2,2.56C459.93,514,459.89,514.18,459.85,514.31Z"/><path class="cls-3" d="M461.85,506.87a2,2,0,0,1-1.16,2.59,4.21,4.21,0,0,1-2.17.12.72.72,0,0,1-.34-.21c-.24-.22-.45-.46-.68-.68a1.9,1.9,0,0,0-1.23-.62c-.09,0-.16-.07-.25-.1l0-.12a7.21,7.21,0,0,0,.92.11,14.78,14.78,0,0,0,2.66,0,6,6,0,0,0,1.69-.79Z"/><path class="cls-3" d="M426.36,494.1c.6.27.93-.17,1.37-.4a1.47,1.47,0,0,1-1.11,1.24c-.2.06-.34.13-.19.42l2.14-1.11a5.78,5.78,0,0,0-.22.73,4.76,4.76,0,0,0,.38,2.58c.13.37.29.72.43,1.09a3.48,3.48,0,0,1,.1.44l-1.9-.76c.18-.21.2-.22,1.15-.16a5.55,5.55,0,0,1-.78-2.57c-1.05.11-1.54,1.06-2.4,1.44a7.61,7.61,0,0,0,.28-.75,6.93,6.93,0,0,0,.24-1c0-.24.06-.49-.29-.6-.17-.05-.16-.24,0-.35a5.84,5.84,0,0,1,.76-.45c.39-.18.8-.32,1.2-.48l.06.12Z"/><path class="cls-3" d="M459.28,533.25a7.16,7.16,0,0,0-.64-2.77c0-.09,0-.22,0-.33a.78.78,0,0,1,.24.19c.23.34.44.7.69,1.11a6.18,6.18,0,0,0,.7-2.34,3.94,3.94,0,0,0-.68-2.25l.1-.09a1.37,1.37,0,0,1,.46.14,1.75,1.75,0,0,1,.82,1.32,3.75,3.75,0,0,1,0,.58,1.5,1.5,0,0,0,.41,1.23,2.11,2.11,0,0,1,.18.27l-.28.17a1.57,1.57,0,0,0-.89,1.3A1.7,1.7,0,0,1,459.28,533.25Z"/><path class="cls-3" d="M415.32,522.17c-.28.21-.53.43-.81.61-.1.06-.27,0-.4,0a1.5,1.5,0,0,1,.16-.34c.25-.31.55-.59.78-.92a9.1,9.1,0,0,0,.46-.94,1,1,0,0,1,.31-.34c0,1-.17,2,.49,2.89a3.29,3.29,0,0,0,.94-1.95c0-.29,0-.58.05-.86a.36.36,0,0,1,.16-.27c.32-.1.66-.16.92-.22l-.09,1.43c-.32-.19-.27-.55-.31-.86-.29,0-.3.19-.32.38a15.93,15.93,0,0,1-.2,1.84,2.44,2.44,0,0,1-.49,1,1.14,1.14,0,0,0-.21.83c0,.17-.06.5-.11.5-.3,0-.19-.26-.26-.43a1,1,0,0,0-.18-.39,2.59,2.59,0,0,1-.85-1.82.54.54,0,0,0,0-.1S415.31,522.16,415.32,522.17Z"/><path class="cls-3" d="M423.87,522.21c-.37-.27-.84-.41-.93-1,0-.16-.26-.31-.43-.41a.77.77,0,0,1-.38-.64,2.54,2.54,0,0,0-.25-.81,9.52,9.52,0,0,0-.52-.91c-.46.36-.48,1.16-1.27,1.2V519l-.63,0c.07-.14.09-.27.17-.3a3.09,3.09,0,0,0,1.4-1.95c.09-.26.13-.54.23-.79s.16-.18.25-.26a1,1,0,0,1,.15.28,8,8,0,0,0,1.08,3.93c.15.24.23.52.38.77s.46.7.69,1l.18.31Z"/><path class="cls-3" d="M445.37,526c-.39,1.25-.53,1.15-.17,3.3-.29,0-.52-.42-.52-.86a8.29,8.29,0,0,0-.06-1.1,3,3,0,0,0-1.35,1.31l-.09-.34c-.05,0-.09,0-.11,0a5.15,5.15,0,0,1-1.71.84,1.34,1.34,0,0,0-1,.92c-.47-.25-.94-.48-1.4-.74-.1-.06-.14-.21-.21-.31.1,0,.21-.08.3-.06a1.08,1.08,0,0,0,.86-.24,1.23,1.23,0,0,1,.74-.29c1.89,0,3.2-1,4.47-2.24Z"/><path class="cls-3" d="M456.76,526.59l.17-.41c.14.2.24.36.36.5s.24.3.36.46a1.51,1.51,0,0,1,.11.22c-.08,0-.16.09-.24.08a2.12,2.12,0,0,1-1.76-1.25,2.67,2.67,0,0,1-.09-.26,1,1,0,0,0-1.59-.47c-.16.12-.32.26-.49.4l-1.46-1.55,1.13-1c0,.23-.06.48-.06.72a.72.72,0,0,0,.62.85.56.56,0,0,0,.47-.14c.52-.69,1.17-.79,1.63.27a2.9,2.9,0,0,1,.24.68A1.24,1.24,0,0,0,456.76,526.59Z"/><path class="cls-3" d="M441.53,494.31l.34-1.68a1.53,1.53,0,0,1,1,.4,2.21,2.21,0,0,0,2.28.35,7.23,7.23,0,0,1,.8-.21.37.37,0,0,1,.29.07l-.18.14a1.52,1.52,0,0,0-.78,1.4.5.5,0,0,1-.26.49,1.37,1.37,0,0,0-.72,1.06,1.61,1.61,0,0,1-.34.66.48.48,0,0,1-.31.11.27.27,0,0,1-.21-.12c0-.06.05-.15.09-.23s.23-.37.33-.57.13-.31.22-.45a3.05,3.05,0,0,0,.46-1.69,8.21,8.21,0,0,1-1.13-.09,1.45,1.45,0,0,1-.69-.39c-.21-.22-.3-.17-.43.05S442,494.28,441.53,494.31Z"/><path class="cls-3" d="M421.32,503.3a8.57,8.57,0,0,0-.46.76c-.08.17-.13.42-.34.31s-.14-.49-.07-.54c.41-.27.23-.68.3-1s.05-.55.09-.82c0-.09.1-.16.2-.22.09.62.1,1.23.84,1.49.07-.25.11-.48.19-.68.16-.39.32-.78.51-1.16s.24-.33.68-.29c-.15.27-.28.54-.43.79a2.27,2.27,0,0,0-.29,1.25c0,.52,0,1.05-.05,1.57a.86.86,0,0,1-.06.23l-.4,1.39s-.15-.06-.17-.13a1.74,1.74,0,0,1-.06-1.31,1,1,0,0,0,0-.5,3.62,3.62,0,0,0-.14-.67A2.55,2.55,0,0,0,421.32,503.3Z"/><path class="cls-3" d="M446,530.1l1.39.25a4.4,4.4,0,0,0-1.59,3.57c-.34.09-.37.07-.39-.21,0-.46,0-.46-.49-.6l.48-1.19h-2v-.46c.3,0,.58.09.86.09a2.29,2.29,0,0,0,1.52-.63C446.06,530.69,446.36,530.47,446,530.1Z"/><path class="cls-3" d="M432.43,531.32c.24-.33.44-.61.65-.88a.29.29,0,0,1,.16-.11,13.74,13.74,0,0,1,1.8-.19,1.66,1.66,0,0,1,.82.36.84.84,0,0,0,1,.09,1,1,0,0,1,1.32.15c.39.36.52.33.85-.08a1,1,0,0,1,.32-.23,2.4,2.4,0,0,1-.55,1.27.38.38,0,0,1-.65-.07c-.45-.73-.82-.83-1.62-.44-.46.22-.69.17-.93-.24s-.56-.63-1.17-.42a2.11,2.11,0,0,0-.34.16c-.25.15-.38.45-.75.45A4.44,4.44,0,0,0,432.43,531.32Z"/><path class="cls-3" d="M435.34,529.76h-1.57c-.52,0-1,0-1.57.08a1.91,1.91,0,0,1-1.47-.29.62.62,0,0,0-.73,0,5.53,5.53,0,0,1-1.13.5,1.17,1.17,0,0,1,.15-.27c.51-.48,1-1,1.54-1.41a.5.5,0,0,1,.5,0,5.94,5.94,0,0,0,4,1.23l.23,0s0,0,.06,0Z"/><path class="cls-3" d="M428.21,491.33l.22,1.89a2.29,2.29,0,0,0-1.8.16,3.46,3.46,0,0,0-1.51,1.35,2.62,2.62,0,0,1-.28.3l-.1-.06c0-.44.05-.88.09-1.32a1.33,1.33,0,0,0-.28-1,7.6,7.6,0,0,1-.46-.78l.09-.08,1.51,1.47c.53-.21,1.16-.44,1.78-.7a.6.6,0,0,0,.22-.27c.14-.31.26-.63.4-.94Z"/><path class="cls-3" d="M434.52,499.08c.54-.4,1-.87,1.78-.73a3.37,3.37,0,0,0,.55,0c.31,0,.56,0,.68-.4a1,1,0,0,1,.52-.47,2.49,2.49,0,0,0,1-.8c.05-.07.14-.09.21-.14s.08.21,0,.27a4.06,4.06,0,0,1-.75,1.09,1.4,1.4,0,0,0-.54,1.18,1.47,1.47,0,0,1-.1.4c-.13,0-.26-.1-.39-.13a13,13,0,0,0-1.36-.26C435.65,499.05,435.1,499.08,434.52,499.08Z"/><path class="cls-3" d="M427.86,528.89l.54-.13a1.74,1.74,0,0,0-.3-.09c-.28,0-.57-.06-.86-.06a1.12,1.12,0,0,1-1-.5.43.43,0,0,0-.09-.1s0,0-.1,0c-.14.33-.25.7-.76.77a1.7,1.7,0,0,1,.09-.33,3.79,3.79,0,0,0,.38-2.56c0-.09.08-.2.12-.31l.09,0c.08.36.17.72.25,1.08a1.78,1.78,0,0,0,1.71,1.51,2.69,2.69,0,0,1,1.05.54c.07,0,.1.16.15.25C428.74,529.26,428,529.23,427.86,528.89Z"/><path class="cls-3" d="M447.67,500.6a9,9,0,0,0-1.1.82,1.42,1.42,0,0,1-1,.39c-.06,0-.13,0-.17,0-.44-.4-.84-.14-1.25.07-.13.06-.27.1-.44.16,0-.31.1-.56.11-.82s-.08-.43-.39-.44a4,4,0,0,1-1-.21c.1-.06.2-.17.31-.18a9.35,9.35,0,0,1,1.05-.11.43.43,0,0,1,.54.39c0,.32.25.42.57.44a3.5,3.5,0,0,0,2.23-.53C447.3,500.47,447.5,500.3,447.67,500.6Z"/><path class="cls-3" d="M443.72,497.53c-1.5.39-1.54,1.56-1.54,2.73-.29.08-.38-.06-.41-.29a3.67,3.67,0,0,1,.3-2c0-.07.06-.15.1-.27l-1.41.12-.67-1.32a10.25,10.25,0,0,0,1.72.82,9.85,9.85,0,0,0,1.82.17Z"/><path class="cls-3" d="M443.09,497a4.21,4.21,0,0,0,0-.89.7.7,0,0,0-.36-.4,4.08,4.08,0,0,0-.77-.25c-.08,0-.18.06-.27.08a3.23,3.23,0,0,1-.33.06c.17-.35.31-.65.46-.94a1.13,1.13,0,0,1,2-.14c.05.06.05.16.1.3l-1.22-.47a.67.67,0,0,0,.65.84c.36,0,.41.23.37.47a7.2,7.2,0,0,1-.29,1.08C443.34,496.81,443.21,496.87,443.09,497Z"/><path class="cls-3" d="M419.74,502.6l-.24-2.37.51-.12v2l.1,0,.49-.38c-.14.48,0,.92-.32,1.31-.14.14-.06.5-.07.76,0,.45-.08.55-.48.62,0-.1,0-.2,0-.29a1.82,1.82,0,0,0-.67-1.55c-.11-.09-.15-.29-.22-.44a3.79,3.79,0,0,1,.48.14A3.58,3.58,0,0,1,419.74,502.6Z"/><path class="cls-3" d="M450.74,502.76c-.5.22-.56.21-.73-.18l.45,0c0-.15,0-.29-.08-.42a2,2,0,0,1,1.51-2.62,1,1,0,0,1,.35,0,1.53,1.53,0,0,0,0,.3c0,.53-.36.65-.75.83s-.53.8-.59,1.3c0,.27-.09.54-.14.81Z"/><path class="cls-3" d="M444.32,527.87a.78.78,0,0,1,0,.89,2.4,2.4,0,0,0-.16.27c-.34.59-.34.59.16,1.07,0,0,.08.06.09.1.06.36.12.71.19,1.16-.73-.62-1.28-1.39-2.19-1.55.35-.31.68-.59,1-.89S444,528.26,444.32,527.87Z"/><path class="cls-3" d="M453.85,524.3c.42-.4.42-.4.15-1a1.75,1.75,0,0,1,2.41.69c.22.32.42.65.61,1a.88.88,0,0,1,.09.47c-.25-.21-.5-.43-.77-.63s-.58-.36-.94-.59l.42-.17c-.05-.32-.28-.42-.56-.44s-.48,0-.56.36A.63.63,0,0,1,453.85,524.3Z"/><path class="cls-3" d="M437.34,498.09a4.57,4.57,0,0,0-1-.19,11.84,11.84,0,0,0-1.55.17c-.36.05-.71.13-1.06.21l-.07-.13a1.54,1.54,0,0,1,.25-.26c.3-.19.61-.37.92-.55a1.4,1.4,0,0,1,.46-.16c.55,0,1.1,0,1.65,0a2.42,2.42,0,0,1,.45.1Z"/><path class="cls-3" d="M444.26,492a1.53,1.53,0,0,0-.26.31.54.54,0,0,0,0,.31.21.21,0,0,0,.2.06.43.43,0,0,0,.22-.22,2.41,2.41,0,0,0,.05-.54,1.58,1.58,0,0,1,.5-1.1c.16-.15.47-.15.71-.21l0,.1a2.26,2.26,0,0,1-.29.25,1,1,0,0,0-.54.93c0,.24,0,.48,0,.72a.75.75,0,0,1-1.06.71.89.89,0,0,1-.51-.75.7.7,0,0,1,.57-.72,1.31,1.31,0,0,1,.39,0Z"/><path class="cls-3" d="M464.6,521.22a3.49,3.49,0,0,1-1.19-1.52,1,1,0,0,1,1.09-1.43c.07,0,.14.13.17.21a.41.41,0,0,1-.06.2,2.41,2.41,0,0,0-.14,1.73C464.53,520.68,464.56,521,464.6,521.22Z"/><path class="cls-3" d="M424.52,502.83c-.19.68,0,1.43-.61,2a5.45,5.45,0,0,0-.6,1.18c-.06.12-.14.23-.21.35l-.12,0c0-.13,0-.26,0-.38,0-.42.14-.84.15-1.26a1.52,1.52,0,0,1,.42-1.12l.67-.7a1.55,1.55,0,0,1,.22-.12Z"/><path class="cls-3" d="M444.11,534.17a1.41,1.41,0,0,1,.42-.12c.37.05.73.15,1.09.21a2,2,0,0,0,.34,0l1.31-.09-.75,2c-.23-.07-.22-.74.12-1.43-.56-.08-.88.37-1.32.61-.17-.62-.49-1.06-1.2-1.07Z"/><path class="cls-3" d="M422.71,522.32a1.41,1.41,0,0,1,.31,0c.25,0,.48.15.73.19s.38.22.33.51a1.73,1.73,0,0,0,0,.6.46.46,0,0,0,.26.27c.51.15.66.32.69,1-.26-.53-.67-.5-1.07-.51a.59.59,0,0,1-.64-.71,1.33,1.33,0,0,0-.33-1A4.61,4.61,0,0,1,422.71,522.32Z"/><path class="cls-3" d="M450.54,508.79l.7,1,1.09-.81.07.06c0,.11-.07.26-.16.33a2.83,2.83,0,0,0-.95,1.95,2.83,2.83,0,0,1-.14.52c0,.08-.16.13-.24.19-.05-.09-.14-.17-.14-.26,0-.46.05-.94,0-1.4a6.5,6.5,0,0,0-.24-1.06c0-.18-.09-.35-.13-.53Z"/><path class="cls-3" d="M448.84,539.08l-.6-.81a1.16,1.16,0,0,0-1.05-.51.69.69,0,0,1-.67-.45.76.76,0,0,1,.12-.8.61.61,0,0,1,.91-.08.73.73,0,0,1,.13.28l-.28.13-.3.12c.09.09.18.26.26.25.34,0,.52.2.71.4a9.71,9.71,0,0,1,.81.89,1.41,1.41,0,0,1,.08.56Z"/><path class="cls-3" d="M429.4,528.31c-.36-.11-.72-.21-1.08-.35a4.83,4.83,0,0,1-.92-.43,1.23,1.23,0,0,1-.3-.45,3.33,3.33,0,0,0-.24-.46,4.45,4.45,0,0,0-.49-.48l.23-.35c.44.44.87.93,1.35,1.33s1,.71,1.52,1.06Z"/><path class="cls-3" d="M424.75,489.56a2,2,0,0,1,1.2,1.72,8.12,8.12,0,0,0,.24,1.15c0,.11.05.23.07.35-.66,0-.79-.18-.81-.77,0-.17,0-.34,0-.52a2.12,2.12,0,0,0-.39-1.35A3.85,3.85,0,0,1,424.75,489.56Z"/><path class="cls-3" d="M421.32,521.58c-.18.29-.32.29-.58.14a3.28,3.28,0,0,0-.91-.22l-.57-.1-.64.24,0-.09c.2-.29.37-.6.59-.88a.38.38,0,0,1,.34,0,1.55,1.55,0,0,0,1.2.61A2.71,2.71,0,0,1,421.32,521.58Z"/><path class="cls-3" d="M456,498.36a1.43,1.43,0,0,1-1.17,1.44c-.08,0-.17-.07-.25-.1s.1-.14.17-.16c.35-.13.42-.25.33-.62a2.76,2.76,0,0,0-.08-.27,2.81,2.81,0,0,1-.08-.29Z"/><path class="cls-3" d="M446.22,501.86l.9-.15v1.51h-.91A1.91,1.91,0,0,0,446.22,501.86Z"/><path class="cls-3" d="M414.81,523.05c.71.58.84,1.47,1.48,2a1.1,1.1,0,0,1-1.3-1A5.83,5.83,0,0,0,414.81,523.05Z"/><path class="cls-3" d="M441,496.37a1.18,1.18,0,0,0,1.1-.22.53.53,0,0,1,.85.24c.07.2,0,.34-.19.36a10.67,10.67,0,0,1-1.26.09C441.28,496.83,441,496.78,441,496.37Z"/><path class="cls-3" d="M451.28,507.55,451,509c-.29-.06-.18-.47-.43-.65l-.26.08c-.12-.17-.23-.31-.33-.46s-.07-.14-.05-.18a.28.28,0,0,1,.17-.11Z"/><path class="cls-3" d="M420.83,519.9l.64-.49c.09.33.19.62.25.92a1.73,1.73,0,0,0,.54,1.08c.1.09.09.31.15.51-.33-.22-.59-.38-.83-.56a.41.41,0,0,1-.13-.28,5.61,5.61,0,0,1,0-.58C421.46,520,421.32,519.91,420.83,519.9Z"/><path class="cls-3" d="M430.08,498a1.79,1.79,0,0,1-1.28,2.13Z"/><path class="cls-3" d="M432.34,498.8c.34,0,.63.08.93.08a.69.69,0,0,1,.7.5,5.42,5.42,0,0,1-1.21,0C432.57,499.32,432.46,499,432.34,498.8Z"/><path class="cls-3" d="M441.61,498.14a2.47,2.47,0,0,1-1.57,1.42.88.88,0,0,1-.26-.06l.21-.17a4.82,4.82,0,0,0,.65-.42c.24-.21.42-.48.64-.71a1.17,1.17,0,0,1,.27-.15Z"/><path class="cls-3" d="M432.81,530.29c-.26.29-.28.69-.74.65s-.44-.42-.72-.65Z"/><path class="cls-3" d="M464.22,510.78a.65.65,0,0,1-.68.81c-.21,0-.34-.12-.22-.38C463.54,510.73,463.6,510.69,464.22,510.78Z"/><path class="cls-3" d="M424.68,533.44l-.68,1.1c-.31-.2-.34-.38-.17-.77S424.13,533.29,424.68,533.44Z"/><path class="cls-3" d="M462,527.34c-.57-.88,0-1.27.63-1.63Z"/><path class="cls-3" d="M417.79,523.29l.8-1.34.31.12A1.37,1.37,0,0,1,417.79,523.29Z"/><path class="cls-3" d="M437.58,529.3a1.47,1.47,0,0,1-1.33.61.32.32,0,0,1-.18-.11.2.2,0,0,1,.06-.14l1.29-.43S437.5,529.26,437.58,529.3Z"/><path class="cls-3" d="M419.19,501.79c-.3,0-.94-.52-.88-.77a.32.32,0,0,1,.28-.14C419,501,419.18,501.24,419.19,501.79Z"/><path class="cls-3" d="M412.1,517.29c0-.29,0-.61,0-.92,0-.1.15-.18.23-.26.06.08.15.16.16.26a3.83,3.83,0,0,1,0,.68C412.53,517.29,412.42,517.38,412.1,517.29Z"/><path class="cls-3" d="M452.86,522c-.05.51.25,1.09-.37,1.45v-1.18C452.49,522.07,452.64,522,452.86,522Z"/><path class="cls-3" d="M425.25,500.9a1.44,1.44,0,0,1-.48,1.56A2.8,2.8,0,0,1,425.25,500.9Z"/><path class="cls-3" d="M451.24,505.08c.38.21.18.5.15.71s-.39.39-.85.34c.07-.13.11-.29.19-.31C451.1,505.73,451.18,505.44,451.24,505.08Z"/><path class="cls-3" d="M449.74,502.75c.17.18.35.28.35.39a.32.32,0,0,1-.37.37c-.1,0-.18-.26-.22-.42S449.61,502.93,449.74,502.75Z"/><path class="cls-3" d="M413.35,513.48a.89.89,0,0,1-1.08-.12.19.19,0,0,1,0-.15s.12-.09.16-.07C412.72,513.23,413,513.34,413.35,513.48Z"/><path class="cls-3" d="M451.38,506.15s.1.05.12.1.05.22,0,.27a2.6,2.6,0,0,1-.43.38s-.1,0-.12-.08A.59.59,0,0,1,451.38,506.15Z"/><path class="cls-3" d="M454.6,498.32a.68.68,0,0,1,.86-.42.18.18,0,0,1,.09.15.23.23,0,0,1-.14.16C455.15,498.26,454.88,498.28,454.6,498.32Z"/><path class="cls-3" d="M450,517.74h.5c0,.21,0,.41-.1.59s-.11.12-.16.18-.14-.11-.15-.18A5.21,5.21,0,0,1,450,517.74Z"/><path class="cls-3" d="M437.41,529.74l.73-.47a.22.22,0,0,1,.18,0s.06.1.05.14A.93.93,0,0,1,437.41,529.74Z"/><path class="cls-3" d="M423.19,524.4c.44,0,.69.29.78.8C423.55,525.07,423.46,524.69,423.19,524.4Z"/><path class="cls-3" d="M433.34,498.34c-.41,0-.41,0-.53-.51C433.21,497.82,433.4,498,433.34,498.34Z"/><path class="cls-3" d="M409.81,523a.34.34,0,0,1,0,.1l-.15.29c-.05-.09-.09-.18-.13-.27a.34.34,0,0,1,0-.1l.15-.41.21.35Z"/><path class="cls-3" d="M439.75,495.61c-.07.21-.13.4-.2.58s-.1,0-.15,0a.16.16,0,0,1-.1-.11C439.23,495.88,439.4,495.66,439.75,495.61Z"/><path class="cls-3" d="M412.79,516c-.12-.15-.24-.23-.22-.29a.93.93,0,0,1,.19-.31,1.19,1.19,0,0,1,.21.29C413,515.72,412.88,515.81,412.79,516Z"/><path class="cls-3" d="M425.1,525.13a5,5,0,0,1,.37.43.21.21,0,0,1,0,.17s-.15,0-.18,0-.19-.31-.28-.47Z"/><path class="cls-3" d="M415.91,525.75l-.06-.42.53.16v.12Z"/><path class="cls-3" d="M448.36,500.38a1.34,1.34,0,0,1-.25.23s-.14-.11-.21-.17l.36-.19Z"/><path class="cls-3" d="M452.83,499.55l-.3.45c-.06-.11-.15-.2-.13-.23a1.64,1.64,0,0,1,.26-.33s.11.08.16.12Z"/></g></g><g id="cloud_left" data-name="cloud left"><path class="cls-3" d="M145,231.64a62.94,62.94,0,0,1-6.83-3.7c-6.74-4-15-8.91-23.13-4.87a21.48,21.48,0,0,0-14.39-13.94,22.63,22.63,0,0,0-19.85,4,7.4,7.4,0,0,0-4.3-3,7.2,7.2,0,0,0-3.36.08,21.3,21.3,0,0,0-1.75-11.68,22.07,22.07,0,0,0-22.06-12.15,22.14,22.14,0,0,0-17.94,15,9.23,9.23,0,0,0-6.51,1.7A9.15,9.15,0,0,0,21,209C11,210.51,2.47,218.14.44,227.7c-2.26,10.71,4.4,22.16,14.54,25a17.28,17.28,0,0,0,4.66.62,20.23,20.23,0,0,0,11.14-3.45l.19-.16a15.27,15.27,0,0,0,15.45,7.42,17,17,0,0,0,12.49-7.92,11.27,11.27,0,0,0,3.89,4,10.75,10.75,0,0,0,10.06.46,11,11,0,0,0,4.5-3.78,19.28,19.28,0,0,0,14.89,7.47H93c5,0,9.81-1.5,14.44-2.95,2.43-.76,4.73-1.48,7.07-2,5.8-1.29,11.32-.47,17.16.4,4.82.71,9.79,1.46,15,.92,12.79-1.32,23.75-8.88,30.07-20.73l2.42-4.54-4.86,1.68C163.06,234,155.46,236.09,145,231.64Z"/><path class="cls-4" d="M145,231.64a62.94,62.94,0,0,1-6.83-3.7c-6.74-4-15-8.91-23.13-4.87a21.48,21.48,0,0,0-14.39-13.94,22.63,22.63,0,0,0-19.85,4,7.4,7.4,0,0,0-4.3-3,7.2,7.2,0,0,0-3.36.08,21.3,21.3,0,0,0-1.75-11.68,22.07,22.07,0,0,0-22.06-12.15,22.14,22.14,0,0,0-17.94,15,9.23,9.23,0,0,0-6.51,1.7A9.15,9.15,0,0,0,21,209C11,210.51,2.47,218.14.44,227.7c-2.26,10.71,4.4,22.16,14.54,25a17.28,17.28,0,0,0,4.66.62,20.23,20.23,0,0,0,11.14-3.45l.19-.16a15.27,15.27,0,0,0,15.45,7.42,17,17,0,0,0,12.49-7.92,11.27,11.27,0,0,0,3.89,4,10.75,10.75,0,0,0,10.06.46,11,11,0,0,0,4.5-3.78,19.28,19.28,0,0,0,14.89,7.47H93c5,0,9.81-1.5,14.44-2.95,2.43-.76,4.73-1.48,7.07-2,5.8-1.29,11.32-.47,17.16.4,4.82.71,9.79,1.46,15,.92,12.79-1.32,23.75-8.88,30.07-20.73l2.42-4.54-4.86,1.68C163.06,234,155.46,236.09,145,231.64Zm1.23,18.07c-4.66.48-9.18-.19-14-.9-5.94-.88-12.09-1.79-18.62-.35-2.51.55-5,1.33-7.4,2.09-4.76,1.48-9.24,2.91-13.9,2.74a15,15,0,0,1-13.54-8.7l-2.75-5.77L75,245.12a6.91,6.91,0,0,1-10.17,4.6,8.89,8.89,0,0,1-3.85-6.6l-1.64-13L57,243a12.68,12.68,0,0,1-11.09,10.13,11.38,11.38,0,0,1-11.83-6.09,17.13,17.13,0,0,0,4.78-9.75,16.6,16.6,0,0,0-7.18-15.73c-5.36-3.42-12.79-2.86-17.27,1.33-4.78,4.47-5.37,12.36-1.27,17.21a2,2,0,1,0,3.08-2.6c-2.66-3.15-2.21-8.72,1-11.67A10.51,10.51,0,0,1,29.53,225a12.51,12.51,0,0,1,5.34,11.86,13.88,13.88,0,0,1-6.34,9.7,15.33,15.33,0,0,1-12.46,2.29c-8-2.25-13.49-11.73-11.68-20.28,1.75-8.27,9.8-15,18.72-15.75l2.05-.16-.2-2a4.88,4.88,0,0,1,2.27-4.24,4.86,4.86,0,0,1,4.76-.68l2.34,1.13.51-2.55a17.92,17.92,0,0,1,15-13.89,17.48,17.48,0,0,1,14.21,30,2,2,0,0,0,2.79,2.92,20.85,20.85,0,0,0,5-7.69,3.2,3.2,0,0,0,.27-.25,3.29,3.29,0,0,1,5.94,1.44l.56,4.05,2.87-2.9A18.88,18.88,0,0,1,99.58,213a17.51,17.51,0,0,1,12.26,13.78,16.29,16.29,0,0,1-8,16.28,13.84,13.84,0,0,1-11.87.67,11.19,11.19,0,0,1-6.66-9.19A9.38,9.38,0,0,1,91,225.37a8,8,0,0,1,9.62,3.5,2,2,0,0,0,3.59-1.84,12,12,0,0,0-14.63-5.44,13.4,13.4,0,0,0-8.3,13.21,15.33,15.33,0,0,0,9.06,12.63,16.71,16.71,0,0,0,6.74,1.4,18.4,18.4,0,0,0,8.67-2.2,20.42,20.42,0,0,0,10.18-19.36c6.45-4,13.46.1,20.25,4.14a66.31,66.31,0,0,0,7.31,3.94c9.89,4.22,17.58,3.24,26.84.37A33.87,33.87,0,0,1,146.27,249.71Z"/></g><g id="cloud_right" data-name="cloud right"><path class="cls-3" d="M671,291.62c1.65-.19,3.3-.43,5-.66,6.53-.94,12.69-1.81,18.47.05a40.7,40.7,0,0,1,7.45,3.6,43.24,43.24,0,0,0,8.52,4,20.92,20.92,0,0,0,6.15.91A23.74,23.74,0,0,0,735,290.41a17.35,17.35,0,0,0,3.63,6.48,21.06,21.06,0,0,0,15.51,6.49,22.81,22.81,0,0,0,3.94-.35c6.5-1.16,11.95-5.23,14.43-10.44a16.66,16.66,0,0,0,25.69-1.38,31.31,31.31,0,0,0,16.86,5A28.91,28.91,0,0,0,832,291a55.79,55.79,0,0,0,5.36-4.6,48.5,48.5,0,0,1,5.67-4.76c3.17-2.11,8.35-2.62,13.85-1.35l5,1.14-2.88-4.2c-7.36-10.72-20.56-15.24-34.42-11.82l-.57.14c-4.05,1-7.87,2-11.65,1.11-5.71-1.27-10.77-4.65-15.64-8.08a23.88,23.88,0,0,0,1.42-21.66c-4.83-11.16-18.32-17.77-30.09-14.68-10,2.61-17.71,11.93-19,22.12a11.4,11.4,0,0,0-5.08-1.71,10.94,10.94,0,0,0-8,2.27A18.18,18.18,0,0,0,724.6,239a17.45,17.45,0,0,0-14.46,4.4,15.32,15.32,0,0,0-2.63,3.53c-6-3.44-13.53-2.17-18.7.85-5.73,3.37-9.86,8.81-13.47,14.2l-1.42,2.14c-2.89,4.38-5.88,8.9-9.75,12.33-4.85,4.29-10.64,6.17-15.51,5l-5.59-1.35,3.57,4.5C652.51,292,663.11,292.52,671,291.62Z"/><path class="cls-4" d="M671,291.61c1.65-.19,3.3-.42,5-.66,6.53-.93,12.69-1.81,18.47.06a40.06,40.06,0,0,1,7.45,3.6,43.24,43.24,0,0,0,8.52,4,20.92,20.92,0,0,0,6.15.91A23.77,23.77,0,0,0,735,290.41a17.35,17.35,0,0,0,3.63,6.48,21.06,21.06,0,0,0,15.51,6.49,22.81,22.81,0,0,0,3.94-.35c6.5-1.17,11.95-5.23,14.43-10.44a16.67,16.67,0,0,0,25.69-1.39,31.24,31.24,0,0,0,16.86,5A28.91,28.91,0,0,0,832,291a57.25,57.25,0,0,0,5.36-4.6,47.54,47.54,0,0,1,5.67-4.76c3.17-2.12,8.35-2.62,13.85-1.35l5,1.14-2.88-4.2c-7.36-10.72-20.56-15.25-34.42-11.82l-.57.14c-4.05,1-7.87,2-11.65,1.11-5.71-1.27-10.77-4.65-15.64-8.08a23.88,23.88,0,0,0,1.42-21.66c-4.83-11.17-18.32-17.77-30.09-14.68-10,2.6-17.71,11.93-19,22.11a11.66,11.66,0,0,0-5.08-1.71,10.94,10.94,0,0,0-8,2.28A18.18,18.18,0,0,0,724.6,239a17.45,17.45,0,0,0-14.46,4.4,15.48,15.48,0,0,0-2.63,3.52c-6-3.43-13.53-2.17-18.7.86-5.73,3.36-9.86,8.81-13.47,14.2l-1.42,2.14c-2.89,4.37-5.88,8.9-9.75,12.33-4.85,4.29-10.64,6.17-15.51,5l-5.59-1.36,3.57,4.51C652.51,292,663.11,292.52,671,291.61Zm41.93-45.34A14.39,14.39,0,0,1,734.06,249l1.65,2.72,1.72-2.68c1.38-2.17,4.05-2.71,6.12-2.52s4.58,1.27,5.51,3.66l5.31,13.62-1.49-14.54c-1-10.23,6.19-20.67,16.14-23.26s21.37,3,25.45,12.42c2.82,6.55,1.94,14.4-2.2,19.55-4.3,5.36-12.26,7.42-18.13,4.69a13.17,13.17,0,0,1-6.64-7.52,11.65,11.65,0,0,1,.19-9,11.06,11.06,0,0,1,7.67-5.78,9.87,9.87,0,0,1,8.5,1.72,2,2,0,0,0,2.53-3.06,13.79,13.79,0,0,0-11.9-2.52,15,15,0,0,0-10.38,7.95,15.65,15.65,0,0,0-.34,12,17.2,17.2,0,0,0,8.69,9.76c7.1,3.3,16.15,1.27,21.78-4.62,5,3.56,10.71,7.38,17.23,8.83,4.69,1,9.15-.07,13.47-1.14l.56-.13c10.6-2.62,20.38-.22,27,6.42-3.62-.2-8.07.23-11.71,2.67a48.59,48.59,0,0,0-6.17,5.16,53,53,0,0,1-5,4.28c-8.25,6-20.61,5.89-29.46.07a15.6,15.6,0,0,0,1-2.93,17.15,17.15,0,0,0-7.09-17.75,2,2,0,0,0-2.2,3.3,12.86,12.86,0,1,1-18.39,16.91l-2.76-5-.93,5.67c-1,6-7,10.17-12.47,11.15-5.94,1.06-12.15-.86-15.82-4.91a13.62,13.62,0,0,1-3.46-9.47,2.06,2.06,0,0,0,0-.55,11.37,11.37,0,0,1,1.73-5.41,10.78,10.78,0,0,1,6.94-4.5,9.19,9.19,0,0,1,7.12,1.33,7.89,7.89,0,0,1,3.4,6.83,6,6,0,0,1-4.52,5.31,4.78,4.78,0,0,1-5.37-3.32,2,2,0,0,0-3.87.83,8.73,8.73,0,0,0,10,6.38,9.9,9.9,0,0,0,7.72-8.86,11.84,11.84,0,0,0-5.06-10.41,13.18,13.18,0,0,0-10.16-2,14.6,14.6,0,0,0-9.52,6.24A15.26,15.26,0,0,0,734.2,284c-3.43,8.45-13.93,13.52-22.67,10.85a39.32,39.32,0,0,1-7.72-3.68,44.45,44.45,0,0,0-8.19-3.92,25.22,25.22,0,0,0-5-1.07,10.24,10.24,0,0,1,18.13-7.24l4.11,5-.6-6.44A7.41,7.41,0,0,1,726.48,274a2,2,0,0,0,3.67-1.51,11.74,11.74,0,0,0-13.25-6.71,10.25,10.25,0,0,0-2.76,1.14,13.78,13.78,0,0,1-5-9.55A13.61,13.61,0,0,1,712.9,246.27Zm-1.75,23.24a12.24,12.24,0,0,0-2.39,4.17A14.15,14.15,0,0,0,686.66,286,82,82,0,0,0,675.37,287c-1.62.23-3.24.46-4.85.64-5.17.6-11.67.55-16.58-2.07a24.44,24.44,0,0,0,12.86-6.17c4.25-3.77,7.39-8.52,10.43-13.1l1.41-2.13c3.86-5.77,7.41-10.19,12.17-13,4.27-2.51,10.53-3.58,15.16-.6a18.82,18.82,0,0,0-.74,7.09"/></g></g></g></g></svg>