<svg xmlns="http://www.w3.org/2000/svg" viewBox="0 0 49.42 49.42"><defs><style>.cls-1{fill:#fbf2b6;}.cls-2{fill:#fec248;}.cls-3{fill:#feda46;}.cls-4{fill:#f69161;}.cls-5{fill:#f6cd62;}.cls-6{fill:#fee35d;}.cls-7{fill:#e24429;}</style></defs><g id="Layer_2" data-name="Layer 2"><g id="Layer_1-2" data-name="Layer 1"><g id="jupiter"><path class="cls-1" d="M0,23.25H49.37a24.49,24.49,0,0,0-2.28-9H2.32a24.68,24.68,0,0,0-2.28,9Z"/><path class="cls-2" d="M5,39.62h39.4a24.69,24.69,0,0,0,4.83-11.93H.18A24.59,24.59,0,0,0,5,39.62Z"/><path class="cls-3" d="M24.71,49.42A24.59,24.59,0,0,0,40.63,43.6H8.79A24.59,24.59,0,0,0,24.71,49.42Z"/><path class="cls-4" d="M5,39.62a24.55,24.55,0,0,0,3.78,4H40.63a25,25,0,0,0,3.78-4Z"/><path class="cls-5" d="M44.41,39.62c.45-.6.89-1.23,1.29-1.88A23.5,23.5,0,0,1,42,39.62Z"/><path class="cls-2" d="M1.67,15.76H47.74a24.63,24.63,0,0,0-7.11-9.94H8.79A24.66,24.66,0,0,0,1.67,15.76Z"/><path class="cls-6" d="M40.63,5.82a24.68,24.68,0,0,0-31.84,0Z"/><path class="cls-4" d="M49.24,21.73H43.16a5.07,5.07,0,0,1-2.89-.93,6,6,0,0,0-6.8,0,5.07,5.07,0,0,1-2.89.93H.18a24.33,24.33,0,0,0-.18,3,24.72,24.72,0,0,0,.5,5H30.58a5.06,5.06,0,0,1,2.89.92,5.94,5.94,0,0,0,6.8,0,5.06,5.06,0,0,1,2.89-.92h5.76a25.46,25.46,0,0,0,.5-5A26.5,26.5,0,0,0,49.24,21.73Z"/><ellipse class="cls-7" cx="36.84" cy="25.64" rx="5.18" ry="2.59"/></g></g></g></svg>