<svg xmlns="http://www.w3.org/2000/svg" viewBox="0 0 274.17 423.36"><defs><style>.cls-1{fill:#fff;}.cls-2{fill:none;stroke:#fff;stroke-miterlimit:10;}</style></defs><g id="Layer_2" data-name="Layer 2"><g id="Layer_1-2" data-name="Layer 1"><g id="Orion"><circle class="cls-1" cx="115.04" cy="148.59" r="4"/><circle class="cls-1" cx="247.71" cy="139.24" r="4"/><circle class="cls-1" cx="269.71" cy="153.43" r="4"/><circle class="cls-1" cx="267.19" cy="209.66" r="4"/><circle class="cls-1" cx="261.71" cy="246.59" r="4"/><circle class="cls-1" cx="245.1" cy="258.9" r="4"/><circle class="cls-1" cx="23.95" cy="141.62" r="4"/><circle class="cls-1" cx="4" cy="81.77" r="4"/><circle class="cls-1" cx="25.51" cy="73.25" r="4"/><circle class="cls-1" cx="56.61" cy="5.96" r="4"/><circle class="cls-1" cx="18.52" cy="4" r="4"/><circle class="cls-1" cx="181.84" cy="399.32" r="6"/><circle class="cls-1" cx="66.6" cy="417.36" r="6"/><circle class="cls-1" cx="43.89" cy="177.92" r="6"/><circle class="cls-1" cx="146.27" cy="193.71" r="6"/><circle class="cls-1" cx="131.13" cy="292.94" r="6"/><circle class="cls-1" cx="111.04" cy="301.68" r="6"/><circle class="cls-1" cx="90.95" cy="310.07" r="6"/><circle class="cls-1" cx="268.17" cy="191.25" r="6"/><polygon class="cls-2" points="181.84 399.32 66.6 417.36 90.95 310.07 131.13 292.94 181.84 399.32"/><polyline class="cls-2" points="90.25 309.05 43.89 177.92 23.95 141.62 4 81.77 18.52 4"/><polyline class="cls-2" points="2.63 81.77 25.51 73.25 56.61 5.96"/><polyline class="cls-2" points="131.13 292.94 146.27 193.71 115.04 148.59 43.89 177.92"/><polyline class="cls-2" points="148.17 193.71 268.17 191.25 267.19 210.24 261.71 246.59 245.1 258.9"/><polyline class="cls-2" points="268.17 190.13 269.71 153.43 247.71 139.24"/></g></g></g></svg>