<svg xmlns="http://www.w3.org/2000/svg" viewBox="0 0 547.44 396.65"><defs><style>.cls-1{fill:none;stroke:#fff;stroke-miterlimit:10;}.cls-2{fill:#fff;}</style></defs><g id="Layer_2" data-name="Layer 2"><g id="Layer_1-2" data-name="Layer 1"><g id="scorpio"><polyline class="cls-1" points="66.89 250.12 4 304.53 32.32 373.48 125.55 388.65 197.5 392.65 233.31 307.36 258.16 226.59 351.27 126.14 389.73 99.25 434.27 93.69 541.45 63.75"/><polyline class="cls-1" points="541.45 6 434.27 93.69 523.8 140.59"/><circle class="cls-2" cx="541.44" cy="6" r="6"/><circle class="cls-2" cx="541.44" cy="63.75" r="6"/><circle class="cls-2" cx="523.8" cy="140.59" r="6"/><circle class="cls-2" cx="389.73" cy="99.25" r="6"/><circle class="cls-2" cx="258.16" cy="226.59" r="6"/><circle class="cls-2" cx="66.89" cy="250.12" r="6"/><circle class="cls-2" cx="32.32" cy="373.48" r="6"/><circle class="cls-2" cx="233.31" cy="307.36" r="6"/><circle class="cls-2" cx="434.27" cy="93.69" r="4"/><circle class="cls-2" cx="351.27" cy="126.14" r="4"/><circle class="cls-2" cx="197.5" cy="392.65" r="4"/><circle class="cls-2" cx="125.55" cy="388.65" r="4"/><circle class="cls-2" cx="4" cy="304.53" r="4"/></g></g></g></svg>