<svg width="200" height="200" viewBox="0 0 200 200" fill="none" xmlns="http://www.w3.org/2000/svg">
<path d="M144.369 190H40.3416C32.4344 190 26 183.545 26 175.613V23.898C26 16.2333 32.2135 10 39.8537 10H126.879C143.218 10 156.51 23.3255 156.51 39.7076V57.8258C156.51 61.9075 153.215 65.2134 149.146 65.2134C145.077 65.2134 141.782 61.9075 141.782 57.8258V39.7076C141.782 31.4703 135.099 24.7753 126.879 24.7753H40.7282V175.225H144.369C152.58 175.225 159.272 168.52 159.272 160.292V124.093C159.272 114.877 151.797 107.388 142.62 107.388H127.744C123.676 107.388 120.38 104.082 120.38 100C120.38 95.9183 123.676 92.6124 127.744 92.6124H142.62C159.925 92.6124 174 106.732 174 124.093V160.292C174 176.675 160.708 190 144.369 190Z" fill="white"/>
</svg>
