<svg width="148" height="36" viewBox="0 0 148 36" fill="none" xmlns="http://www.w3.org/2000/svg">
<rect width="148" height="36" rx="8" fill="white"/>
<path d="M17.748 23L14.57 12.92H16.306L18.966 21.362L21.661 12.92H23.397L20.219 23H17.748ZM24.5888 23V12.92H26.2758V23H24.5888ZM28.3726 23V12.92H34.8826V14.502H30.0596V16.987H34.0426V18.569H30.0596V21.418H34.8826V23H28.3726ZM38.69 23L35.743 12.92H37.514L39.523 20.2L41.525 12.934L43.296 12.92L45.305 20.2L47.307 12.92H49.078L46.138 23H44.472L42.407 15.832L40.356 23H38.69ZM53.023 23V12.92H57.188C57.286 12.92 57.412 12.9247 57.566 12.934C57.72 12.9387 57.8623 12.9527 57.993 12.976C58.5763 13.0647 59.057 13.2583 59.435 13.557C59.8176 13.8557 60.1 14.2337 60.282 14.691C60.4686 15.1437 60.562 15.6477 60.562 16.203C60.562 17.0243 60.3543 17.7313 59.939 18.324C59.5236 18.912 58.8866 19.276 58.028 19.416L57.307 19.479H54.71V23H53.023ZM58.812 23L56.824 18.898L58.539 18.52L60.723 23H58.812ZM54.71 17.904H57.118C57.2113 17.904 57.3163 17.8993 57.433 17.89C57.5496 17.8807 57.657 17.862 57.755 17.834C58.035 17.764 58.2543 17.6403 58.413 17.463C58.5763 17.2857 58.6906 17.085 58.756 16.861C58.826 16.637 58.861 16.4177 58.861 16.203C58.861 15.9883 58.826 15.769 58.756 15.545C58.6906 15.3163 58.5763 15.1133 58.413 14.936C58.2543 14.7587 58.035 14.635 57.755 14.565C57.657 14.537 57.5496 14.5207 57.433 14.516C57.3163 14.5067 57.2113 14.502 57.118 14.502H54.71V17.904ZM62.2652 23V12.92H68.7752V14.502H63.9522V16.987H67.9352V18.569H63.9522V21.418H68.7752V23H62.2652ZM74.0899 23.21C73.3526 23.21 72.6876 23.0817 72.0949 22.825C71.5069 22.5683 71.0216 22.202 70.6389 21.726C70.2609 21.2453 70.0206 20.676 69.9179 20.018L71.6679 19.752C71.8172 20.3493 72.1229 20.8113 72.5849 21.138C73.0516 21.4647 73.5882 21.628 74.1949 21.628C74.5542 21.628 74.8926 21.572 75.2099 21.46C75.5272 21.348 75.7839 21.1847 75.9799 20.97C76.1806 20.7553 76.2809 20.4917 76.2809 20.179C76.2809 20.039 76.2576 19.9107 76.2109 19.794C76.1642 19.6727 76.0942 19.5653 76.0009 19.472C75.9122 19.3787 75.7956 19.2947 75.6509 19.22C75.5109 19.1407 75.3476 19.073 75.1609 19.017L72.5569 18.247C72.3329 18.1817 72.0902 18.0953 71.8289 17.988C71.5722 17.876 71.3272 17.7243 71.0939 17.533C70.8652 17.337 70.6762 17.0897 70.5269 16.791C70.3822 16.4877 70.3099 16.1143 70.3099 15.671C70.3099 15.0223 70.4732 14.4787 70.7999 14.04C71.1312 13.5967 71.5746 13.2653 72.1299 13.046C72.6899 12.8267 73.3106 12.7193 73.9919 12.724C74.6826 12.7287 75.2986 12.8477 75.8399 13.081C76.3812 13.3097 76.8339 13.6433 77.1979 14.082C77.5619 14.5207 77.8186 15.0503 77.9679 15.671L76.1549 15.986C76.0802 15.6313 75.9356 15.3303 75.7209 15.083C75.5109 14.831 75.2519 14.6397 74.9439 14.509C74.6406 14.3783 74.3162 14.3083 73.9709 14.299C73.6349 14.2943 73.3222 14.3457 73.0329 14.453C72.7482 14.5557 72.5172 14.705 72.3399 14.901C72.1672 15.097 72.0809 15.3257 72.0809 15.587C72.0809 15.8343 72.1556 16.0373 72.3049 16.196C72.4542 16.35 72.6386 16.4737 72.8579 16.567C73.0819 16.6557 73.3082 16.7303 73.5369 16.791L75.3429 17.295C75.5902 17.3603 75.8679 17.449 76.1759 17.561C76.4839 17.673 76.7802 17.8293 77.0649 18.03C77.3496 18.2307 77.5829 18.4943 77.7649 18.821C77.9516 19.1477 78.0449 19.563 78.0449 20.067C78.0449 20.5897 77.9352 21.0493 77.7159 21.446C77.5012 21.838 77.2096 22.1647 76.8409 22.426C76.4722 22.6873 76.0499 22.8833 75.5739 23.014C75.1026 23.1447 74.6079 23.21 74.0899 23.21ZM83.6201 23.21C82.8174 23.21 82.1104 23.0467 81.4991 22.72C80.8924 22.3933 80.4164 21.9337 80.0711 21.341C79.7304 20.7483 79.5601 20.053 79.5601 19.255V12.934L81.2681 12.92V19.213C81.2681 19.591 81.3311 19.9293 81.4571 20.228C81.5877 20.5267 81.7627 20.781 81.9821 20.991C82.2014 21.1963 82.4534 21.3527 82.7381 21.46C83.0227 21.5673 83.3167 21.621 83.6201 21.621C83.9327 21.621 84.2291 21.5673 84.5091 21.46C84.7937 21.348 85.0457 21.1893 85.2651 20.984C85.4844 20.774 85.6571 20.5197 85.7831 20.221C85.9091 19.9223 85.9721 19.5863 85.9721 19.213V12.92H87.6801V19.255C87.6801 20.053 87.5074 20.7483 87.1621 21.341C86.8214 21.9337 86.3454 22.3933 85.7341 22.72C85.1274 23.0467 84.4227 23.21 83.6201 23.21ZM89.6363 23V12.92H91.1553L94.6413 20.06L98.1273 12.92H99.6463V23H98.0713V16.539L94.9773 23H94.3053L91.2183 16.539V23H89.6363ZM101.613 23V12.92H108.123V14.502H103.3V16.987H107.283V18.569H103.3V21.418H108.123V23H101.613Z" fill="black"/>
<path d="M119.332 22.1673L127.665 13.834" stroke="black" stroke-width="1.66667" stroke-linecap="round" stroke-linejoin="round"/>
<path d="M119.332 13.834H127.665V22.1673" stroke="black" stroke-width="1.66667" stroke-linecap="round" stroke-linejoin="round"/>
</svg>
