<svg width="152" height="44" viewBox="0 0 152 44" fill="none" xmlns="http://www.w3.org/2000/svg">
<g filter="url(#filter0_dd_1821_30698)">
<rect x="4" y="3" width="144" height="36" rx="8" fill="white"/>
<path d="M19.748 26L16.57 15.92H18.306L20.966 24.362L23.661 15.92H25.397L22.219 26H19.748ZM26.5888 26V15.92H28.2758V26H26.5888ZM30.3726 26V15.92H36.8826V17.502H32.0596V19.987H36.0426V21.569H32.0596V24.418H36.8826V26H30.3726ZM40.69 26L37.743 15.92H39.514L41.523 23.2L43.525 15.934L45.296 15.92L47.305 23.2L49.307 15.92H51.078L48.138 26H46.472L44.407 18.832L42.356 26H40.69ZM55.023 26V15.92H59.188C59.286 15.92 59.412 15.9247 59.566 15.934C59.72 15.9387 59.8623 15.9527 59.993 15.976C60.5763 16.0647 61.057 16.2583 61.435 16.557C61.8176 16.8557 62.1 17.2337 62.282 17.691C62.4686 18.1437 62.562 18.6477 62.562 19.203C62.562 20.0243 62.3543 20.7313 61.939 21.324C61.5236 21.912 60.8866 22.276 60.028 22.416L59.307 22.479H56.71V26H55.023ZM60.812 26L58.824 21.898L60.539 21.52L62.723 26H60.812ZM56.71 20.904H59.118C59.2113 20.904 59.3163 20.8993 59.433 20.89C59.5496 20.8807 59.657 20.862 59.755 20.834C60.035 20.764 60.2543 20.6403 60.413 20.463C60.5763 20.2857 60.6906 20.085 60.756 19.861C60.826 19.637 60.861 19.4177 60.861 19.203C60.861 18.9883 60.826 18.769 60.756 18.545C60.6906 18.3163 60.5763 18.1133 60.413 17.936C60.2543 17.7587 60.035 17.635 59.755 17.565C59.657 17.537 59.5496 17.5207 59.433 17.516C59.3163 17.5067 59.2113 17.502 59.118 17.502H56.71V20.904ZM64.2652 26V15.92H70.7752V17.502H65.9522V19.987H69.9352V21.569H65.9522V24.418H70.7752V26H64.2652ZM76.0899 26.21C75.3526 26.21 74.6876 26.0817 74.0949 25.825C73.5069 25.5683 73.0216 25.202 72.6389 24.726C72.2609 24.2453 72.0206 23.676 71.9179 23.018L73.6679 22.752C73.8172 23.3493 74.1229 23.8113 74.5849 24.138C75.0516 24.4647 75.5882 24.628 76.1949 24.628C76.5542 24.628 76.8926 24.572 77.2099 24.46C77.5272 24.348 77.7839 24.1847 77.9799 23.97C78.1806 23.7553 78.2809 23.4917 78.2809 23.179C78.2809 23.039 78.2576 22.9107 78.2109 22.794C78.1642 22.6727 78.0942 22.5653 78.0009 22.472C77.9122 22.3787 77.7956 22.2947 77.6509 22.22C77.5109 22.1407 77.3476 22.073 77.1609 22.017L74.5569 21.247C74.3329 21.1817 74.0902 21.0953 73.8289 20.988C73.5722 20.876 73.3272 20.7243 73.0939 20.533C72.8652 20.337 72.6762 20.0897 72.5269 19.791C72.3822 19.4877 72.3099 19.1143 72.3099 18.671C72.3099 18.0223 72.4732 17.4787 72.7999 17.04C73.1312 16.5967 73.5746 16.2653 74.1299 16.046C74.6899 15.8267 75.3106 15.7193 75.9919 15.724C76.6826 15.7287 77.2986 15.8477 77.8399 16.081C78.3812 16.3097 78.8339 16.6433 79.1979 17.082C79.5619 17.5207 79.8186 18.0503 79.9679 18.671L78.1549 18.986C78.0802 18.6313 77.9356 18.3303 77.7209 18.083C77.5109 17.831 77.2519 17.6397 76.9439 17.509C76.6406 17.3783 76.3162 17.3083 75.9709 17.299C75.6349 17.2943 75.3222 17.3457 75.0329 17.453C74.7482 17.5557 74.5172 17.705 74.3399 17.901C74.1672 18.097 74.0809 18.3257 74.0809 18.587C74.0809 18.8343 74.1556 19.0373 74.3049 19.196C74.4542 19.35 74.6386 19.4737 74.8579 19.567C75.0819 19.6557 75.3082 19.7303 75.5369 19.791L77.3429 20.295C77.5902 20.3603 77.8679 20.449 78.1759 20.561C78.4839 20.673 78.7802 20.8293 79.0649 21.03C79.3496 21.2307 79.5829 21.4943 79.7649 21.821C79.9516 22.1477 80.0449 22.563 80.0449 23.067C80.0449 23.5897 79.9352 24.0493 79.7159 24.446C79.5012 24.838 79.2096 25.1647 78.8409 25.426C78.4722 25.6873 78.0499 25.8833 77.5739 26.014C77.1026 26.1447 76.6079 26.21 76.0899 26.21ZM85.6201 26.21C84.8174 26.21 84.1104 26.0467 83.4991 25.72C82.8924 25.3933 82.4164 24.9337 82.0711 24.341C81.7304 23.7483 81.5601 23.053 81.5601 22.255V15.934L83.2681 15.92V22.213C83.2681 22.591 83.3311 22.9293 83.4571 23.228C83.5877 23.5267 83.7627 23.781 83.9821 23.991C84.2014 24.1963 84.4534 24.3527 84.7381 24.46C85.0227 24.5673 85.3167 24.621 85.6201 24.621C85.9327 24.621 86.2291 24.5673 86.5091 24.46C86.7937 24.348 87.0457 24.1893 87.2651 23.984C87.4844 23.774 87.6571 23.5197 87.7831 23.221C87.9091 22.9223 87.9721 22.5863 87.9721 22.213V15.92H89.6801V22.255C89.6801 23.053 89.5074 23.7483 89.1621 24.341C88.8214 24.9337 88.3454 25.3933 87.7341 25.72C87.1274 26.0467 86.4227 26.21 85.6201 26.21ZM91.6363 26V15.92H93.1553L96.6413 23.06L100.127 15.92H101.646V26H100.071V19.539L96.9773 26H96.3053L93.2183 19.539V26H91.6363ZM103.613 26V15.92H110.123V17.502H105.3V19.987H109.283V21.569H105.3V24.418H110.123V26H103.613Z" fill="black"/>
<path d="M121.332 25.1673L129.665 16.834" stroke="black" stroke-width="1.66667" stroke-linecap="round" stroke-linejoin="round"/>
<path d="M121.332 16.834H129.665V25.1673" stroke="black" stroke-width="1.66667" stroke-linecap="round" stroke-linejoin="round"/>
</g>
<defs>
<filter id="filter0_dd_1821_30698" x="0" y="0" width="152" height="44" filterUnits="userSpaceOnUse" color-interpolation-filters="sRGB">
<feFlood flood-opacity="0" result="BackgroundImageFix"/>
<feColorMatrix in="SourceAlpha" type="matrix" values="0 0 0 0 0 0 0 0 0 0 0 0 0 0 0 0 0 0 127 0" result="hardAlpha"/>
<feMorphology radius="1" operator="dilate" in="SourceAlpha" result="effect1_dropShadow_1821_30698"/>
<feOffset dy="1"/>
<feGaussianBlur stdDeviation="1.5"/>
<feColorMatrix type="matrix" values="0 0 0 0 0 0 0 0 0 0 0 0 0 0 0 0 0 0 0.15 0"/>
<feBlend mode="normal" in2="BackgroundImageFix" result="effect1_dropShadow_1821_30698"/>
<feColorMatrix in="SourceAlpha" type="matrix" values="0 0 0 0 0 0 0 0 0 0 0 0 0 0 0 0 0 0 127 0" result="hardAlpha"/>
<feOffset dy="1"/>
<feGaussianBlur stdDeviation="1"/>
<feColorMatrix type="matrix" values="0 0 0 0 0 0 0 0 0 0 0 0 0 0 0 0 0 0 0.3 0"/>
<feBlend mode="normal" in2="effect1_dropShadow_1821_30698" result="effect2_dropShadow_1821_30698"/>
<feBlend mode="normal" in="SourceGraphic" in2="effect2_dropShadow_1821_30698" result="shape"/>
</filter>
</defs>
</svg>
