<svg xmlns="http://www.w3.org/2000/svg" xmlns:xlink="http://www.w3.org/1999/xlink" viewBox="0 0 51.11 33.57"><defs><style>.cls-1{fill:url(#linear-gradient);}.cls-2{fill:#333;}.cls-3{fill:#010101;}</style><linearGradient id="linear-gradient" y1="16.78" x2="51.11" y2="16.78" gradientUnits="userSpaceOnUse"><stop offset="0" stop-color="#4f5761"/><stop offset="1" stop-color="#65778e"/></linearGradient></defs><g id="Layer_2" data-name="Layer 2"><g id="Layer_1-2" data-name="Layer 1"><g id="levi"><g id="orbs"><g id="gamepad"><path class="cls-1" d="M51.08,23.22A46.82,46.82,0,0,0,49.68,14a35.62,35.62,0,0,0-2.86-7.76C42.36-1.61,37.52-.4,31.73,1.13a42.21,42.21,0,0,1-5.86,1.14h-.63a42.21,42.21,0,0,1-5.86-1.14C13.59-.34,8.75-1.61,4.29,6.28a32.69,32.69,0,0,0-2.86,7.77A46.61,46.61,0,0,0,0,23.28a17.33,17.33,0,0,0,.89,7.26A4.84,4.84,0,0,0,4,33.4,6.27,6.27,0,0,0,8.05,33a30,30,0,0,0,8.15-5.8c2-1.91,5.66-2.86,9.36-2.86s7.38.95,9.35,2.86A30,30,0,0,0,43.06,33a6.68,6.68,0,0,0,4.08.44,4.74,4.74,0,0,0,3-2.93A17,17,0,0,0,51.08,23.22Z"/><circle class="cls-2" cx="36.63" cy="8.89" r="2.23"/><circle class="cls-2" cx="36.63" cy="17.93" r="2.23"/><circle class="cls-2" cx="32.11" cy="13.41" r="2.23"/><circle class="cls-2" cx="13.68" cy="13.41" r="6.07"/><circle class="cls-2" cx="41.15" cy="13.41" r="2.23"/><path class="cls-3" d="M17.22,14.21a1,1,0,0,1-.77.3h-.72a1,1,0,0,0-1,1v.67a1.06,1.06,0,0,1-1.08,1.07,1,1,0,0,1-1.07-1.07v-.72a1,1,0,0,0-1-1h-.72a1.08,1.08,0,0,1-.77-.3,1.06,1.06,0,0,1-.3-.72,1,1,0,0,1,.3-.77l.06-.05a1.17,1.17,0,0,1,.71-.26h.72a1,1,0,0,0,1-1v-.72a1,1,0,0,1,.3-.77,1,1,0,0,1,.77-.31,1,1,0,0,1,.77.31l.05,0a1.2,1.2,0,0,1,.26.72v.72a1,1,0,0,0,1,1h.72a1.06,1.06,0,0,1,1.08,1.08A1,1,0,0,1,17.22,14.21Z"/><circle class="cls-2" cx="18.07" cy="25.1" r="3.48"/><circle class="cls-2" cx="33.37" cy="25.1" r="3.48"/></g></g></g></g></g></svg>