<svg xmlns="http://www.w3.org/2000/svg" xmlns:xlink="http://www.w3.org/1999/xlink" width="861.881" height="766.525" viewBox="0 0 861.881 766.525">
  <defs>
    <linearGradient id="linear-gradient" y1="0.5" x2="0.999" y2="0.5" gradientUnits="objectBoundingBox">
      <stop offset="0.06" stop-color="#5ebb4c"/>
      <stop offset="0.95" stop-color="#03793e"/>
    </linearGradient>
    <linearGradient id="linear-gradient-2" x1="-127.098" y1="-19.327" x2="-127.099" y2="-19.327" xlink:href="#linear-gradient"/>
    <linearGradient id="linear-gradient-3" x1="-0.168" y1="0.454" x2="1.15" y2="0.606" gradientUnits="objectBoundingBox">
      <stop offset="0.06" stop-color="#5ebb4c"/>
      <stop offset="0.27" stop-color="#41a648"/>
      <stop offset="0.56" stop-color="#1f8d42"/>
      <stop offset="0.8" stop-color="#0b7e3f"/>
      <stop offset="0.95" stop-color="#03793e"/>
    </linearGradient>
    <linearGradient id="linear-gradient-4" x1="0.862" y1="0.074" x2="1.855" y2="0.074" gradientUnits="objectBoundingBox">
      <stop offset="0" stop-color="#4f5761"/>
      <stop offset="1" stop-color="#65778e"/>
    </linearGradient>
    <linearGradient id="linear-gradient-5" x1="0" y1="0.5" x2="1" y2="0.5" xlink:href="#linear-gradient-4"/>
    <linearGradient id="linear-gradient-6" x1="0" y1="0.499" x2="1" y2="0.499" xlink:href="#linear-gradient-4"/>
    <linearGradient id="linear-gradient-7" x1="0" y1="0.499" x2="1" y2="0.499" xlink:href="#linear-gradient-4"/>
    <linearGradient id="linear-gradient-8" x1="0" y1="0.5" x2="1" y2="0.5" xlink:href="#linear-gradient-4"/>
    <linearGradient id="linear-gradient-9" x1="-0.001" y1="0.497" x2="1.001" y2="0.497" xlink:href="#linear-gradient-4"/>
    <linearGradient id="linear-gradient-10" x1="-0.004" y1="0.503" x2="0.986" y2="0.503" xlink:href="#linear-gradient-4"/>
    <linearGradient id="linear-gradient-11" x1="0.001" y1="0.499" x2="0.997" y2="0.499" xlink:href="#linear-gradient-4"/>
    <linearGradient id="linear-gradient-12" x1="0" y1="0.501" x2="0.999" y2="0.501" xlink:href="#linear-gradient-4"/>
    <linearGradient id="linear-gradient-13" x1="-56.366" y1="-6.11" x2="-55.077" y2="-6.11" xlink:href="#linear-gradient-4"/>
    <linearGradient id="linear-gradient-14" x1="0.001" y1="0.5" x2="1.001" y2="0.5" xlink:href="#linear-gradient-4"/>
    <clipPath id="clip-path">
      <path id="Path_1337" data-name="Path 1337" d="M440.05,352.18s3.08-3.88,4.16-4.07,6.15-.24,7.32.35,3.74,3.75,3.74,3.75.44,4.87.09,5.72-2.42,3.92-3.57,4.55-6.39.86-7.79,0a11.35,11.35,0,0,1-3.67-4.82,44.4,44.4,0,0,1-.28-5.48Z" fill="none"/>
    </clipPath>
    <clipPath id="clip-path-2">
      <path id="Path_1338" data-name="Path 1338" d="M418.56,351.75s3.24-3.74,4.33-3.89,6.15,0,7.3.66,3.58,3.89,3.58,3.89.23,4.89-.15,5.73-2.58,3.81-3.76,4.39-6.41.59-7.78-.35a11.248,11.248,0,0,1-3.46-5A42.663,42.663,0,0,1,418.56,351.75Z" fill="none"/>
    </clipPath>
  </defs>
  <g id="herocenter" transform="translate(0.001)">
   
    <ellipse id="shadow" cx="84.57" cy="3.72" rx="84.57" ry="3.72" transform="translate(353.29 665.14)" fill="gray"/>
    <g id="levi">
      <g id="orbs">
        <g id="Repair">
          <path id="Path_1278" data-name="Path 1278" d="M601,292.63l-.06-.12-4.37,4.27-5.23-5.42,4.38-4.27-.06-.06a8.94,8.94,0,0,0-9.34,2,9.09,9.09,0,0,0-2.64,6.36,10,10,0,0,0,.45,2.93l-9.8,9.55a7.75,7.75,0,0,0-7.51,1.91,7.64,7.64,0,0,0,0,10.84,7.74,7.74,0,0,0,5.33,2.26h.06a7.6,7.6,0,0,0,5.45-2.24,7.39,7.39,0,0,0,2-7.28l4.25-4.15,5.61-5.41a12.159,12.159,0,0,0,2.55.52h0a8.93,8.93,0,0,0,6.73-2.53A8.82,8.82,0,0,0,601,292.63ZM574,317h0a2.56,2.56,0,1,1,.05-3.65A2.53,2.53,0,0,1,574,317Z" fill="url(#linear-gradient-4)"/>
          <path id="Path_1279" data-name="Path 1279" d="M594.21,320.37l-2.45,6.06-3.65-.05a17.739,17.739,0,0,1-4.38,4.39l.26,3.65L577.93,337l-2.52-2.65a21.271,21.271,0,0,1-6.22.1l-2.4,2.71-6.12-2.45.17-3.65a18.871,18.871,0,0,1-4.45-4.38l-3.66.2-2.54-6,2.65-2.52a21.272,21.272,0,0,1-.1-6.22l-2.71-2.4,2.45-6.12,3.65.17a16.859,16.859,0,0,1,4.38-4.45l-.26-3.66,6.06-2.6,2.52,2.71a17.52,17.52,0,0,1,6.21-.1l2.41-2.71,6.12,2.45h.12a10,10,0,0,0,.45,2.93l-5.49,5.35-.12-.13a13.16,13.16,0,1,0,6.74,11.65h0a13.25,13.25,0,0,0-1.33-5.92h-.12l5.61-5.41a12.161,12.161,0,0,0,2.55.52l2.07,4.9-2.65,2.4a21.608,21.608,0,0,1,.1,6.27Z" fill="#333"/>
        </g>
        <g id="Telescope">
          <path id="Path_1280" data-name="Path 1280" d="M293.85,332.91a.83.83,0,0,1-.83-.83V310.89a.83.83,0,0,1,1.66,0v21.19a.83.83,0,0,1-.83.83Z" fill="#c2d6e4"/>
          <path id="Path_1281" data-name="Path 1281" d="M299.85,322.32H287.56a.83.83,0,0,1,0-1.66h12.29a.83.83,0,1,1,0,1.66Z" fill="#417194"/>
          <path id="Path_1282" data-name="Path 1282" d="M281.83,335.28a.78.78,0,0,1-.33-.07.83.83,0,0,1-.44-1.09l10.47-24.58a.83.83,0,1,1,1.52.65l-10.46,24.58A.82.82,0,0,1,281.83,335.28Z" fill="#c2d6e4"/>
          <path id="Path_1283" data-name="Path 1283" d="M305.87,335.28a.82.82,0,0,1-.76-.51l-10.46-24.58a.83.83,0,1,1,1.52-.65l10.47,24.58a.83.83,0,0,1-.44,1.09.78.78,0,0,1-.33.07Z" fill="#c2d6e4"/>
          <path id="Path_1284" data-name="Path 1284" d="M296.13,312.29h-4.56a1.11,1.11,0,0,1-1.11-1.11V302h6.78v9.17a1.11,1.11,0,0,1-1.11,1.12Z" fill="url(#linear-gradient-5)"/>
          <path id="Path_1285" data-name="Path 1285" d="M294.58,302v9.17a1.11,1.11,0,0,1-1.11,1.11h2.66a1.11,1.11,0,0,0,1.11-1.11V302Z" fill="#333"/>
          <path id="Path_1286" data-name="Path 1286" d="M275.91,304.83l7.22-3.19,1.9,4.3-7.22,3.19Z" fill="url(#linear-gradient-6)"/>
          <path id="Path_1287" data-name="Path 1287" d="M276.86,307l7.22-3.19.95,2.15-7.22,3.19Z" fill="#333"/>
          <path id="Path_1288" data-name="Path 1288" d="M268.87,299.31l3.51-1.55,3.19,7.22-3.51,1.55Z" fill="url(#linear-gradient-7)"/>
          <path id="Path_1289" data-name="Path 1289" d="M270.62,298.53l1.76-.77,3.19,7.22-1.76.78Z" fill="#333"/>
          <path id="Path_1290" data-name="Path 1290" d="M306.31,299.11l-9.07,4h-1.45l-1.21,1.21-8.77,3.87a1.12,1.12,0,0,1-1.46-.57l-.5-1.14.09-.42-.4-.28L281.45,301a1.11,1.11,0,0,1,.57-1.46l20.49-9.05Z" fill="url(#linear-gradient-8)"/>
          <path id="Path_1291" data-name="Path 1291" d="M279,310.64,270,307a.45.45,0,0,1,0-.82l4.17-1.84.57-.05.35-.35,1.09-.49a.45.45,0,0,1,.59.23l1.24,2.82.1,1.29.85.86.64,1.44a.45.45,0,0,1-.6.55Z" fill="url(#linear-gradient-9)"/>
          <path id="Path_1292" data-name="Path 1292" d="M276.18,303.41l-2,.89,2.34,5.31,2.51,1a.45.45,0,0,0,.58-.59l-2.83-6.41a.45.45,0,0,0-.59-.23Z" fill="#333"/>
          <path id="Path_1293" data-name="Path 1293" d="M283.54,305.75l.81,1.84a1.12,1.12,0,0,0,1.46.57l20.5-9.05-1.26-2.85Z" fill="#333"/>
          <path id="Path_1294" data-name="Path 1294" d="M268,300.53a.82.82,0,0,1-.76-.49.83.83,0,0,1,.42-1.1l5.34-2.35a.83.83,0,1,1,.67,1.51l-5.34,2.36A.78.78,0,0,1,268,300.53Z" fill="url(#linear-gradient-10)"/>
          <circle id="Ellipse_165" data-name="Ellipse 165" cx="3.52" cy="3.52" r="3.52" transform="translate(287.46 302.03)" fill="#dae7ef"/>
          <path id="Path_1295" data-name="Path 1295" d="M291.09,302a3.53,3.53,0,0,1-.88,5.89,3.391,3.391,0,0,1-1.52.3,3.52,3.52,0,1,0,2.4-6.19Z" fill="#c2d6e4"/>
          <path id="Path_1296" data-name="Path 1296" d="M317.1,296.2l-7.89,3.48-.86.11-.66.56-2.64,1.17a1.11,1.11,0,0,1-1.46-.57l-.24-.54v-.78l-.6-.51-3.46-7.85a1.1,1.1,0,0,1,.56-1.46l2.64-1.17.84-.1L304,288l7.89-3.48a1.66,1.66,0,0,1,2.19.85L318,294a1.66,1.66,0,0,1-.85,2.19Z" fill="url(#linear-gradient-11)"/>
          <path id="Path_1297" data-name="Path 1297" d="M311.93,284.49l-1.33.59,3.24,7.34a1.66,1.66,0,0,1-.85,2.19l-10.21,4.51.81,1.83a1.11,1.11,0,0,0,1.46.57l2.64-1.17.66-.56.86-.11,7.89-3.48a1.66,1.66,0,0,0,.9-2.2l-3.83-8.67a1.66,1.66,0,0,0-2.19-.85Z" fill="#333"/>
          <path id="Path_1298" data-name="Path 1298" d="M302.53,288.64l1.52-.67,5.17,11.71-1.52.67Z" fill="#c2d6e4"/>
          <path id="Path_1299" data-name="Path 1299" d="M291,306.79a1.21,1.21,0,1,0-1.21-1.21,1.21,1.21,0,0,0,1.21,1.21Z" fill="#417194"/>
        </g>
        <g id="DSLR">
          <path id="Path_1300" data-name="Path 1300" d="M573.33,444.65a.83.83,0,0,1,.69.92l-.24,1.6a.81.81,0,0,1-.92.68l-3.21-.47-1.6-.24-1.6-.23a.81.81,0,0,1-.68-.92l.23-1.6a.81.81,0,0,1,.92-.68Z" fill="#aab2bd"/>
          <path id="Path_1301" data-name="Path 1301" d="M605.78,451.88l-3.2-.47a4.85,4.85,0,0,1-4.09-5.51,1.63,1.63,0,0,0-1.37-1.84h0l-11.2-1.65a1.62,1.62,0,0,0-1.84,1.35h0a4.86,4.86,0,0,1-5.51,4.1l-4.79-.71-4.81-.71a4.83,4.83,0,0,1,4.09,5.51l-3.3,22.4a4.83,4.83,0,0,1-5.5,4.09h0l36.82,5.43a4.88,4.88,0,0,0,5.51-4.1l3.3-22.41a4.87,4.87,0,0,0-4.1-5.51Z" fill="#333"/>
          <path id="Path_1302" data-name="Path 1302" d="M600.87,465.89a13.574,13.574,0,0,1-.08,3.24,13.391,13.391,0,0,1-.86,3.13,12.94,12.94,0,1,1,.94-6.37Zm-3.28,2.77a9.71,9.71,0,1,0-11,8.19,9.71,9.71,0,0,0,11-8.19Z" fill="#444a54"/>
          <path id="Path_1303" data-name="Path 1303" d="M601.5,464.34a3.24,3.24,0,1,1-1,6.4l-.39-.08a13.4,13.4,0,0,0,.87-3.13,13.059,13.059,0,0,0,.07-3.24Z" fill="#aab2bd"/>
          <path id="Path_1304" data-name="Path 1304" d="M589.64,456a9.71,9.71,0,1,1-11,8.19A9.71,9.71,0,0,1,589.64,456Z" fill="#6899d1"/>
          <path id="Path_1305" data-name="Path 1305" d="M589.64,456a10,10,0,0,0-1.64,0,9.69,9.69,0,0,1-2.78,18.91,9.121,9.121,0,0,0,1.58.39,9.754,9.754,0,1,0,2.84-19.3Z" fill="#5386c6"/>
          <path id="Path_1306" data-name="Path 1306" d="M601.1,464.29a13.059,13.059,0,0,1-.07,3.24,13.544,13.544,0,0,1-.87,3.13,12.94,12.94,0,1,1,.94-6.37Zm-3.28,2.77a9.7,9.7,0,1,0-11,8.19,9.7,9.7,0,0,0,11-8.19Z" fill="#666e79"/>
          <path id="Path_1307" data-name="Path 1307" d="M573.06,452l-3.3,22.4a4.83,4.83,0,0,1-5.5,4.09h0l-3.2-.47a4.87,4.87,0,0,1-4.09-5.51l3.3-22.41a4.87,4.87,0,0,1,5.51-4.09l3.2.47a4.83,4.83,0,0,1,4.09,5.51Z" fill="gray"/>
          <path id="Path_1308" data-name="Path 1308" d="M594.93,447.83l-8-1.18a.81.81,0,0,1-.68-.92.8.8,0,0,1,.92-.68l8,1.18a.81.81,0,0,1-.24,1.6Z" fill="#666e79"/>
          <path id="Path_1309" data-name="Path 1309" d="M592.18,449.88l-3.2-.48a.81.81,0,0,1,.23-1.6l3.2.48a.8.8,0,0,1,.69.91A.82.82,0,0,1,592.18,449.88Z" fill="#666e79"/>
        </g>
        <g id="gamepad">
          <path id="Path_1310" data-name="Path 1310" d="M461.61,231.21a46.611,46.611,0,0,0-1.4-9.23,35.519,35.519,0,0,0-2.86-7.77c-4.46-7.83-9.3-6.62-15.09-5.09a42.21,42.21,0,0,1-5.86,1.14h-.63a42.207,42.207,0,0,1-5.86-1.14c-5.79-1.47-10.63-2.74-15.09,5.15A32.849,32.849,0,0,0,412,222a48.243,48.243,0,0,0-1.4,9.23,17.33,17.33,0,0,0,.89,7.26,4.8,4.8,0,0,0,3.06,2.86,6.24,6.24,0,0,0,4.07-.44,30,30,0,0,0,8.15-5.8c2-1.91,5.66-2.86,9.36-2.86s7.38,1,9.35,2.86a30.18,30.18,0,0,0,8.15,5.8,6.68,6.68,0,0,0,4.08.44,4.74,4.74,0,0,0,3.05-2.93,17,17,0,0,0,.85-7.21Z" fill="url(#linear-gradient-12)"/>
          <circle id="Ellipse_166" data-name="Ellipse 166" cx="2.23" cy="2.23" r="2.23" transform="translate(444.93 214.65)" fill="#333"/>
          <circle id="Ellipse_167" data-name="Ellipse 167" cx="2.23" cy="2.23" r="2.23" transform="translate(444.93 223.69)" fill="#333"/>
          <circle id="Ellipse_168" data-name="Ellipse 168" cx="2.23" cy="2.23" r="2.23" transform="translate(440.41 219.17)" fill="#333"/>
          <circle id="Ellipse_169" data-name="Ellipse 169" cx="6.07" cy="6.07" r="6.07" transform="translate(418.14 215.33)" fill="#333"/>
          <circle id="Ellipse_170" data-name="Ellipse 170" cx="2.23" cy="2.23" r="2.23" transform="translate(449.45 219.17)" fill="#333"/>
          <path id="Path_1311" data-name="Path 1311" d="M427.75,222.2a1.06,1.06,0,0,1-.77.31h-.72a1,1,0,0,0-1,1v.67a1.043,1.043,0,0,1-1.08,1.07,1.08,1.08,0,0,1-.77-.3,1.06,1.06,0,0,1-.3-.77v-.72a1,1,0,0,0-1-1h-.72a1.039,1.039,0,0,1-.76-1.8h.05a1.24,1.24,0,0,1,.71-.26h.72a1,1,0,0,0,1-1v-.72a1.06,1.06,0,0,1,.3-.77,1.09,1.09,0,0,1,.77-.31,1.06,1.06,0,0,1,.77.31v.05a1.2,1.2,0,0,1,.26.72v.72a1,1,0,0,0,1,1H427a1.06,1.06,0,0,1,.77.31,1.11,1.11,0,0,1,0,1.54Z" fill="#010101"/>
          <circle id="Ellipse_171" data-name="Ellipse 171" cx="3.48" cy="3.48" r="3.48" transform="translate(425.13 229.62)" fill="#333"/>
          <circle id="Ellipse_172" data-name="Ellipse 172" cx="3.48" cy="3.48" r="3.48" transform="translate(440.42 229.62)" fill="#333"/>
        </g>
        <g id="paint">
          <path id="Path_1312" data-name="Path 1312" d="M302.24,441.64a20.639,20.639,0,0,0-2.84-.13c-30.32,3-16.45,29.13-16.45,29.13,3.84.44,6.49,1.66,7.89,3.63a7.07,7.07,0,0,1,1,5.47,4.41,4.41,0,0,0,3.35,5.38,22.12,22.12,0,0,0,26.21-21.73c-.1-11.95-9.75-20.72-19.14-21.75Z" fill="#fdc113"/>
          <circle id="Ellipse_173" data-name="Ellipse 173" cx="4.06" cy="4.06" r="4.06" transform="translate(288.93 448.42)" fill="#86c440"/>
          <circle id="Ellipse_174" data-name="Ellipse 174" cx="4.06" cy="4.06" r="4.06" transform="translate(301.02 449.15)" fill="#333"/>
          <circle id="Ellipse_175" data-name="Ellipse 175" cx="4.06" cy="4.06" r="4.06" transform="translate(308.46 459.45)" fill="gray"/>
          <circle id="Ellipse_176" data-name="Ellipse 176" cx="4.06" cy="4.06" r="4.06" transform="translate(302.57 470.1)" fill="#86c440"/>
          <path id="Path_1313" data-name="Path 1313" d="M299.3,450.33l-8.36,16-5.38-2.71,7.92-16.25a3.33,3.33,0,0,1,4.38-1.46,3.27,3.27,0,0,1,1.44,4.42Z" fill="url(#linear-gradient-13)"/>
          <path id="Path_1314" data-name="Path 1314" d="M290.94,466.37l-.7,1.34-4.07,7.86a.78.78,0,0,1-.44.36.67.67,0,0,1-.57-.05L281.35,474a.74.74,0,0,1-.35-1h0l3.88-8,.67-1.36Z" fill="#333"/>
          <path id="Path_1315" data-name="Path 1315" d="M279.85,473.11a5.4,5.4,0,0,0-3.51,6.73.76.76,0,0,0,1,.48c1.48-.61,2.06-.09,3,.77a4.49,4.49,0,0,0,5,1.31h0a.77.77,0,0,0,.42-.35,7.24,7.24,0,0,0,.93-5.48,5.46,5.46,0,0,0-6.84-3.46Z" fill="#617d8c"/>
          <path id="Path_1316" data-name="Path 1316" d="M285.74,481.2a.76.76,0,0,0-.81-.24,3,3,0,0,1-3.56-1,3.82,3.82,0,0,0-4.6-1.06.77.77,0,0,0-.46.7,2.2,2.2,0,0,0,.06.37,9.21,9.21,0,0,1-.18,4.94c-.3,1.34-.54,2.4.23,3a1.83,1.83,0,0,0,1.77.05,23.339,23.339,0,0,0,3.95-2,10.26,10.26,0,0,0,3.68-3.89.76.76,0,0,0-.08-.87Z" fill="#86c440"/>
        </g>
        <g id="compass">
          <path id="Path_1317" data-name="Path 1317" d="M438.33,526.67A26.3,26.3,0,1,1,412,553a26.3,26.3,0,0,1,26.33-26.33Z" fill="url(#linear-gradient-14)"/>
          <path id="Path_1318" data-name="Path 1318" d="M438.33,532a21,21,0,1,1-21,21A21,21,0,0,1,438.33,532Z" fill="#f0efef"/>
          <path id="Path_1319" data-name="Path 1319" d="M438.33,542.5A10.47,10.47,0,1,0,448.79,553,10.47,10.47,0,0,0,438.33,542.5Zm0,19.49a3.729,3.729,0,1,1,0,.01Z" fill="#cdd1d3"/>
          <path id="Path_1320" data-name="Path 1320" d="M450.92,540.37c.8.8-8.8,14.77-9.63,15.56s-14.76,10.43-15.59,9.64,8.84-14.8,9.63-15.56S450.09,539.54,450.92,540.37Z" fill="#6899d1"/>
          <path id="Path_1321" data-name="Path 1321" d="M438.33,535.65a1.08,1.08,0,1,0,1.08,1.08,1.08,1.08,0,0,0-1.08-1.08Zm0,32.48a1.08,1.08,0,1,0,1.08,1.08,1.06,1.06,0,0,0-1.08-1.08Zm16.24-16.24a1.08,1.08,0,1,0,1.08,1.08,1.08,1.08,0,0,0-1.08-1.08Zm-32.48,0a1.08,1.08,0,1,0,1.08,1.08,1.08,1.08,0,0,0-1.08-1.08Zm27,11.51a1.1,1.1,0,1,0,1.55,0,1.09,1.09,0,0,0-1.52,0ZM426,541a1.1,1.1,0,1,0,1.554,0A1.1,1.1,0,0,0,426,541Z" fill="#cdd1d3"/>
          <path id="Path_1322" data-name="Path 1322" d="M441.5,555.75c1.56-2,10.22-14.58,9.42-15.34s-14.11,8.34-15.48,9.53Z" fill="#e2584d"/>
          <path id="Path_1323" data-name="Path 1323" d="M435.37,550c-.76.76-10.25,14.47-9.64,15.52l25.16-25.16C449.73,539.8,436.13,549.25,435.37,550Z" fill="#487db0"/>
          <path id="Path_1324" data-name="Path 1324" d="M435.44,549.94l3,2.89,12.45-12.46C449.77,539.8,436.81,548.78,435.44,549.94Z" fill="#e6695f"/>
          <path id="Path_1325" data-name="Path 1325" d="M438,551.53a1.81,1.81,0,1,1-1.81,1.8,1.78,1.78,0,0,1,1.81-1.8Z" fill="#ad3427"/>
          <path id="Path_1326" data-name="Path 1326" d="M438,551.53a1.79,1.79,0,0,0-1.81,1.8,1.77,1.77,0,0,0,.51,1.26l2.56-2.56a1.8,1.8,0,0,0-1.26-.5Z" fill="#bf3b2b"/>
          <path id="Path_1327" data-name="Path 1327" d="M438.33,551.17a1.8,1.8,0,1,1-1.81,1.8,1.78,1.78,0,0,1,1.81-1.8Z" fill="#f0efef"/>
        </g>
      </g>
      <g id="me">
        <path id="Path_1328" data-name="Path 1328" d="M421.23,365.66s1.53,36.25-8.89,36.58c-9,.28-20,3.9-20,3.9s-3.56,20.51,44.47,20.42c46.44-.08,38.08-20.92,38.08-20.92l-11.68-4s-14.16,2.78-11.23-37.95S421.23,365.66,421.23,365.66Z" fill="#e9b59a"/>
        <path id="Path_1329" data-name="Path 1329" d="M411.76,353.21s.23,14.87,2.38,19.06,11,15,13.71,16.2c6.33,2.87,13.32,4,20.48-1.91,10.89-13.29,9.29-17.84,9.23-25.75s.88-21.3.12-25.75-1.81-23.29-25-19.87-20.43,16-20.7,23.42c-.19,5.23-.24,10.3-.25,12.86C411.76,352.57,411.76,353.21,411.76,353.21Z" fill="#efc6b7"/>
        <path id="Path_1330" data-name="Path 1330" d="M458.15,352.35v-.05a2.021,2.021,0,0,1,3.89,1.1,47.228,47.228,0,0,1-2.34,9.3c-.28,3.22.08,6-1.75,6.24,0,0-.63.42-.71-.76s.05-7.52.05-7.52S457.27,353.55,458.15,352.35Z" fill="#e9b59a"/>
        <path id="Path_1331" data-name="Path 1331" d="M414.05,357.45s-1.56-8.24-4.81-7.16-1.1,8.28-.45,11.28c.31,1.42,2,3.2,2.31,4.14s.19,2.29.7,3c.95,1.32,1.49,1.56,2.62.92C414.6,367.66,414.05,357.45,414.05,357.45Z" fill="#e9b59a"/>
        <path id="Path_1332" data-name="Path 1332" d="M413.26,356.68s-.77-18.52-.29-20.5c-.42-1.84-1-1.72-1.81-3.66-.86,1.75-.9,12.25.55,21C413,361.13,413.26,356.68,413.26,356.68Z" fill="#353434"/>
        <path id="Path_1333" data-name="Path 1333" d="M447.68,363.24a8.57,8.57,0,0,1-3.79-.61c-1.31-1-3.46-3.68-3.76-4.95a42.285,42.285,0,0,1-.29-5.5v-.13c.32-.41,3.17-3.95,4.3-4.14s6.22-.26,7.45.37,3.7,3.66,3.81,3.79v.12c0,.5.43,4.95.07,5.82s-2.42,4-3.66,4.65a11.69,11.69,0,0,1-4.13.58Zm-7.42-11a40.6,40.6,0,0,0,.28,5.33c.27,1.18,2.37,3.81,3.58,4.7s6.48.61,7.57,0,3.12-3.57,3.47-4.44a25.737,25.737,0,0,0-.09-5.56c-.33-.4-2.59-3.11-3.63-3.64s-6-.53-7.19-.33c-.73.15-2.77,2.42-3.99,3.95Z" fill="#151515"/>
        <path id="Path_1334" data-name="Path 1334" d="M426.57,363.15c-1.82,0-3.8-.24-4.61-.8-1.26-1-3.3-3.82-3.55-5.1a43.423,43.423,0,0,1-.06-5.51v-.13c.33-.38,3.32-3.8,4.46-3.95s6.22,0,7.43.67,3.55,3.82,3.65,3.95v.12c0,.51.22,5-.17,5.82s-2.58,3.87-3.85,4.5a10,10,0,0,1-3.3.43Zm-7.81-11.32a42.232,42.232,0,0,0,.06,5.34c.23,1.19,2.22,3.9,3.39,4.85s6.45.87,7.56.32,3.26-3.44,3.66-4.29a26.233,26.233,0,0,0,.13-5.57c-.31-.41-2.46-3.21-3.48-3.78s-6-.78-7.17-.63C422.18,348.17,420.05,350.35,418.76,351.83Z" fill="#151515"/>
        <path id="Path_1335" data-name="Path 1335" d="M433.87,352.73l-.19-.38a9.92,9.92,0,0,1,6.42-.27l-.11.41A9.56,9.56,0,0,0,433.87,352.73Z" fill="#151515"/>
        <rect id="Rectangle_78" data-name="Rectangle 78" width="7.12" height="0.42" transform="matrix(0.996, -0.092, 0.092, 0.996, 411.543, 352.104)" fill="#151515"/>
        <rect id="Rectangle_79" data-name="Rectangle 79" width="0.42" height="2.93" transform="matrix(0.143, -0.99, 0.99, 0.143, 455.31, 352.743)" fill="#151515"/>
        <path id="Path_1336" data-name="Path 1336" d="M434.1,328.7l.57.05h.38l2,.23h.13l.48.06h0l1.25.17h0q1.5.225,3,.51h0c.61.12,1.2.23,1.78.36h.09c1,.21,1.93.42,2.83.65a9.53,9.53,0,0,1,2.81.76q.369.157.72.35h0a9.371,9.371,0,0,1,1,.67l.09.06.29.21a1,1,0,0,0,.11.1c4.83,4,5.49,11.84,5.49,11.84l3.39-6.82c.17-.65.34-1.27.49-1.87v-.14a1.433,1.433,0,0,1,.07-.28l.09-.36a.312.312,0,0,0,0-.08h0c.41-1.68.74-3.14,1-4.42v-.05c.69-3.63.73-5.82.3-7.47h0c-.05-.21-.12-.4-.18-.59v-.06h0a13.81,13.81,0,0,0-2.38-3.7l-.17-.2-.57-.75c-.35-.45-.71-.89-1.07-1.31l-.15-.17-.11-.12-.14-.15-.26-.28h0c-.43-.45-.87-.88-1.31-1.28l-.47-.42h0c-.32-.26-.63-.52-.94-.76h0l-.23-.18c-.24-.18-.49-.35-.73-.51h0c-.3-.19-.58-.38-.88-.55l-.17-.11h0l-.67-.37h0c-.4-.21-.79-.39-1.18-.55h0a11.693,11.693,0,0,0-1.45-.48h0a7.88,7.88,0,0,0-1.58-.24c-1.14-.47-2.16-.88-3.13-1.24-.72-.27-1.4-.5-2.07-.71h-.2l-.2-.06a25.487,25.487,0,0,0-3-.71,39.538,39.538,0,0,0-8.92-.28h-.45a14.181,14.181,0,0,0-1.54.12h0l-.57.06h0a5.259,5.259,0,0,0-.91.12h-.1a17.405,17.405,0,0,0-2.25.48h0c-.26.08-.49.15-.69.23h0c-1.75.68-1.6,1.42-1.6,1.42l-.67-.06h-1.15c-.48,0-.93-.06-1.39-.06H418a5.873,5.873,0,0,0-.59.05h0l-.43.06h0a8,8,0,0,0-1.85.52,10.13,10.13,0,0,0-3.18,2.23h0c-.3.3-.61.63-.92,1h0l-.39.47-.18.32h0a16.77,16.77,0,0,0-1.33,3c-.13.38-.25.76-.35,1.13v.05a16.9,16.9,0,0,0-.56,4.31h0a18.35,18.35,0,0,0,.15,2.25,23.39,23.39,0,0,0,4.75,11.05,7.37,7.37,0,0,1,4-5.39h0a12.69,12.69,0,0,1,1.17-.57h0c.32-.13.66-.26,1-.38h.1l.55-.18h0l.77-.21h0l1-.22h0c.32-.06.65-.13,1-.18h0l.73-.11h0c.76-.11,1.55-.19,2.35-.25h5.77l.8.05h.11l.92.07Z" fill="#151515"/>
        <g id="Group_73" data-name="Group 73" opacity="0.3" style="mix-blend-mode: lighten;isolation: isolate">
          <g id="Group_72" data-name="Group 72" clip-path="url(#clip-path)">
            <rect id="Rectangle_80" data-name="Rectangle 80" width="1.12" height="18.31" rx="0.56" transform="translate(456.266 350.852) rotate(42.54)" fill="#fff"/>
            <rect id="Rectangle_81" data-name="Rectangle 81" width="1.21" height="18.31" rx="0.6" transform="translate(448.558 363.837) rotate(-137.46)" fill="#fff"/>
          </g>
        </g>
        <g id="Group_75" data-name="Group 75" opacity="0.3" style="mix-blend-mode: lighten;isolation: isolate">
          <g id="Group_74" data-name="Group 74" clip-path="url(#clip-path-2)">
            <rect id="Rectangle_82" data-name="Rectangle 82" width="1.12" height="18.31" rx="0.56" transform="translate(433.882 351.675) rotate(42.54)" fill="#fff"/>
            <rect id="Rectangle_83" data-name="Rectangle 83" width="1.21" height="18.31" rx="0.6" transform="translate(426.179 364.651) rotate(-137.46)" fill="#fff"/>
          </g>
        </g>
        <path id="Path_1339" data-name="Path 1339" d="M435.28,368.45a2,2,0,0,0-2-.85s-.89.11-.49.52,1.52-.31,1.52-.31S434.64,367.77,435.28,368.45Z" fill="#cd956e"/>
        <path id="Path_1340" data-name="Path 1340" d="M438.84,368.7a2,2,0,0,1,1.85-1.11s.9,0,.55.45-1.54-.1-1.54-.1S439.38,368,438.84,368.7Z" fill="#cd956e"/>
        <path id="Path_1341" data-name="Path 1341" d="M457.52,358.14c-.06,0-.25.05-.28.19-.34,1.73-2,9.57-2.87,13.47a18.859,18.859,0,0,1-1.54,4.26c-1,2-2.53,4.94-3.18,5.88-1,1.5-1.74-1.59-1.59-4.61.22-4.46-1.39-5-3.23-5.84s-6.09-1.09-6.09-1.09l-1.93.88-.53-.14-2.12-.55c-2.13-.56-3.92.7-6.77,1.6s-1.66,4.74-1.5,7.13.13.7-.9,2.55c-3.7-.81-9.36-12.18-10.14-14.47s-1.63-9.85-1.63-9.85a5,5,0,0,0-.65,1.51c.29,4.56.28,10.55,1.57,13.21,2.08,4.28,11,15,13.71,16.2,6.34,2.87,13.32,4,20.49-1.91,4.94-6,7.31-10.26,8.42-13.82a30.084,30.084,0,0,0,.93-4.43S457.68,358,457.52,358.14ZM445,385c-2.49.64-8.59,2.14-11.76.8s-5.44-2.57-5.88-4.85-1.06-5.42-.31-5.84c.35-.2,1.11-.53,1.11-.53s5.7-2.12,7-1.74l1.35.38a3.64,3.64,0,0,1,1.77-.24c1.29,0,8.29.57,8.39,2.15S447.52,384.33,445,385Z" fill="#151515" opacity="0.8"/>
        <path id="Path_1342" data-name="Path 1342" d="M457,357s0-21.34-.49-23.31c.41-1.85,2.82-1.14,3.34-.63.86,1.75-.31,11.91-1.77,20.66-.44,2.69-.43,4-.65,4.38-.05.09-.28,0-.29,0A7,7,0,0,1,457,357Z" fill="#353434"/>
        <path id="Path_1343" data-name="Path 1343" d="M439.66,327.54s7.87-16.9,20.23-10.2C459.89,317.34,449.49,311.26,439.66,327.54Z" fill="#303030"/>
        <path id="Path_1344" data-name="Path 1344" d="M437.62,329.27s8.23-20.65,21.62-12.24C459.24,317,448,309.41,437.62,329.27Z" fill="#303030"/>
        <path id="Path_1345" data-name="Path 1345" d="M450,329.91s8.72-3.26,12.42.52C462.4,330.43,459.75,327.5,450,329.91Z" fill="#303030"/>
        <path id="Path_1346" data-name="Path 1346" d="M450.34,330.66s8.72-3.27,12.41.51C462.75,331.17,460.1,328.24,450.34,330.66Z" fill="#303030"/>
        <path id="Path_1347" data-name="Path 1347" d="M463.75,324.89a12.037,12.037,0,0,0-.64-1.5h0c-.1-.19-.2-.41-.31-.63v-.05a26.854,26.854,0,0,0-2.23-3.61,1.708,1.708,0,0,0-.11-.14,17.117,17.117,0,0,0-1.93-2.18l-.15-.14h0l-.14-.12a1.071,1.071,0,0,0-.16-.14,5.7,5.7,0,0,0-.47-.39h0a9.13,9.13,0,0,0-5.76-2.13h-.61a7.49,7.49,0,0,0-4,1.71,14.391,14.391,0,0,0-2.16,2.12,24.516,24.516,0,0,0-1.87,2.6,23.174,23.174,0,0,0-1.39,2.45h0a47.642,47.642,0,0,0-2.78,6.55h0a50.543,50.543,0,0,1,2-5.43c.25-.6.54-1.21.84-1.83.18-.37.36-.74.56-1.11a25.649,25.649,0,0,1,1.82-3c1.76-2.49,4-4.45,6.56-4.71h0a4.411,4.411,0,0,1,.73,0,10,10,0,0,1,1.25.1h0a10.93,10.93,0,0,1,3.06.94h0a12.35,12.35,0,0,1,3.73,2.9h0c.41.47.79.94,1.14,1.42h0l.42.62a.429.429,0,0,0,0,.07,1.738,1.738,0,0,1,.11.18h0a21.588,21.588,0,0,1,1.68,3.24h0l.26.64h0a11.48,11.48,0,0,1,.55,1.57Z" fill="#303030"/>
        <path id="Path_1348" data-name="Path 1348" d="M449,312.35l.57-.11a4,4,0,0,0-.49.15h-.16a7.942,7.942,0,0,0-1.11.53h-.05l-.1.06-.16.08a10.678,10.678,0,0,0-1.05.74c-2.89,2.24-6.07,6.76-9.22,15.14h-.13c1-3.36,3.7-10.86,8.13-14.63a12,12,0,0,1,1.44-1.05l.32-.18.31-.16.15-.07h0l.39-.18h0a9,9,0,0,1,1.11-.37Z" fill="#303030"/>
        <path id="Path_1349" data-name="Path 1349" d="M458.09,315.48a16,16,0,0,0-3.15-2.2h0a8.943,8.943,0,0,0-1.06-.48h0a9.237,9.237,0,0,0-1.23-.4h-.2a7.4,7.4,0,0,0-2.84-.09,7,7,0,0,1,1-.2h0a6.42,6.42,0,0,1,1.31,0h.25l.34.05h0l.27.05h.05a7.672,7.672,0,0,1,1.12.32h0A10.4,10.4,0,0,1,458.09,315.48Z" fill="#303030"/>
        <path id="Path_1350" data-name="Path 1350" d="M455.64,313.88l-.09-.05c-.32-.2-.64-.37-.95-.53a9.709,9.709,0,0,0-1.62-.64h-.11a8.41,8.41,0,0,0-3.71-.2h-.21a9.343,9.343,0,0,0-1,.27h0l-.45.16h0l-.19.08-.42.19h0a12.261,12.261,0,0,0-1.19.62h0a14.333,14.333,0,0,0-2,1.47h0a24.68,24.68,0,0,0-6.51,9.4,17.2,17.2,0,0,1-2,4.11h-.38a32.214,32.214,0,0,0,1.89-4.34,23.579,23.579,0,0,1,4.3-7.34c.3-.35.6-.68.92-1h0a18.451,18.451,0,0,1,3.36-2.68h0c.35-.21.69-.39,1-.56l.22-.11h0l.15-.06a9.914,9.914,0,0,1,1.42-.53h.57a8.679,8.679,0,0,1,1.45-.2h.25a7.08,7.08,0,0,1,1.41.11h.06l.27.05h.07l.42.1h0l.49.17a7.379,7.379,0,0,1,1.95,1h0a6.7,6.7,0,0,1,.63.51Z" fill="#303030"/>
        <path id="Path_1351" data-name="Path 1351" d="M435.38,324.38a29.881,29.881,0,0,1,6.7-9.68,13.617,13.617,0,0,1,1.32-1.06h0a10.467,10.467,0,0,1,1-.63l.43-.24h.05l.13-.07.44-.22a11.049,11.049,0,0,1,1.78-.65l.27-.07h.12a9.264,9.264,0,0,1,1.58-.23h.42a8.216,8.216,0,0,1,1.53.11h0l.44.07.54.13h0a8.511,8.511,0,0,1,1.82.7h0l.25.13a12.107,12.107,0,0,0-1.4-.47h0a6.58,6.58,0,0,0-.74-.17H452l-.27-.05h-.07a9.536,9.536,0,0,0-1.4-.11H450a9.849,9.849,0,0,0-1.73.2h-.39a10.493,10.493,0,0,0-1.55.53l-.22.09-.22.11h0l-.11.05a11.726,11.726,0,0,0-1.29.72,18.609,18.609,0,0,0-4.09,3.64l-.59.72a26.81,26.81,0,0,0-4,7" fill="#303030"/>
        <path id="Path_1352" data-name="Path 1352" d="M448.22,313.22c-.25,0-.49-.05-.74-.06h-.74a8.24,8.24,0,0,0-1.58.22h0c-.23.05-.47.12-.69.19a10.563,10.563,0,0,0-2.38,1.12c-5,3.14-8.24,10.3-9.58,13.88h-.11c2.63-8.44,5.8-12.53,8.61-14.41a9.593,9.593,0,0,1,1.21-.7l.36-.16h0a7.76,7.76,0,0,1,2.05-.57,1.9,1.9,0,0,1,.25,0h.39a7.712,7.712,0,0,1,.84,0h.31a7.907,7.907,0,0,1,.94.18h.07l.24.07h.07l.13.05a1.826,1.826,0,0,1,.26.11h.07Z" fill="#303030"/>
        <path id="Path_1353" data-name="Path 1353" d="M446,312.85h-.25a10,10,0,0,0-1.35.12,10.226,10.226,0,0,0-1.61.39l-.35.13a9.418,9.418,0,0,0-1.44.67c-5.69,3.16-8.49,11.16-9.41,14.36h0c2-8.32,5-12.38,7.75-14.29a8.786,8.786,0,0,1,1.43-.85,8.494,8.494,0,0,1,.85-.35,7.69,7.69,0,0,1,3.44-.4h.26a4.462,4.462,0,0,1,.5.11h.09Z" fill="#303030"/>
        <path id="Path_1354" data-name="Path 1354" d="M463.76,323.5s-15.08-2.92-20.07,7C443.69,330.47,445.35,320,463.76,323.5Z" fill="#303030"/>
        <path id="Path_1355" data-name="Path 1355" d="M464.07,322.93S449,320,444,329.9C444,329.9,445.66,319.38,464.07,322.93Z" fill="#151515"/>
        <path id="Path_1356" data-name="Path 1356" d="M448.22,313.22h0l-.57-.13h-.09l-.27-.06h-.11a8.458,8.458,0,0,0-1-.15,1.631,1.631,0,0,0-.31,0h-.12a7.606,7.606,0,0,0-.94-.05h-.2a10.941,10.941,0,0,0-2.75.37c-.29.08-.58.18-.86.28a10.292,10.292,0,0,0-1.73.85c-5.29,3.18-7.52,10.66-8.31,14.27h-.12c1.31-8.86,4.39-13.05,7.6-14.91a9,9,0,0,1,1.68-.77,10.84,10.84,0,0,1,5.31-.4c.32.05.61.12.88.18l.24.06q.46.12.81.24h.06l.22.08h.07l.13.05.26.11h.07Z" fill="#303030"/>
        <path id="Path_1357" data-name="Path 1357" d="M429.92,326.86v1.62h0A12.47,12.47,0,0,1,429.92,326.86Z" fill="#303030"/>
        <path id="Path_1358" data-name="Path 1358" d="M443.55,313.66h-.15c-.33-.06-.65-.11-1-.14h-.23c-.41,0-.81-.07-1.19-.08h-.3a12.341,12.341,0,0,0-2.26.2,8.72,8.72,0,0,0-5.16,2.94c-2.54,2.92-3.23,7.28-3.38,10.3a26.89,26.89,0,0,1,.94-6.9,12,12,0,0,1,2.18-4.37h0a7.689,7.689,0,0,1,1.55-1.44,7.481,7.481,0,0,1,2-1,9.12,9.12,0,0,1,3.5-.32,13.1,13.1,0,0,1,1.43.22l.31.07c.26.07.49.13.69.2h0l.21.06.64.24Z" fill="#303030"/>
        <path id="Path_1359" data-name="Path 1359" d="M430,328.48a28.121,28.121,0,0,1,2.25-9.34,51.213,51.213,0,0,0-2.08,9.34Z" fill="#303030"/>
        <path id="Path_1360" data-name="Path 1360" d="M448.49,312.38l-.5-.25-.11-.06-.65-.3c-3.8-1.63-7.16-1.16-9.55.55a12.123,12.123,0,0,0-1,.82,15.244,15.244,0,0,0-2.08,2.18,18.22,18.22,0,0,0-2.28,3.81,25.229,25.229,0,0,1,1-2.6,18.51,18.51,0,0,1,1.3-2.41,11.359,11.359,0,0,1,2.55-2.86h0a7.13,7.13,0,0,1,2.15-1.17h0a7.32,7.32,0,0,1,2.62-.37,8.049,8.049,0,0,1,1,.1,9,9,0,0,1,1.7.43l.16.06a12.91,12.91,0,0,1,2.5,1.24h0l.23.15.13.09a4.281,4.281,0,0,1,.36.26h.08Z" fill="#303030"/>
        <path id="Path_1361" data-name="Path 1361" d="M450.68,312.1l-.12-.06c-.11-.06-.29-.15-.55-.26h0l-.79-.33h0a23.316,23.316,0,0,0-4.39-1.16l-.84-.13-.82-.1-.77-.06h-.41a8.41,8.41,0,0,0-4.8,1.28h0a13.32,13.32,0,0,0-4.1,4.3h0a27,27,0,0,0-2.18,4.37,45.163,45.163,0,0,0-2.38,8.54h0c1.69-11.43,5-16.18,8.72-18a10.32,10.32,0,0,1,4.25-1h.77a16.882,16.882,0,0,1,2.89.3h0a15.4,15.4,0,0,1,4.55,1.6c.23.12.42.24.57.33h0l.39.26Z" fill="#303030"/>
        <path id="Path_1362" data-name="Path 1362" d="M453.43,313.06a.769.769,0,0,0-.17-.13c-.09-.08-.23-.18-.4-.31l-.42-.29h0c-.16-.1-.33-.22-.52-.33l-.18-.11-.57-.34h0a14.776,14.776,0,0,0-1.65-.84h0a20.092,20.092,0,0,0-4.71-1.48c-.55-.1-1.13-.17-1.72-.22a10.459,10.459,0,0,0-2.45.06l-.33.05-.29.06a9.8,9.8,0,0,0-3.72,1.61c-5.94,4.14-7.87,14.15-8.38,17.69h0a39.11,39.11,0,0,1,2.59-11.29h0c.07-.19.15-.37.23-.55a16.539,16.539,0,0,1,2.92-4.48,11.07,11.07,0,0,1,4.38-2.91c.32-.11.64-.21,1-.3s.41-.11.62-.15c.39-.08.78-.14,1.18-.19h.11a14,14,0,0,1,1.83-.07h.08a16.21,16.21,0,0,1,8.18,2.68h0l.64.42.46.33h0l.08.05.49.37.33.27h0l.31.27A1,1,0,0,1,453.43,313.06Z" fill="#303030"/>
        <path id="Path_1363" data-name="Path 1363" d="M426.91,328.5Z" fill="#303030"/>
        <path id="Path_1364" data-name="Path 1364" d="M448.66,311.14a30.186,30.186,0,0,0-4-.91l-.79-.11-.79-.08c-.37,0-.74-.06-1.1-.07a18.7,18.7,0,0,0-2.64.1h0a12.718,12.718,0,0,0-2.16.42c-.31.08-.61.18-.9.28a12.1,12.1,0,0,0-2.66,1.36,12.9,12.9,0,0,0-1.22,1c-.25.22-.48.46-.71.7h0c-3.36,3.57-4.37,8.83-4.66,12.3a.22.22,0,0,1,0,.08c0,.56-.06,1.06-.08,1.51V326.1a1,1,0,0,1,0-.17,33.1,33.1,0,0,1,.72-5.69h0c.17-.76.36-1.48.58-2.15a1.108,1.108,0,0,1,.11-.32,11.742,11.742,0,0,1,.44-1.14c.08-.21.17-.41.26-.6h0a12.841,12.841,0,0,1,2.66-3.82l.17-.16h0a10.85,10.85,0,0,1,6.07-2.76,13.309,13.309,0,0,1,1.78-.12h1.11a21.622,21.622,0,0,1,4.2.7h0A22.3,22.3,0,0,1,448.66,311.14Z" fill="#303030"/>
        <path id="Path_1365" data-name="Path 1365" d="M428.67,311.86l-.24.3h0a12,12,0,0,0-2,4.35h0a1.815,1.815,0,0,0-.07.25h0a18.228,18.228,0,0,0-.4,2.42h0a29.84,29.84,0,0,0,.71,9.32h0a35,35,0,0,1-1-4.81h0a19.44,19.44,0,0,1,.07-6.27h0C426.45,313.23,428.67,311.86,428.67,311.86Z" fill="#303030"/>
        <path id="Path_1366" data-name="Path 1366" d="M423.47,328.68v.13h0Z" fill="#303030"/>
        <path id="Path_1367" data-name="Path 1367" d="M441,308.62h-.25c-.92-.09-1.79-.14-2.62-.15h-1.62c-15.78.71-13.82,16.12-13.08,20-.25-1.21-.45-2.36-.59-3.43h0c-1.6-12.6,4.28-16.22,9.77-17a18.674,18.674,0,0,1,2.2-.16,23.621,23.621,0,0,1,4.21.34c.92.15,1.58.32,1.85.39Z" fill="#303030"/>
        <path id="Path_1368" data-name="Path 1368" d="M422.42,327.33c.1.52.21,1,.33,1.59h0C422.67,328.59,422.54,328,422.42,327.33Z" fill="#303030"/>
        <path id="Path_1369" data-name="Path 1369" d="M442.76,308.5h-.18l-.68-.13h0a30.271,30.271,0,0,0-7.68-.55,16.747,16.747,0,0,0-1.83.21h0a11.49,11.49,0,0,0-8.18,5.07h0c-2.88,4.56-2.33,10.84-1.77,14.08a29.889,29.889,0,0,1-.47-10.55h0a13.7,13.7,0,0,1,1.18-3.8,9.49,9.49,0,0,1,3-3.63h0a10.15,10.15,0,0,1,2.22-1.2h0a13.525,13.525,0,0,1,1.32-.43h0a3.192,3.192,0,0,0,.59-.15h0c.43-.09.87-.17,1.32-.23h.06a25.1,25.1,0,0,1,8.59.65h0c1,.23,1.71.46,2.12.59h.16l.14.05h0Z" fill="#303030"/>
        <path id="Path_1370" data-name="Path 1370" d="M442.76,308.5l-.29-.07h0l-.27-.07h0a39,39,0,0,0-5.17-.87h0a22.52,22.52,0,0,0-5.37.08,17.742,17.742,0,0,0-1.79.35,11.26,11.26,0,0,0-5,2.69,10.729,10.729,0,0,0-1.75,2.19,17,17,0,0,0-2.13,8.41,34.3,34.3,0,0,0,.78,7.89h0a43.266,43.266,0,0,1-1-5.25c0-.21-.05-.42-.07-.63-.73-7,1-11.05,3.79-13.38a10.541,10.541,0,0,1,3-1.73l.33-.13a15.255,15.255,0,0,1,1.54-.46l.58-.12c.35-.07.71-.13,1.07-.18H431l.64-.08h0a28.34,28.34,0,0,1,8,.56h0c1.22.26,2.15.52,2.65.67h0l.2.06Z" fill="#303030"/>
        <path id="Path_1371" data-name="Path 1371" d="M443.89,308.53h-.07l-.2-.06c-6.06-1.79-10.65-2.14-14.1-1.53h0a12.591,12.591,0,0,0-1.31.29h0l-.42.12h0c-.32.09-.61.2-.9.31h0l-.18.07h0c-.32.13-.63.28-.92.43h0c-8.4,4.35-6.06,16.94-5,21.17h0c-3.32-12.24-.92-18.24,3.38-20.95h0l.26-.16h0l.3-.17h0l.34-.19h0a9.1,9.1,0,0,1,.85-.37h0l.44-.17h0a15.08,15.08,0,0,1,2.22-.58h0c.35-.07.7-.12,1.05-.16h0l.53-.06h1.91a19.051,19.051,0,0,1,2.14.08h0c.64.05,1.28.12,1.89.2h0a40.44,40.44,0,0,1,7.79,1.73Z" fill="#303030"/>
        <path id="Path_1372" data-name="Path 1372" d="M445.59,308.74a61.83,61.83,0,0,0-6-1.74h0l-.51-.12a38.236,38.236,0,0,0-5.91-.9h-1.98a17.251,17.251,0,0,0-4.45.59h0l-.44.14a.351.351,0,0,0-.11,0,11.548,11.548,0,0,0-1.85.78l-.36.2c-.26.16-.51.31-.75.48l-.42.32-.22.18a7.807,7.807,0,0,0-.67.62c-.17.17-.34.35-.5.54-4.76,5.6-2.57,15.69-1.53,19.43-2.34-7.93-2.33-13.34-.9-16.95l.06-.16a10.493,10.493,0,0,1,.89-1.7c.16-.25.33-.48.5-.7l.17-.2c.16-.19.32-.37.49-.54s.33-.33.5-.48a8.446,8.446,0,0,1,.75-.59l.34-.23.28-.17.27-.16a7.871,7.871,0,0,1,.76-.4l.25-.11.3-.12a16.171,16.171,0,0,1,5.16-1,26.777,26.777,0,0,1,3,0,3.209,3.209,0,0,1,.76.06h.3l.75.08a43.842,43.842,0,0,1,5.69,1.11l.35.1a46.237,46.237,0,0,1,5.03,1.64Z" fill="#303030"/>
        <path id="Path_1373" data-name="Path 1373" d="M419.44,329.72h-.1c-1.3-2.36-4.68-9.77-.62-16.8C418.45,313.47,415.32,319.94,419.44,329.72Z" fill="#303030"/>
        <path id="Path_1374" data-name="Path 1374" d="M419.57,311.82c-.2.16-.38.32-.56.48-7,6.39-2.42,15.09-.68,17.83h0c-7.73-10.82-1.18-16.61.78-18A4.2,4.2,0,0,1,419.57,311.82Z" fill="#303030"/>
        <path id="Path_1375" data-name="Path 1375" d="M416.66,330c.14.24.29.49.45.73h0C417,330.56,416.84,330.31,416.66,330Z" fill="#303030"/>
        <path id="Path_1376" data-name="Path 1376" d="M432.59,306c-.76.14-1.49.27-2.19.42l-.47.11-.22.05h0c-.55.13-1.08.27-1.6.41l-1.07.31-.52.15-1.2.4-.57.22h0a10.366,10.366,0,0,0-1,.42c-.62.26-1.2.53-1.75.82-.32.16-.62.33-.92.5h0c-.37.22-.72.43-1.06.66-5.6,3.73-6.4,8.67-5.73,12.78a19.52,19.52,0,0,0,1.42,4.74h0c.31.69.61,1.28.87,1.76a23.73,23.73,0,0,1-2.61-6.15,11.57,11.57,0,0,1,.55-8,13.75,13.75,0,0,1,5.83-5.84l.33-.18h0c.52-.29,1.06-.56,1.61-.8l.59-.26h0c.36-.16.72-.3,1.09-.44h0c.49-.19,1-.36,1.47-.51.21-.08.42-.14.63-.2,1.07-.33,2.1-.58,3-.77h.17l.59-.12A17.168,17.168,0,0,1,432.59,306Z" fill="#303030"/>
        <path id="Path_1377" data-name="Path 1377" d="M415.89,331s-14.59-24.13,18.52-25.21C434.41,305.8,400.17,304.69,415.89,331Z" fill="#303030"/>
        <path id="Path_1378" data-name="Path 1378" d="M414.78,331.34s-19.18-30.46,28.16-23.93C442.94,307.41,395.71,298.87,414.78,331.34Z" fill="#434342" opacity="0.5" style="mix-blend-mode: screen;isolation: isolate"/>
        <path id="Path_1379" data-name="Path 1379" d="M441.91,329.93s7.87-16.9,20.23-10.21C462.14,319.72,451.73,313.65,441.91,329.93Z" fill="#303030"/>
        <path id="Path_1380" data-name="Path 1380" d="M413.29,331.45s-16.08-25.22,17.76-26C431.05,305.43,396.61,303.53,413.29,331.45Z" fill="#151515"/>
        <path id="Path_1381" data-name="Path 1381" d="M412,333.07s-16.76-25.53,19.08-25.84C431.05,307.23,395.38,305.22,412,333.07Z" fill="#151515"/>
        <path id="Path_1382" data-name="Path 1382" d="M429.42,311.44a12,12,0,0,0-2.69,4.54,3.539,3.539,0,0,0-.15.46,18.913,18.913,0,0,0-.65,2.75h0a28.753,28.753,0,0,0-.36,4.5h0a35.489,35.489,0,0,0,.33,4.85h0a26.5,26.5,0,0,1-.21-11.13h0a10.07,10.07,0,0,1,2.78-5.22h0A4.591,4.591,0,0,1,429.42,311.44Z" fill="#303030"/>
        <path id="Path_1383" data-name="Path 1383" d="M426,317.3s2.72-4.43,6.83-5.51C432.8,311.79,428.48,312.24,426,317.3Z" fill="#434342" opacity="0.5" style="mix-blend-mode: screen;isolation: isolate"/>
        <path id="Path_1384" data-name="Path 1384" d="M428.83,314.31a11.34,11.34,0,0,0-2.07,4.68S427.12,315.51,428.83,314.31Z" fill="#434342" opacity="0.5" style="mix-blend-mode: screen;isolation: isolate"/>
        <path id="Path_1385" data-name="Path 1385" d="M424.13,318.08s2.14-8.06,10.51-9.05a11.38,11.38,0,0,0-10.51,9.05Z" fill="#434342" opacity="0.5" style="mix-blend-mode: screen;isolation: isolate"/>
        <path id="Path_1386" data-name="Path 1386" d="M414.78,311.21s16-10.33,38.66,3.6C453.44,314.81,434.75,302.11,414.78,311.21Z" fill="#434342"/>
        <path id="Path_1387" data-name="Path 1387" d="M456.91,316s-10.47-4.41-15.12,6.49C441.79,322.44,444.44,311,456.91,316Z" fill="#434342" opacity="0.8" style="mix-blend-mode: screen;isolation: isolate"/>
        <path id="Path_1388" data-name="Path 1388" d="M463.36,323.1s-8.12-19.46-24.81-4.08C438.55,319,453,302.13,463.36,323.1Z" fill="#434342" opacity="0.8" style="mix-blend-mode: screen;isolation: isolate"/>
        <path id="Path_1389" data-name="Path 1389" d="M416.76,330.1c.12.21.23.41.36.62h0Z" fill="#303030"/>
        <path id="Path_1390" data-name="Path 1390" d="M436,305.07a56.013,56.013,0,0,0-6.22.63h0a38.9,38.9,0,0,0-3.87.83l-.4.12-.79.23c-.48.16-.94.31-1.38.49s-.65.25-1,.39h0l-.65.31a15.531,15.531,0,0,0-1.77.95c-.3.18-.59.37-.86.57l-.1.07h0a11.7,11.7,0,0,0-4.44,5.9,14.81,14.81,0,0,0-.23,7.66,26.512,26.512,0,0,0,2.5,6.82q-.59-1.07-1.08-2.07h0a29.848,29.848,0,0,1-1.74-4.38,14.75,14.75,0,0,1-.46-8.07,10.21,10.21,0,0,1,3.05-5,4.006,4.006,0,0,1,.38-.34,6.393,6.393,0,0,1,.5-.41h0a13.116,13.116,0,0,1,1.47-1h0c.23-.15.47-.28.72-.41a17,17,0,0,1,1.55-.74h0l1.25-.49a33.647,33.647,0,0,1,6.41-1.54l.9-.12h0A43.835,43.835,0,0,1,436,305.07Z" fill="#303030"/>
        <path id="Path_1391" data-name="Path 1391" d="M423.12,327.13c.11.54.23,1.1.37,1.68h0C423.38,328.43,423.25,327.86,423.12,327.13Z" fill="#303030"/>
        <path id="Path_1392" data-name="Path 1392" d="M443.94,308.55h0l-1.56-.18h-.53c-1-.09-2-.13-2.86-.14h-1.92a11.885,11.885,0,0,0-1.41.11c-12.36,1.31-13.38,10.9-12.85,16.64h0c.08.78.18,1.48.28,2.09-1.3-6.56-.65-11,1.05-14h0a11,11,0,0,1,7.36-5.11c.52-.11,1.05-.21,1.58-.28a23,23,0,0,1,3.86-.18,19.962,19.962,0,0,1,2.26.17h.48l.57.08a28.194,28.194,0,0,1,3.53.73Z" fill="#303030"/>
        <path id="Path_1393" data-name="Path 1393" d="M427.06,326.32a33.369,33.369,0,0,1-.69-9A18,18,0,0,0,427.06,326.32Z" fill="#434342" opacity="0.5" style="mix-blend-mode: screen;isolation: isolate"/>
        <path id="Path_1394" data-name="Path 1394" d="M427.13,322.24s-.77-5.1,1.07-8.67a31,31,0,0,0-1.07,8.67Z" fill="#434342" opacity="0.5" style="mix-blend-mode: screen;isolation: isolate"/>
        <path id="Path_1395" data-name="Path 1395" d="M427.68,320.23s-.31-4.51.87-7.21C428.55,313,427.92,316.7,427.68,320.23Z" fill="#434342" opacity="0.5" style="mix-blend-mode: screen;isolation: isolate"/>
        <path id="Path_1396" data-name="Path 1396" d="M428.27,318.51s-.09-4.53,1-6.53C429.25,312,428.64,315.77,428.27,318.51Z" fill="#434342" opacity="0.5" style="mix-blend-mode: screen;isolation: isolate"/>
        <path id="Path_1397" data-name="Path 1397" d="M428.79,317.37s-.06-4.44,1.88-6.27a26.526,26.526,0,0,0-1.88,6.27Z" fill="#434342" opacity="0.5" style="mix-blend-mode: screen;isolation: isolate"/>
        <path id="Path_1398" data-name="Path 1398" d="M430.23,318.2s1-6.42,4.42-7.09C434.65,311.11,431.78,311.92,430.23,318.2Z" fill="#434342" opacity="0.5" style="mix-blend-mode: screen;isolation: isolate"/>
        <path id="Path_1399" data-name="Path 1399" d="M412.8,332s-12.64-24.16,13.06-26.3C425.86,305.65,399.29,305.88,412.8,332Z" fill="#434342" opacity="0.5" style="mix-blend-mode: screen;isolation: isolate"/>
        <path id="Path_1400" data-name="Path 1400" d="M420.71,326s-1.3-27.24,22.91-18.36C443.62,307.68,419.42,296.7,420.71,326Z" fill="#434342" opacity="0.5" style="mix-blend-mode: screen;isolation: isolate"/>
        <path id="Path_1401" data-name="Path 1401" d="M450.49,332s8.91-1.47,10.91,2.88C461.4,334.85,460.26,329.56,450.49,332Z" fill="#303030"/>
        <path id="Path_1402" data-name="Path 1402" d="M451.38,332.78s7.6-1.48,9.3,2.88C460.68,335.66,459.71,330.37,451.38,332.78Z" fill="#303030"/>
        <path id="Path_1403" data-name="Path 1403" d="M451.45,333.06s7.67-.91,9.13,3.56C460.58,336.62,459.9,331.27,451.45,333.06Z" fill="#303030"/>
        <path id="Path_1404" data-name="Path 1404" d="M433.39,378.05s2.95.31,3.73-.21a6,6,0,0,0,3.2.21c.89-.37-2.93,2-3.14,3.16C437.18,381.21,435.92,378.42,433.39,378.05Z" fill="#151515" opacity="0.8"/>
        <path id="Path_1405" data-name="Path 1405" d="M517.38,459.74c7.7,2.39-16.74,28.79-33.48,22.76S498,453.71,517.38,459.74Z" fill="#2f353e"/>
        <path id="Path_1406" data-name="Path 1406" d="M598.77,521.33a7.262,7.262,0,0,1-2.2,2.19,52.529,52.529,0,0,1-6,4c-2.43,1.33-7,5.6-7.37,5.75,0,.12-8.32,3-12.39,3.3-3.31.25-14.24-.32-21-2.25a36.829,36.829,0,0,0-4.29-1c-5.94-.89-33.59-3.13-38.11-10.3-3.05-4.81-13.9-26.93-16.67-38.63-1.69-7.13-3.33-14.15-4.46-19l-1.49-6.48,6.53-40.5c3.4,3.4,13.83,15.23,18,29.61s13.75,49.87,15.26,54,30.73,16.85,30.73,16.85a17.071,17.071,0,0,1,10.24-8c3.58-1,8.24-5.38,10.35-7s3.83-1.32,4.08.27a2.6,2.6,0,0,1,0,.79,7.751,7.751,0,0,1-1.65,3.43c-.36.51-.77,1-1.19,1.51l-.28.33c-1,1.2-2.13,2.33-2.9,3.25a11.269,11.269,0,0,0-2.44,4.89,25.822,25.822,0,0,0,6.8.3,2.52,2.52,0,0,1,2.38,1.14c.92,1.21,3.09,1.3,5.76.07,5.3-2.47,6.93-3.62,8.5-4.89,2.41-2,3.87-.49,3.3,1.43a3.931,3.931,0,0,1-.71,1.33,13.1,13.1,0,0,1-1.41,1.42,2.09,2.09,0,0,1,2.63,2.19Z" fill="#efc6b7"/>
        <path id="Path_1407" data-name="Path 1407" d="M497.9,495.62c-1.59-9.48-.15-19.75,6.39-27.17a22.56,22.56,0,0,1,9-6.21c-1.54-5.53-3-10.57-4-14.23-4.16-14.38-14.59-26.21-18-29.61l-6.53,40.5,1.49,6.48c1.13,4.85,2.77,11.87,4.46,19,1.73,7.29,6.59,18.63,10.75,27.3a135.464,135.464,0,0,1-3.56-16.06Z" fill="#d39173"/>
        <path id="Path_1408" data-name="Path 1408" d="M594.82,519.86h0l1-.62h0l.22-.13a13.1,13.1,0,0,0,1.41-1.42,3.931,3.931,0,0,0,.71-1.33c-1.27.83-3.93,2.57-6,4a97.636,97.636,0,0,1-9.43,5.34c.21-.07,1.94-.62,3.91-1.49A82.9,82.9,0,0,0,594.82,519.86Z" fill="#d39173"/>
        <path id="Path_1409" data-name="Path 1409" d="M589.56,524.81c-2.21,1.32-6.29,4.3-6.63,4.46,2.21-.51,10.44-5.25,11.36-5.59a1.44,1.44,0,0,1,1.51.25l.77-.41C597.77,522.59,596.72,520.54,589.56,524.81Z" fill="#d39173"/>
        <path id="Path_1410" data-name="Path 1410" d="M580,504.91a7.75,7.75,0,0,1-1.65,3.43c-.36.51-.77,1-1.19,1.51l-.28.33c-1,1.2-2.13,2.33-2.9,3.25a11.27,11.27,0,0,0-2.44,4.89,2.43,2.43,0,0,0-1.22,0c-.72.15-3,.82-3.33.91,1.59-.64,2.84-4.36,5.67-6.44s5.44-4,7.2-7.87Z" fill="#d39173"/>
        <path id="Path_1411" data-name="Path 1411" d="M561.36,522.8c5.63-2.07,7.52.32,10.6,2a13.479,13.479,0,0,0,5.23,1.83,23,23,0,0,1-6.3-5.08C568.75,518.77,561.36,522.8,561.36,522.8Z" fill="#d39173"/>
        <path id="Path_1412" data-name="Path 1412" d="M563.24,535.56c9.88,1,18.3.19,22.93-2.59a76.21,76.21,0,0,0,8.21-5.63c2.61-1.91,2.09-3.76,1.12-4.28s-1.81,0-4.08,1.25A112.43,112.43,0,0,1,577.47,530Z" fill="#e9b59a"/>
        <path id="Path_1413" data-name="Path 1413" d="M517.38,459.74s-15.32-.44-25.79,8.95a27,27,0,0,0-6.35,8.45s-2.06-15.25-4.49-34.4c-.41-3.32-.84-6.75-1.27-10.23-2.94-23.65,5.43-25.33,5.43-25.33,25.16,1.93,19.07,21.76,25.78,37.16Z" fill="#333"/>
        <path id="Path_1414" data-name="Path 1414" d="M491.59,468.69a27,27,0,0,0-6.35,8.45s-6.69-24.1-2.68-50.21C484.92,435.83,488.12,461.3,491.59,468.69Z" fill="#86c440"/>
        <path id="Path_1415" data-name="Path 1415" d="M356,459.74c-7.7,2.39,16.73,28.79,33.47,22.76S375.44,453.71,356,459.74Z" fill="#2f353e"/>
        <path id="Path_1416" data-name="Path 1416" d="M274.63,521.33a7.341,7.341,0,0,0,2.21,2.19,52.48,52.48,0,0,0,6,4c2.43,1.33,7,5.6,7.37,5.75,0,.12,8.33,3,12.39,3.3,3.32.25,13.77-1.47,20.53-3.41,1.64-.46,3.58.33,4.75.15,5.94-.89,33.6-3.13,38.11-10.3,3.05-4.81,13.9-26.93,16.68-38.63,1.69-7.13,3.32-14.15,4.45-19l1.49-6.48-6.52-40.5c-3.4,3.4-13.84,15.23-18,29.61s-13.75,49.87-15.26,54-30.72,16.85-30.72,16.85a17.07,17.07,0,0,0-10.24-8c-3.59-1-8.24-5.38-10.35-7s-3.84-1.32-4.09.27a3,3,0,0,0,0,.79,7.65,7.65,0,0,0,1.65,3.43c.36.51.77,1,1.19,1.51.09.12.18.22.27.33,1.05,1.2,2.14,2.33,2.91,3.25a11.31,11.31,0,0,1,2.43,4.89,25.732,25.732,0,0,1-6.79.3,2.52,2.52,0,0,0-2.39,1.14c-.92,1.21-3.08,1.3-5.75.07-5.31-2.47-6.93-3.62-8.51-4.89-2.4-2-3.86-.49-3.29,1.43a3.93,3.93,0,0,0,.71,1.33,12.861,12.861,0,0,0,1.4,1.42,2.1,2.1,0,0,0-2.63,2.2Z" fill="#efc6b7"/>
        <path id="Path_1417" data-name="Path 1417" d="M375.5,495.62c1.6-9.48.16-19.75-6.39-27.17a22.46,22.46,0,0,0-9-6.21c1.54-5.53,2.95-10.57,4-14.23,4.16-14.38,14.6-26.21,18-29.61l6.52,40.5-1.49,6.48c-1.13,4.85-2.76,11.87-4.45,19C381,491.67,376.11,503,372,511.68a137.407,137.407,0,0,0,3.5-16.06Z" fill="#d39173"/>
        <path id="Path_1418" data-name="Path 1418" d="M278.59,519.86h0l-1-.62h0a1.793,1.793,0,0,0-.22-.13,12.848,12.848,0,0,1-1.4-1.42,3.932,3.932,0,0,1-.71-1.33c1.27.83,3.93,2.57,5.95,4a97.489,97.489,0,0,0,9.44,5.34c-.21-.07-1.94-.62-3.92-1.49A84.85,84.85,0,0,1,278.59,519.86Z" fill="#d39173"/>
        <path id="Path_1419" data-name="Path 1419" d="M283.84,524.81c2.22,1.32,6.3,4.3,6.63,4.46-2.2-.51-10.43-5.25-11.35-5.59a1.44,1.44,0,0,0-1.51.25l-.77-.41C275.63,522.59,276.69,520.54,283.84,524.81Z" fill="#d39173"/>
        <path id="Path_1420" data-name="Path 1420" d="M293.45,504.91a7.65,7.65,0,0,0,1.65,3.43c.36.51.77,1,1.19,1.51.09.12.18.22.27.33,1.05,1.2,2.14,2.33,2.91,3.25a11.31,11.31,0,0,1,2.43,4.89,2.48,2.48,0,0,1,1.23,0c.72.15,3,.82,3.32.91-1.58-.64-2.84-4.36-5.66-6.44s-5.44-4-7.2-7.87Z" fill="#d39173"/>
        <path id="Path_1421" data-name="Path 1421" d="M291.66,520.87A19.4,19.4,0,0,1,281.39,517c-5.32-3.86-3.24-6.09-2.07-5.79s2.62,2,5,3.39c1.46.84,6.47,3.8,9.29,3.86s1.24,1.61,1.24,1.61S294.35,521.25,291.66,520.87Z" fill="#e9b59a"/>
        <path id="Path_1422" data-name="Path 1422" d="M312.05,522.8c-5.63-2.07-7.53.32-10.6,2a13.55,13.55,0,0,1-5.24,1.83,23,23,0,0,0,6.31-5.08C304.66,518.77,312.05,522.8,312.05,522.8Z" fill="#d39173"/>
        <path id="Path_1423" data-name="Path 1423" d="M310.16,535.56c-9.87,1-18.3.19-22.93-2.59a76.907,76.907,0,0,1-8.2-5.63c-2.62-1.91-2.1-3.76-1.12-4.28s1.81,0,4.08,1.25A112.429,112.429,0,0,0,295.94,530Z" fill="#e9b59a"/>
        <path id="Path_1424" data-name="Path 1424" d="M356,459.74s15.31-.44,25.78,8.95a27,27,0,0,1,6.36,8.45s2.05-15.25,4.48-34.4c.41-3.32.85-6.75,1.28-10.23,2.93-23.65-5.44-25.33-5.44-25.33-26,4.45-19.07,21.76-25.77,37.16Z" fill="#333"/>
        <path id="Path_1425" data-name="Path 1425" d="M381.81,468.69a27,27,0,0,1,6.36,8.45s6.69-24.1,2.67-50.21C388.49,435.83,385.29,461.3,381.81,468.69Z" fill="#86c440"/>
        <path id="Path_1426" data-name="Path 1426" d="M485.35,542.84c-14.22,3.18-34.28,9.94-50.09,10.18-31.61.48-44.72-8.45-47-11.78-2.12-2.76,2.34-22.36,2-43.09-.58-32.41-1.77-91-1.77-91a124.472,124.472,0,0,1,17.75-6.36,88.439,88.439,0,0,1,11-2.44A18.27,18.27,0,0,0,415.1,402c-1.48,4.54,9.56,8.65,21.34,8.65s21.35-3.87,21.35-8.65c0-1.59-.36-2.31-1.71-4.69,2.52.29,3.91,1,6.53,1.45a33,33,0,0,1,6.95,2l15.35,6.42s-.06,45.16-1.33,65.07C482.35,491.49,485.35,542.84,485.35,542.84Z" fill="#333"/>
        <path id="Path_1427" data-name="Path 1427" d="M526.39,535.93c-17-4.44-46.59,9.61-56.2,9.61l-33.6,5.93L403,545.54c-9.61,0-39.19-14-56.2-9.61s11.09,44.37,46.59,56.94c17.71,6.27,68.7,6.27,86.41,0C515.3,580.3,543.4,540.36,526.39,535.93Z" fill="#35506b"/>
        <path id="Path_1428" data-name="Path 1428" d="M526.39,535.93c-17-4.44-46.59,9.61-56.2,9.61,10.64,1.44,35.89-3.11,35.89-3.11s-6.7,1.67-13.06,9.7S439.46,603,439.46,603,413.68,579.59,407,570.55s-20.42-20.42-24.1-24.78c-2.32-2.74,3.47-2.16,16.36-.68-12.1-2.36-37.26-13.09-52.46-9.16-17,4.43,11.09,44.37,46.59,56.94,17.71,6.27,29.9,9.78,37.66,11.73l-.06,2.32s1.74-.19,5.6-1a53.4,53.4,0,0,0,5.61,1l-.07-2.32c7.77-2,20-5.46,37.67-11.73C515.3,580.3,543.4,540.36,526.39,535.93Z" fill="#5b7893" opacity="0.55"/>
        <path id="Path_1429" data-name="Path 1429" d="M553.24,555.15a35.641,35.641,0,0,1-8.08,12C533.69,579,514.76,588,506.05,592.26a174.534,174.534,0,0,1-20.58,8.36c-17.58,6-34.08,9.35-38.39,10.73-5,1.61-14.17,6.22-21.28,8.41-.92.29-1.81.53-2.64.73-.55.12-1.09.23-1.59.31-7.21,1.1-25.52-3.89-32.18-3.89S378.3,622.45,375,620.8s-2.21-8.34,0-9.45a5.31,5.31,0,0,1,2.77-6.64,32.807,32.807,0,0,1,7.29-3.09,14,14,0,0,1,4.92-.24c4.81.52,21.95,3.12,25.69,2.32a2.138,2.138,0,0,0,.37-.1c2.78-1.11,6.1-7.22,11.65-7.22,3.24,0,5.35-.37,9.66-3,3.06-1.87,7.2-4.88,13.64-9.72,1.54-1.15,3.24-2.55,5.08-4.1,13.25-11.29,33.79-31.84,56.06-42a66.83,66.83,0,0,1,18.41-5.63c6.4-.88,18.88,2.41,22.82,11C554.85,546.14,555.1,550.22,553.24,555.15Z" fill="#efc6b7"/>
        <path id="Path_1430" data-name="Path 1430" d="M553.33,542.84a21,21,0,0,0-8.17-2.68c-11.76-1.43-18.06-5.57-33.06-2.68a66.83,66.83,0,0,1,18.41-5.63C536.91,531,549.39,534.26,553.33,542.84Z" fill="#e9b59a"/>
        <path id="Path_1431" data-name="Path 1431" d="M485.47,600.62c-17.58,6-34.08,9.35-38.4,10.73-5,1.61-14.16,6.22-21.27,8.42a124.358,124.358,0,0,0-10.16-16.07,2.132,2.132,0,0,0,.37-.1c2.78-1.11,6.1-7.21,11.65-7.21,3.24,0,5.36-.38,9.66-3,3.05-1.87,7.2-4.89,13.64-9.72,1.54-1.15,3.24-2.55,5.07-4.11-6.68,8.79-7.64,16.07,3.77,18.15C467,599,477.05,600,485.47,600.62Z" fill="#d39173"/>
        <path id="Path_1432" data-name="Path 1432" d="M545.16,567.13C533.68,579,514.76,588,506,592.26c-23.29,11.44-53,17.16-59,19.09-5.59,1.81-16.6,7.45-23.91,9.13a55.759,55.759,0,0,1-7.48-4.74c-4.12-3.54-21-10.39-30.65-14.13a14.251,14.251,0,0,1,4.92-.23c5,.55,23.3,3.32,26.06,2.22s6.1-7.21,11.65-7.21c3.24,0,3.14,5.27,7.45,2.61,7.43,2,18.91,2.71,33.47,1.34C483.78,598.92,522.14,585.61,545.16,567.13Z" fill="#d39173"/>
        <g id="Group_76" data-name="Group 76" opacity="0.3">
          <line id="Line_10" data-name="Line 10" x2="0.33" y2="40.85" transform="translate(437.45 551.46)" fill="none" stroke="#fff" stroke-miterlimit="10" stroke-width="1.06" opacity="0.44"/>
          <path id="Path_1433" data-name="Path 1433" d="M444.48,549.79s2,7.37.67,11.05-7.37,8.37-7.37,8.37" fill="none" stroke="#fff" stroke-miterlimit="10" stroke-width="1.06" opacity="0.44"/>
        </g>
        <path id="Path_1434" data-name="Path 1434" d="M342.69,531.85c-8.86-1.22-29.4,5.55-22.74,23.3s35.88,31.26,47.2,37.17c23.1,12,52.86,17.37,59,19s18.31,8.32,25.52,9.43,25.51-3.89,32.16-3.89,11.1,5.55,14.42,3.89,2.22-8.32,0-9.43a5.33,5.33,0,0,0-2.77-6.66c-4.44-2.22-7.21-3.88-12.2-3.33s-23.29,3.33-26.07,2.22-6.1-7.21-11.65-7.21-10.73-1.11-26.26-12.75S374.85,536.29,342.69,531.85Z" fill="#efc6b7"/>
        <path id="Path_1435" data-name="Path 1435" d="M320.07,542.84a21,21,0,0,1,8.18-2.68c11.75-1.43,18.06-5.57,33.05-2.68a66.761,66.761,0,0,0-18.4-5.63C336.5,531,324,534.26,320.07,542.84Z" fill="#e9b59a"/>
        <path id="Path_1436" data-name="Path 1436" d="M593.91,515.45a19.46,19.46,0,0,1-9.54,5.45c-6.36,1.64-6.75-1.38-5.78-2.09s3.22-.74,5.81-1.72c1.58-.6,7.05-2.57,8.89-4.71s2,.07,2,.07S595.92,513.63,593.91,515.45Z" fill="#e9b59a"/>
        <path id="Path_1437" data-name="Path 1437" d="M448,515.24l-.54-2.08a10.809,10.809,0,0,0-1.8-4.09,10.58,10.58,0,0,0-4.52-3.26,12.23,12.23,0,0,0-6.73-.89,8.54,8.54,0,0,0-7,5.14,9.779,9.779,0,0,0-.69,3.86,10,10,0,0,0,1.82,6.15,8.59,8.59,0,0,0,7.87,3.75,8.16,8.16,0,0,0,7-4.94,8,8,0,0,0,1-3.54,6.37,6.37,0,0,0-2-4.73,7.9,7.9,0,0,0-4.85-2.36,6.07,6.07,0,0,0-5.61,2.12,5.31,5.31,0,0,0-.2,6.12,4.65,4.65,0,0,0,3.46,2.35c2.19.26,3.65-.33,4.56-2.39a2.22,2.22,0,0,0,.1-1.44,8.87,8.87,0,0,1-.31-1.68,1,1,0,0,1,1.06-1.13.76.76,0,0,1,.66.36,3.75,3.75,0,0,1,.55,1.72,5.85,5.85,0,0,1-4.43,6.22,6.36,6.36,0,0,1-7.63-3.57,7.94,7.94,0,0,1,.43-6.84c1.43-2.86,4-4.08,7.37-3.82a9.18,9.18,0,0,1,5.81,2.68,8.58,8.58,0,0,1,2.73,7.17,10.57,10.57,0,0,1-8.16,9.27,10.27,10.27,0,0,1-11.3-5,11.589,11.589,0,0,1-1.7-6.76c.21-3.48,2.38-8.23,6.85-9.9a11.221,11.221,0,0,1,4.77-.57,14.75,14.75,0,0,1,4.93,1.13,10.55,10.55,0,0,1,6.39,7.82,12.711,12.711,0,0,1,.28,3.14Z" fill="#fff"/>
        <path id="Path_1438" data-name="Path 1438" d="M412.37,511.28l-2.83-1v-.1l.77-.26a1.42,1.42,0,0,0,1.06-1.91c-.14-.69-.34-1.37-.5-2.06a1.891,1.891,0,0,1,0-.58,1,1,0,0,1,.19-.32,1.129,1.129,0,0,1,.24.25,3.064,3.064,0,0,1,.13.43,2.91,2.91,0,0,0,3.4,2.16l1.19-.17c.28,0,.48,0,.46.33a14.23,14.23,0,0,1-1.59,1,4.491,4.491,0,0,1-.65.21,15.775,15.775,0,0,0-1.47.62.57.57,0,0,0,.07,1,4.7,4.7,0,0,0,1.1.35c.44.06.61-.13.65-.59a1.5,1.5,0,0,1,.07-.5c.16.09.32.13.39.23a.87.87,0,0,1-.59,1.37c-.23,0-.45,0-.58.28,0,.06-.23.06-.34,0-.4,0-.8-.11-1.2-.12a.53.53,0,0,0-.42.21.89.89,0,0,1-.68.45c-.08,0-.15.07-.31.15l1.07.3c-.27.14-.48.24-.68.37a1.739,1.739,0,0,0-.5.48h2.5v.08c-.34.17-.67.37-1,.51a3.14,3.14,0,0,0-2.06,3c-.06.65,0,1.32,0,2a1.06,1.06,0,0,1-.14.56,3.62,3.62,0,0,0-.52,1.83q0,.225,0,.45h-.11a1.209,1.209,0,0,1-.18-.28,2,2,0,0,1,.09-1.44,2.59,2.59,0,0,0,.13-1.88,4.23,4.23,0,0,1,.53-3.49c-.16-.21-.31-.13-.44,0a5.493,5.493,0,0,1-.4.43c-.18.14-.39.24-.58.36l-.09-.09a2.517,2.517,0,0,1,.12-.29,3.132,3.132,0,0,0,.37-.6,3,3,0,0,1,1.31-1.62l.27-.2-.77-.27a1,1,0,0,0-1.37,1,2.248,2.248,0,0,1,0,.44.46.46,0,0,1-.21.28.28.28,0,0,1-.26-.11c-.41-.94-.61-1.66.62-2.34a6.81,6.81,0,0,1,2.94-.75,6.131,6.131,0,0,0,.73-.11Z" fill="#fff"/>
        <path id="Path_1439" data-name="Path 1439" d="M456.24,541a4.567,4.567,0,0,1-.32-.92,22.531,22.531,0,0,1-.28-2.59,3.671,3.671,0,0,1,.3-1.18c.26-.77.59-1.52.8-2.3a1.94,1.94,0,0,0-.25-1.71,1,1,0,0,0-1.71,0,2,2,0,0,0-.24.57,1.131,1.131,0,0,0,0,.4h.09a.346.346,0,0,0,.05-.08c0-.26,0-.58.37-.63a1.07,1.07,0,0,1,1.12.36,1.75,1.75,0,0,1-.19,2,.52.52,0,0,1-.27.15c-1.25.13-2.07,0-2.56-1.33a2.52,2.52,0,0,1,.48-2.82,2.83,2.83,0,0,1,2.94-.85,2.06,2.06,0,0,1,1,.64c1.21,1.52,1.44,2.73.59,4.34-.37.7-.77,1.38-1.12,2.09a6,6,0,0,0-.61,2.93v.86Z" fill="#fff"/>
        <path id="Path_1440" data-name="Path 1440" d="M462,499.86a2.16,2.16,0,0,1-.57,1.1,9.26,9.26,0,0,1-2.47,1.6,3.07,3.07,0,0,0-1.35,1,1.78,1.78,0,0,0,0,1.76,1,1,0,0,0,1.56,0l-.69.06a.61.61,0,0,1-.64-.4,1.14,1.14,0,0,1,1-1.74c1.17-.05,1.82.6,1.95,1.83a2.13,2.13,0,0,1-2.2,2.5,5.216,5.216,0,0,1-1.62-.2,1.92,1.92,0,0,1-1.45-1.62,3.08,3.08,0,0,1,1-3.24,6.191,6.191,0,0,1,1.48-.79c1.09-.48,2.19-.91,3.28-1.38a6.366,6.366,0,0,0,.72-.48Z" fill="#fff"/>
        <path id="Path_1441" data-name="Path 1441" d="M414.6,532.61l.1-.28a1,1,0,0,1,.88-.63.85.85,0,0,1,.93.42,1.19,1.19,0,0,1-.12,1.6,2.06,2.06,0,0,1-1.9.66,1.24,1.24,0,0,1-.9-.63,2.42,2.42,0,0,1,.63-3.35,2.6,2.6,0,0,1,2.58-.49,2.92,2.92,0,0,1,1.76,2.52,3,3,0,0,1-1.16,2.73c-1.16,1-2.38,2-3.58,2.91a1.89,1.89,0,0,1-.48.21,2.057,2.057,0,0,1,.05-.58,18.513,18.513,0,0,1,1.28-1.64c.58-.66,1.22-1.26,1.8-1.91a2.38,2.38,0,0,0,.67-1.36,1.54,1.54,0,0,0-1.31-1.49,1.27,1.27,0,0,0-1.3,1.23Z" fill="#fff"/>
        <path id="Path_1442" data-name="Path 1442" d="M437.48,487a2.539,2.539,0,0,1,0,.29,6.86,6.86,0,0,1-2,3.58,1.78,1.78,0,0,0-.58,1.92.48.48,0,0,0,.11.24,1.31,1.31,0,0,0,1.53.1.81.81,0,0,0,.25-.85l-.2.32c-.23.38-.38.44-.83.33s-.64-.31-.66-.71a1.38,1.38,0,0,1,1.9-1.42,1.59,1.59,0,0,1,1.24,1.43,3.1,3.1,0,0,1-.45,2.3,2.29,2.29,0,0,1-2.4.89,2.45,2.45,0,0,1-2.06-2,2.86,2.86,0,0,1,1-3.1,18.192,18.192,0,0,0,3-3.18,1.068,1.068,0,0,1,.14-.16Z" fill="#fff"/>
        <path id="Path_1443" data-name="Path 1443" d="M409.46,499.86a6,6,0,0,1,3,3.43c.16.45.33.9.52,1.34a1.6,1.6,0,0,0,1.26.95.78.78,0,0,0,.93-.79,1,1,0,0,0-.09-.22c-.06.05-.15.09-.17.15-.12.26-.21.54-.56.53s-.77,0-1-.44a1.22,1.22,0,0,1-.06-1.3,1.52,1.52,0,0,1,1.41-.7,2.21,2.21,0,0,1,2.09,2,2.63,2.63,0,0,1-2.52,2.81,1.64,1.64,0,0,1-1.45-.78,12.58,12.58,0,0,1-1.34-2.73c-.43-1-.89-2-1.36-3-.19-.38-.44-.72-.66-1.08q0-.085,0-.17Z" fill="#fff"/>
        <path id="Path_1444" data-name="Path 1444" d="M462.25,511.47c.56.88,1.41.37,2.15.59a3.49,3.49,0,0,0-1.53,2l1.53-.2a13,13,0,0,0-2.21,2.63l1.44-.3a.87.87,0,0,1-.38.73,2.8,2.8,0,0,0-.93,1.49.79.79,0,0,0,.27.89c.13.11.27.22.39.34a.51.51,0,0,1-.19.94l-.26.08v.08a1.66,1.66,0,0,1,.81,1.66,5.14,5.14,0,0,1-.53,1.86,3.17,3.17,0,0,1-2.26,1.5,1.39,1.39,0,0,0-.33.1h0a2.42,2.42,0,0,1,.48.48,1.76,1.76,0,0,1,.16.7,1.35,1.35,0,0,0-1.72-.57c-.18-.59.44-1.29,1-1.42a2.33,2.33,0,0,0,1.36-1,3.617,3.617,0,0,1,.36-.42,2.39,2.39,0,0,0,.6-1.87c0-.18-.24-.4-.42-.53-.36-.27-.38-.41,0-.65a.53.53,0,0,0,.2-.86,1,1,0,0,0-.15-.19,1.26,1.26,0,0,1-.53-1.27h-.17a.76.76,0,0,1-.93-.78.29.29,0,0,1,.15-.24,2,2,0,0,0,1.6-2l-1,.16.84-2.09-.95.25c.24-.59.43-1.14.68-1.66C461.83,511.67,462.07,511.6,462.25,511.47Z" fill="#fff"/>
        <path id="Path_1445" data-name="Path 1445" d="M410.92,525.74c-.06.33-.09.58-.15.83a1.282,1.282,0,0,1-.17.26,1.851,1.851,0,0,1-.27-.19,2.668,2.668,0,0,1-.36-.47,4,4,0,0,1-.51-1.23,1.4,1.4,0,0,1,.39-.91,3.69,3.69,0,0,0,.74-2.88.9.9,0,0,0-.07-.22l-.37.91a1.24,1.24,0,0,1-.09-1.14,1.879,1.879,0,0,1,.3-.6c.26-.39.56-.76.81-1.16s.37-.68.55-1a2.671,2.671,0,0,1,.18-.28h.13a9,9,0,0,1-.12,1.06,3.142,3.142,0,0,1-.35.8c-.18.34-.39.65-.23,1.06a.68.68,0,0,0,.72.46l-.16-.19c0-.05-.07-.11-.14-.22.56-.17.69.45,1.16.51l-.66-.62a.51.51,0,0,1,.67,0,2.671,2.671,0,0,1,.66.64c.2.28,0,.52-.31.5-.53,0-1-.06-1.58-.09h-.26c-.2.34-.38.71-.56,1.07l.06.1c.54-.68,1.37-.6,2.08-.86-.34.47-1,.61-1.17,1.24h.36l-.6,1.1h-.11l-.06-.94h-.1l-.17.55h-.07l-.07-.3a2.18,2.18,0,0,0-.54,2.75,4.993,4.993,0,0,0,.08-.6.861.861,0,0,1,.26-.77c.07-.06.05-.22.1-.32a2.293,2.293,0,0,1,.27-.27c.07.1.18.18.2.29s.05.52.08.79a.6.6,0,0,0,.52.59,1.33,1.33,0,0,1,1,.83.75.75,0,0,1-.12.85,2.6,2.6,0,0,0-.25.87l.13.08.45-.36a4.244,4.244,0,0,1,.46-.27l.07.1c-.18.32-.34.65-.54.95a3.34,3.34,0,0,0-.59,1.52,1.64,1.64,0,0,1-.26.51,1.7,1.7,0,0,1-.17-.51c-.06-1.1-.11-2.2-.14-3.3a1.23,1.23,0,0,0-.46-.92Z" fill="#fff"/>
        <path id="Path_1446" data-name="Path 1446" d="M427.12,530.93l.18-.7-.77-.51a.63.63,0,0,0-1.06.43.39.39,0,0,0,.19.46,3.74,3.74,0,0,0,1.65.54l.4.07-.3.19a3.58,3.58,0,0,0-2,2.63,1.14,1.14,0,0,1-.6.78h-.11a2.522,2.522,0,0,1,.06-.48A2.33,2.33,0,0,0,425,533c-.12-.46-.42-.59-.84-.35a1.5,1.5,0,0,0-.67,1.72,3,3,0,0,0,.15.57,1.73,1.73,0,0,1-.92,1.93,4,4,0,0,0-.77.77c-.08.09-.13.19-.23.33a1.42,1.42,0,0,1,.72-1.48,1.18,1.18,0,0,0,.67-1.42.38.38,0,0,0-.1-.25.75.75,0,0,1-.29-.79,7.756,7.756,0,0,1,.2-1.28,1.59,1.59,0,0,1,1.68-1.15,3.657,3.657,0,0,1,1,.41l.43-.52c-.5-.13-1-.23-1.52-.39a9.362,9.362,0,0,1-1.26-.54.28.28,0,0,1-.15-.23c0-.06.13-.14.21-.16a3.77,3.77,0,0,0,1.76-1.09,1.36,1.36,0,0,1,1.45,0,1.7,1.7,0,0,0,1.24.49,2,2,0,0,1,.34,0c.18,0,.21.13.11.26-.24.32-.49.63-.74.94A.949.949,0,0,1,427.12,530.93Z" fill="#fff"/>
        <path id="Path_1447" data-name="Path 1447" d="M451.1,523.41l.22-1a1.11,1.11,0,0,0-.88.45.72.72,0,0,1,.46-.85,3.061,3.061,0,0,0,1.53-.87.348.348,0,0,0,.18-.08l-.17.42a5.14,5.14,0,0,0-.32,4,4.711,4.711,0,0,1,.14,1.12l-1.74-1.17.82.06a1.7,1.7,0,0,0-.72-1.33,1.81,1.81,0,0,0-1.48-.27,8,8,0,0,0,.68-2.84l-.11.06a4.51,4.51,0,0,1-1.24,2.14,1.82,1.82,0,0,0-.33,1.44,6,6,0,0,0,.09.71l-2.1-.24a.382.382,0,0,1,.39-.41.57.57,0,0,0,.58-.45,4.29,4.29,0,0,1,1.46-2,4.28,4.28,0,0,0,1.26-3.17,2.452,2.452,0,0,1,0-.27.19.19,0,0,1,.14-.11.487.487,0,0,1,.14.11.469.469,0,0,1,0,.17c.06.84.13,1.67.16,2.51a9.892,9.892,0,0,1-.08,1.33c0,.39,0,.44.35.48Z" fill="#fff"/>
        <path id="Path_1448" data-name="Path 1448" d="M425.63,501l1.6.53c.38-.29.26-.65.21-1a.5.5,0,0,1,.37-.63.705.705,0,0,1,.59.48v.27a11.69,11.69,0,0,1,1.24-.75,9.728,9.728,0,0,1,1.38-.44,5.812,5.812,0,0,0-.33-.59,1.19,1.19,0,0,1-.12-1.16,9.751,9.751,0,0,0,.28-1.61,1.639,1.639,0,0,1,.21.37,2.921,2.921,0,0,1,0,.59,3.32,3.32,0,0,0,.68,2.52,1.18,1.18,0,0,1,.11.39,1.07,1.07,0,0,1-.41.1,2.52,2.52,0,0,0-2.28.66c-.45.39-.92.76-1.38,1.13a.721.721,0,0,1-.27.12,3.643,3.643,0,0,0-.8.06,3.026,3.026,0,0,1-.11.67,1.88,1.88,0,0,1-.78,1.14,7.65,7.65,0,0,0-2.67,4.63c-.15.59-.23,1.19-.36,1.78,0,.09-.11.17-.16.25h-.11l-.06-1c0-.61-.05-1.21-.06-1.82a2.226,2.226,0,0,1,.1-.43l.38.27c.21-.41.44-.85.65-1.29a7.94,7.94,0,0,1,1.76-2.64,2.569,2.569,0,0,0,.64-1,1.34,1.34,0,0,0-.12-.77,5.067,5.067,0,0,0-.3-.67Z" fill="#fff"/>
        <path id="Path_1449" data-name="Path 1449" d="M452.82,499.56a3.66,3.66,0,0,1,1.78-.86l.07.07a3.749,3.749,0,0,1-.51.6,2.11,2.11,0,0,0-.81,1.77,1.44,1.44,0,0,1-1,1.3c-1.06.53-1.08.53-.93,1.69a.82.82,0,0,1-.31.9,1,1,0,0,1-1,0,3,3,0,0,1-.56-.45,1,1,0,0,0-1-.28,2.9,2.9,0,0,0,.58.48,1.16,1.16,0,0,1,.65,1.27,4,4,0,0,0,.07.83c-.26.13-.36-.05-.41-.24a4.7,4.7,0,0,0-1.32-2.09c-.13-.15-.33-.24-.43-.4a4.29,4.29,0,0,1-.33-.72.52.52,0,0,1,.26-.13,10.126,10.126,0,0,1,1.09.25,8.221,8.221,0,0,1,.83.3,3.852,3.852,0,0,0,.63.27.51.51,0,0,0,.46-.08.54.54,0,0,0,.07-.49.59.59,0,0,1,0-.79h0a5.429,5.429,0,0,1,.92-.61c.3-.14.65-.16.76-.54s.18-.64.25-1,.11-.74.17-1.11Z" fill="#fff"/>
        <path id="Path_1450" data-name="Path 1450" d="M459.85,514.31a3.94,3.94,0,0,1,.07-2.38,3,3,0,0,1,1.16-1.63,3,3,0,0,0,1.22-2.25c0-.24.05-.48.07-.71s.24-.49.52-.34a1.16,1.16,0,0,1,.53.52,2.85,2.85,0,0,1-.81,3.39,3.871,3.871,0,0,1-.7.43,3.62,3.62,0,0,0-2,2.56A1.045,1.045,0,0,1,459.85,514.31Z" fill="#fff"/>
        <path id="Path_1451" data-name="Path 1451" d="M461.85,506.87a2,2,0,0,1-1.16,2.59,4.209,4.209,0,0,1-2.17.12.72.72,0,0,1-.34-.21c-.24-.22-.45-.46-.68-.68a1.9,1.9,0,0,0-1.23-.62c-.09,0-.16-.07-.25-.1v-.12a7.214,7.214,0,0,0,.92.11,14.776,14.776,0,0,0,2.66,0,6,6,0,0,0,1.69-.79Z" fill="#fff"/>
        <path id="Path_1452" data-name="Path 1452" d="M426.36,494.1c.6.27.93-.17,1.37-.4a1.47,1.47,0,0,1-1.11,1.24c-.2.06-.34.13-.19.42l2.14-1.11a5.774,5.774,0,0,0-.22.73,4.76,4.76,0,0,0,.38,2.58c.13.37.29.72.43,1.09a3.479,3.479,0,0,1,.1.44l-1.9-.76c.18-.21.2-.22,1.15-.16a5.55,5.55,0,0,1-.78-2.57c-1.05.11-1.54,1.06-2.4,1.44a7.6,7.6,0,0,0,.28-.75,6.925,6.925,0,0,0,.24-1c0-.24.06-.49-.29-.6-.17-.05-.16-.24,0-.35a5.847,5.847,0,0,1,.76-.45c.39-.18.8-.32,1.2-.48l.06.12Z" fill="#fff"/>
        <path id="Path_1453" data-name="Path 1453" d="M459.28,533.25a7.16,7.16,0,0,0-.64-2.77c0-.09,0-.22,0-.33a.779.779,0,0,1,.24.19c.23.34.44.7.69,1.11a6.18,6.18,0,0,0,.7-2.34,3.94,3.94,0,0,0-.68-2.25l.1-.09a1.369,1.369,0,0,1,.46.14,1.75,1.75,0,0,1,.82,1.32,3.744,3.744,0,0,1,0,.58,1.5,1.5,0,0,0,.41,1.23,2.112,2.112,0,0,1,.18.27l-.28.17a1.57,1.57,0,0,0-.89,1.3,1.7,1.7,0,0,1-1.11,1.47Z" fill="#fff"/>
        <path id="Path_1454" data-name="Path 1454" d="M415.32,522.17c-.28.21-.53.43-.81.61-.1.06-.27,0-.4,0a1.5,1.5,0,0,1,.16-.34c.25-.31.55-.59.78-.92a9.105,9.105,0,0,0,.46-.94,1,1,0,0,1,.31-.34,4.406,4.406,0,0,0,.49,2.89,3.29,3.29,0,0,0,.94-1.95,4.906,4.906,0,0,1,.05-.86.36.36,0,0,1,.16-.27c.32-.1.66-.16.92-.22l-.09,1.43c-.32-.19-.27-.55-.31-.86-.29,0-.3.19-.32.38a15.931,15.931,0,0,1-.2,1.84,2.44,2.44,0,0,1-.49,1,1.14,1.14,0,0,0-.21.83c0,.17-.06.5-.11.5-.3,0-.19-.26-.26-.43a1,1,0,0,0-.18-.39,2.59,2.59,0,0,1-.85-1.82.539.539,0,0,0,0-.1Z" fill="#fff"/>
        <path id="Path_1455" data-name="Path 1455" d="M423.87,522.21c-.37-.27-.84-.41-.93-1,0-.16-.26-.31-.43-.41a.77.77,0,0,1-.38-.64,2.54,2.54,0,0,0-.25-.81,9.527,9.527,0,0,0-.52-.91c-.46.36-.48,1.16-1.27,1.2V519h-.63c.07-.14.09-.27.17-.3a3.09,3.09,0,0,0,1.4-1.95c.09-.26.13-.54.23-.79s.16-.18.25-.26a1,1,0,0,1,.15.28,8,8,0,0,0,1.08,3.93c.15.24.23.52.38.77s.46.7.69,1l.18.31Z" fill="#fff"/>
        <path id="Path_1456" data-name="Path 1456" d="M445.37,526c-.39,1.25-.53,1.15-.17,3.3-.29,0-.52-.42-.52-.86a8.292,8.292,0,0,0-.06-1.1,3,3,0,0,0-1.35,1.31l-.09-.34h-.11a5.151,5.151,0,0,1-1.71.84,1.34,1.34,0,0,0-1,.92c-.47-.25-.94-.48-1.4-.74-.1-.06-.14-.21-.21-.31.1,0,.21-.08.3-.06a1.08,1.08,0,0,0,.86-.24,1.23,1.23,0,0,1,.74-.29,6.271,6.271,0,0,0,4.47-2.24Z" fill="#fff"/>
        <path id="Path_1457" data-name="Path 1457" d="M456.76,526.59l.17-.41c.14.2.24.36.36.5s.24.3.36.46a1.509,1.509,0,0,1,.11.22c-.08,0-.16.09-.24.08a2.12,2.12,0,0,1-1.76-1.25,2.666,2.666,0,0,1-.09-.26,1,1,0,0,0-1.59-.47c-.16.12-.32.26-.49.4l-1.46-1.55,1.13-1c0,.23-.06.48-.06.72a.72.72,0,0,0,.62.85.56.56,0,0,0,.47-.14c.52-.69,1.17-.79,1.63.27a2.9,2.9,0,0,1,.24.68,1.24,1.24,0,0,0,.6.9Z" fill="#fff"/>
        <path id="Path_1458" data-name="Path 1458" d="M441.53,494.31l.34-1.68a1.53,1.53,0,0,1,1,.4,2.21,2.21,0,0,0,2.28.35,7.241,7.241,0,0,1,.8-.21.37.37,0,0,1,.29.07l-.18.14a1.52,1.52,0,0,0-.78,1.4.5.5,0,0,1-.26.49,1.37,1.37,0,0,0-.72,1.06,1.61,1.61,0,0,1-.34.66.48.48,0,0,1-.31.11.27.27,0,0,1-.21-.12.677.677,0,0,1,.09-.23c.04-.08.23-.37.33-.57a4.777,4.777,0,0,1,.22-.45,3.05,3.05,0,0,0,.46-1.69,8.21,8.21,0,0,1-1.13-.09,1.45,1.45,0,0,1-.69-.39c-.21-.22-.3-.17-.43.05S442,494.28,441.53,494.31Z" fill="#fff"/>
        <path id="Path_1459" data-name="Path 1459" d="M421.32,503.3a8.571,8.571,0,0,0-.46.76c-.08.17-.13.42-.34.31s-.14-.49-.07-.54c.41-.27.23-.68.3-1s.05-.55.09-.82c0-.09.1-.16.2-.22.09.62.1,1.23.84,1.49.07-.25.11-.48.19-.68.16-.39.32-.78.51-1.16s.24-.33.68-.29c-.15.27-.28.54-.43.79a2.27,2.27,0,0,0-.29,1.25c0,.52,0,1.05-.05,1.57a.861.861,0,0,1-.06.23l-.4,1.39s-.15-.06-.17-.13a1.74,1.74,0,0,1-.06-1.31,1,1,0,0,0,0-.5,3.622,3.622,0,0,0-.14-.67,2.547,2.547,0,0,0-.34-.47Z" fill="#fff"/>
        <path id="Path_1460" data-name="Path 1460" d="M446,530.1l1.39.25a4.4,4.4,0,0,0-1.59,3.57c-.34.09-.37.07-.39-.21,0-.46,0-.46-.49-.6l.48-1.19h-2v-.46c.3,0,.58.09.86.09a2.29,2.29,0,0,0,1.52-.63C446.06,530.69,446.36,530.47,446,530.1Z" fill="#fff"/>
        <path id="Path_1461" data-name="Path 1461" d="M432.43,531.32c.24-.33.44-.61.65-.88a.29.29,0,0,1,.16-.11,13.745,13.745,0,0,1,1.8-.19,1.66,1.66,0,0,1,.82.36.84.84,0,0,0,1,.09,1,1,0,0,1,1.32.15c.39.36.52.33.85-.08a1,1,0,0,1,.32-.23,2.4,2.4,0,0,1-.55,1.27.38.38,0,0,1-.65-.07c-.45-.73-.82-.83-1.62-.44-.46.22-.69.17-.93-.24a.856.856,0,0,0-1.17-.42,2.11,2.11,0,0,0-.34.16c-.25.15-.38.45-.75.45A4.441,4.441,0,0,0,432.43,531.32Z" fill="#fff"/>
        <path id="Path_1462" data-name="Path 1462" d="M435.34,529.76h-1.57a10.655,10.655,0,0,0-1.57.08,1.91,1.91,0,0,1-1.47-.29.62.62,0,0,0-.73,0,5.534,5.534,0,0,1-1.13.5,1.168,1.168,0,0,1,.15-.27,20.238,20.238,0,0,1,1.54-1.41.5.5,0,0,1,.5,0,5.94,5.94,0,0,0,4,1.23h.29Z" fill="#fff"/>
        <path id="Path_1463" data-name="Path 1463" d="M428.21,491.33l.22,1.89a2.29,2.29,0,0,0-1.8.16,3.46,3.46,0,0,0-1.51,1.35,2.62,2.62,0,0,1-.28.3l-.1-.06c0-.44.05-.88.09-1.32a1.33,1.33,0,0,0-.28-1,7.6,7.6,0,0,1-.46-.78l.09-.08,1.51,1.47c.53-.21,1.16-.44,1.78-.7a.6.6,0,0,0,.22-.27c.14-.31.26-.63.4-.94Z" fill="#fff"/>
        <path id="Path_1464" data-name="Path 1464" d="M434.52,499.08c.54-.4,1-.87,1.78-.73a3.367,3.367,0,0,0,.55,0c.31,0,.56,0,.68-.4a1,1,0,0,1,.52-.47,2.49,2.49,0,0,0,1-.8c.05-.07.14-.09.21-.14s.08.21,0,.27a4.059,4.059,0,0,1-.75,1.09,1.4,1.4,0,0,0-.54,1.18,1.47,1.47,0,0,1-.1.4c-.13,0-.26-.1-.39-.13a12.993,12.993,0,0,0-1.36-.26C435.65,499.05,435.1,499.08,434.52,499.08Z" fill="#fff"/>
        <path id="Path_1465" data-name="Path 1465" d="M427.86,528.89l.54-.13a1.742,1.742,0,0,0-.3-.09c-.28,0-.57-.06-.86-.06a1.12,1.12,0,0,1-1-.5.429.429,0,0,0-.09-.1h-.1c-.14.33-.25.7-.76.77a1.7,1.7,0,0,1,.09-.33,3.79,3.79,0,0,0,.38-2.56,1.224,1.224,0,0,1,.12-.31h.09c.08.36.17.72.25,1.08a1.78,1.78,0,0,0,1.71,1.51,2.691,2.691,0,0,1,1.05.54c.07,0,.1.16.15.25C428.74,529.26,428,529.23,427.86,528.89Z" fill="#fff"/>
        <path id="Path_1466" data-name="Path 1466" d="M447.67,500.6a9,9,0,0,0-1.1.82,1.42,1.42,0,0,1-1,.39h-.17c-.44-.4-.84-.14-1.25.07-.13.06-.27.1-.44.16,0-.31.1-.56.11-.82s-.08-.43-.39-.44a4,4,0,0,1-1-.21c.1-.06.2-.17.31-.18a9.343,9.343,0,0,1,1.05-.11.43.43,0,0,1,.54.39c0,.32.25.42.57.44a3.5,3.5,0,0,0,2.23-.53C447.3,500.47,447.5,500.3,447.67,500.6Z" fill="#fff"/>
        <path id="Path_1467" data-name="Path 1467" d="M443.72,497.53c-1.5.39-1.54,1.56-1.54,2.73-.29.08-.38-.06-.41-.29a3.67,3.67,0,0,1,.3-2,1.338,1.338,0,0,1,.1-.27l-1.41.12-.67-1.32a10.253,10.253,0,0,0,1.72.82,9.853,9.853,0,0,0,1.82.17Z" fill="#fff"/>
        <path id="Path_1468" data-name="Path 1468" d="M443.09,497a4.208,4.208,0,0,0,0-.89.7.7,0,0,0-.36-.4,4.075,4.075,0,0,0-.77-.25,1.623,1.623,0,0,0-.27.08,3.216,3.216,0,0,1-.33.06c.17-.35.31-.65.46-.94a1.13,1.13,0,0,1,2-.14c.05.06.05.16.1.3l-1.22-.47a.67.67,0,0,0,.65.84c.36,0,.41.23.37.47a7.2,7.2,0,0,1-.29,1.08A2.059,2.059,0,0,0,443.09,497Z" fill="#fff"/>
        <path id="Path_1469" data-name="Path 1469" d="M419.74,502.6l-.24-2.37.51-.12v2h.1l.49-.38c-.14.48,0,.92-.32,1.31-.14.14-.06.5-.07.76,0,.45-.08.55-.48.62v-.29a1.82,1.82,0,0,0-.67-1.55c-.11-.09-.15-.29-.22-.44a3.792,3.792,0,0,1,.48.14A3.58,3.58,0,0,1,419.74,502.6Z" fill="#fff"/>
        <path id="Path_1470" data-name="Path 1470" d="M450.74,502.76c-.5.22-.56.21-.73-.18h.45a.756.756,0,0,0-.08-.42,2,2,0,0,1,1.51-2.62,1,1,0,0,1,.35,0,1.53,1.53,0,0,0,0,.3c0,.53-.36.65-.75.83s-.53.8-.59,1.3a4.579,4.579,0,0,1-.14.81Z" fill="#fff"/>
        <path id="Path_1471" data-name="Path 1471" d="M444.32,527.87a.78.78,0,0,1,0,.89,2.4,2.4,0,0,0-.16.27c-.34.59-.34.59.16,1.07,0,0,.08.06.09.1.06.36.12.71.19,1.16-.73-.62-1.28-1.39-2.19-1.55.35-.31.68-.59,1-.89A10.911,10.911,0,0,0,444.32,527.87Z" fill="#fff"/>
        <path id="Path_1472" data-name="Path 1472" d="M453.85,524.3c.42-.4.42-.4.15-1a1.75,1.75,0,0,1,2.41.69,11.1,11.1,0,0,1,.61,1,.88.88,0,0,1,.09.47c-.25-.21-.5-.43-.77-.63s-.58-.36-.94-.59l.42-.17c-.05-.32-.28-.42-.56-.44s-.48,0-.56.36a.63.63,0,0,1-.85.31Z" fill="#fff"/>
        <path id="Path_1473" data-name="Path 1473" d="M437.34,498.09a4.569,4.569,0,0,0-1-.19,11.84,11.84,0,0,0-1.55.17c-.36.05-.71.13-1.06.21l-.07-.13a1.539,1.539,0,0,1,.25-.26c.3-.19.61-.37.92-.55a1.4,1.4,0,0,1,.46-.16h1.65a2.419,2.419,0,0,1,.45.1Z" fill="#fff"/>
        <path id="Path_1474" data-name="Path 1474" d="M444.26,492a1.531,1.531,0,0,0-.26.31.54.54,0,0,0,0,.31.21.21,0,0,0,.2.06.43.43,0,0,0,.22-.22,2.409,2.409,0,0,0,.05-.54,1.58,1.58,0,0,1,.5-1.1c.16-.15.47-.15.71-.21v.1a2.26,2.26,0,0,1-.29.25,1,1,0,0,0-.54.93v.72a.75.75,0,0,1-1.06.71.89.89,0,0,1-.51-.75.7.7,0,0,1,.57-.72,1.31,1.31,0,0,1,.39,0Z" fill="#fff"/>
        <path id="Path_1475" data-name="Path 1475" d="M464.6,521.22a3.49,3.49,0,0,1-1.19-1.52,1,1,0,0,1,1.09-1.43c.07,0,.14.13.17.21a.41.41,0,0,1-.06.2,2.41,2.41,0,0,0-.14,1.73C464.53,520.68,464.56,521,464.6,521.22Z" fill="#fff"/>
        <path id="Path_1476" data-name="Path 1476" d="M424.52,502.83c-.19.68,0,1.43-.61,2a5.449,5.449,0,0,0-.6,1.18c-.06.12-.14.23-.21.35h-.12v-.38c0-.42.14-.84.15-1.26a1.52,1.52,0,0,1,.42-1.12l.67-.7a1.551,1.551,0,0,1,.22-.12Z" fill="#fff"/>
        <path id="Path_1477" data-name="Path 1477" d="M444.11,534.17a1.41,1.41,0,0,1,.42-.12c.37.05.73.15,1.09.21a1.989,1.989,0,0,0,.34,0l1.31-.09-.75,2c-.23-.07-.22-.74.12-1.43-.56-.08-.88.37-1.32.61-.17-.62-.49-1.06-1.2-1.07Z" fill="#fff"/>
        <path id="Path_1478" data-name="Path 1478" d="M422.71,522.32a1.408,1.408,0,0,1,.31,0,4.909,4.909,0,0,1,.73.19.389.389,0,0,1,.33.51,1.73,1.73,0,0,0,0,.6.46.46,0,0,0,.26.27c.51.15.66.32.69,1-.26-.53-.67-.5-1.07-.51a.59.59,0,0,1-.64-.71,1.33,1.33,0,0,0-.33-1q-.148-.168-.28-.35Z" fill="#fff"/>
        <path id="Path_1479" data-name="Path 1479" d="M450.54,508.79l.7,1,1.09-.81.07.06a.474.474,0,0,1-.16.33,2.83,2.83,0,0,0-.95,1.95,2.836,2.836,0,0,1-.14.52c0,.08-.16.13-.24.19-.05-.09-.14-.17-.14-.26a13.079,13.079,0,0,0,0-1.4,6.5,6.5,0,0,0-.24-1.06,2.561,2.561,0,0,0-.13-.53Z" fill="#fff"/>
        <path id="Path_1480" data-name="Path 1480" d="M448.84,539.08l-.6-.81a1.16,1.16,0,0,0-1.05-.51.69.69,0,0,1-.67-.45.76.76,0,0,1,.12-.8.61.61,0,0,1,.91-.08.73.73,0,0,1,.13.28l-.28.13-.3.12c.09.09.18.26.26.25a.939.939,0,0,1,.71.4,9.713,9.713,0,0,1,.81.89,1.409,1.409,0,0,1,.08.56Z" fill="#fff"/>
        <path id="Path_1481" data-name="Path 1481" d="M429.4,528.31c-.36-.11-.72-.21-1.08-.35a4.83,4.83,0,0,1-.92-.43,1.23,1.23,0,0,1-.3-.45,3.332,3.332,0,0,0-.24-.46,4.451,4.451,0,0,0-.49-.48l.23-.35c.44.44.87.93,1.35,1.33a17.919,17.919,0,0,0,1.52,1.06Z" fill="#fff"/>
        <path id="Path_1482" data-name="Path 1482" d="M424.75,489.56a2,2,0,0,1,1.2,1.72,8.119,8.119,0,0,0,.24,1.15,2.4,2.4,0,0,0,.07.35c-.66,0-.79-.18-.81-.77v-.52a2.12,2.12,0,0,0-.39-1.35,3.849,3.849,0,0,1-.31-.58Z" fill="#fff"/>
        <path id="Path_1483" data-name="Path 1483" d="M421.32,521.58c-.18.29-.32.29-.58.14a3.28,3.28,0,0,0-.91-.22l-.57-.1-.64.24v-.09c.2-.29.37-.6.59-.88a.38.38,0,0,1,.34,0,1.55,1.55,0,0,0,1.2.61,2.711,2.711,0,0,1,.57.3Z" fill="#fff"/>
        <path id="Path_1484" data-name="Path 1484" d="M456,498.36a1.43,1.43,0,0,1-1.17,1.44c-.08,0-.17-.07-.25-.1s.1-.14.17-.16c.35-.13.42-.25.33-.62a2.758,2.758,0,0,0-.08-.27,2.812,2.812,0,0,1-.08-.29Z" fill="#fff"/>
        <path id="Path_1485" data-name="Path 1485" d="M446.22,501.86l.9-.15v1.51h-.91a1.91,1.91,0,0,0,.01-1.36Z" fill="#fff"/>
        <path id="Path_1486" data-name="Path 1486" d="M414.81,523.05c.71.58.84,1.47,1.48,2a1.1,1.1,0,0,1-1.3-1A5.833,5.833,0,0,0,414.81,523.05Z" fill="#fff"/>
        <path id="Path_1487" data-name="Path 1487" d="M441,496.37a1.18,1.18,0,0,0,1.1-.22.53.53,0,0,1,.85.24c.07.2,0,.34-.19.36a10.675,10.675,0,0,1-1.26.09C441.28,496.83,441,496.78,441,496.37Z" fill="#fff"/>
        <path id="Path_1488" data-name="Path 1488" d="M451.28,507.55,451,509c-.29-.06-.18-.47-.43-.65l-.26.08c-.12-.17-.23-.31-.33-.46s-.07-.14-.05-.18a.28.28,0,0,1,.17-.11Z" fill="#fff"/>
        <path id="Path_1489" data-name="Path 1489" d="M420.83,519.9l.64-.49c.09.33.19.62.25.92a1.73,1.73,0,0,0,.54,1.08c.1.09.09.31.15.51-.33-.22-.59-.38-.83-.56a.41.41,0,0,1-.13-.28,5.622,5.622,0,0,1,0-.58C421.46,520,421.32,519.91,420.83,519.9Z" fill="#fff"/>
        <path id="Path_1490" data-name="Path 1490" d="M430.08,498a1.79,1.79,0,0,1-1.28,2.13Z" fill="#fff"/>
        <path id="Path_1491" data-name="Path 1491" d="M432.34,498.8c.34,0,.63.08.93.08a.69.69,0,0,1,.7.5,5.422,5.422,0,0,1-1.21,0C432.57,499.32,432.46,499,432.34,498.8Z" fill="#fff"/>
        <path id="Path_1492" data-name="Path 1492" d="M441.61,498.14a2.47,2.47,0,0,1-1.57,1.42.88.88,0,0,1-.26-.06l.21-.17a4.826,4.826,0,0,0,.65-.42c.24-.21.42-.48.64-.71a1.169,1.169,0,0,1,.27-.15Z" fill="#fff"/>
        <path id="Path_1493" data-name="Path 1493" d="M432.81,530.29c-.26.29-.28.69-.74.65s-.44-.42-.72-.65Z" fill="#fff"/>
        <path id="Path_1494" data-name="Path 1494" d="M464.22,510.78a.65.65,0,0,1-.68.81c-.21,0-.34-.12-.22-.38C463.54,510.73,463.6,510.69,464.22,510.78Z" fill="#fff"/>
        <path id="Path_1495" data-name="Path 1495" d="M424.68,533.44l-.68,1.1c-.31-.2-.34-.38-.17-.77S424.13,533.29,424.68,533.44Z" fill="#fff"/>
        <path id="Path_1496" data-name="Path 1496" d="M462,527.34c-.57-.88,0-1.27.63-1.63Z" fill="#fff"/>
        <path id="Path_1497" data-name="Path 1497" d="M417.79,523.29l.8-1.34.31.12a1.37,1.37,0,0,1-1.11,1.22Z" fill="#fff"/>
        <path id="Path_1498" data-name="Path 1498" d="M437.58,529.3a1.47,1.47,0,0,1-1.33.61.32.32,0,0,1-.18-.11.2.2,0,0,1,.06-.14l1.29-.43S437.5,529.26,437.58,529.3Z" fill="#fff"/>
        <path id="Path_1499" data-name="Path 1499" d="M419.19,501.79c-.3,0-.94-.52-.88-.77a.32.32,0,0,1,.28-.14C419,501,419.18,501.24,419.19,501.79Z" fill="#fff"/>
        <path id="Path_1500" data-name="Path 1500" d="M412.1,517.29v-.92c0-.1.15-.18.23-.26.06.08.15.16.16.26a3.833,3.833,0,0,1,0,.68C412.53,517.29,412.42,517.38,412.1,517.29Z" fill="#fff"/>
        <path id="Path_1501" data-name="Path 1501" d="M452.86,522c-.05.51.25,1.09-.37,1.45v-1.18C452.49,522.07,452.64,522,452.86,522Z" fill="#fff"/>
        <path id="Path_1502" data-name="Path 1502" d="M425.25,500.9a1.44,1.44,0,0,1-.48,1.56,2.8,2.8,0,0,1,.48-1.56Z" fill="#fff"/>
        <path id="Path_1503" data-name="Path 1503" d="M451.24,505.08c.38.21.18.5.15.71s-.39.39-.85.34c.07-.13.11-.29.19-.31C451.1,505.73,451.18,505.44,451.24,505.08Z" fill="#fff"/>
        <path id="Path_1504" data-name="Path 1504" d="M449.74,502.75c.17.18.35.28.35.39a.32.32,0,0,1-.37.37c-.1,0-.18-.26-.22-.42S449.61,502.93,449.74,502.75Z" fill="#fff"/>
        <path id="Path_1505" data-name="Path 1505" d="M413.35,513.48a.89.89,0,0,1-1.08-.12.19.19,0,0,1,0-.15s.12-.09.16-.07C412.72,513.23,413,513.34,413.35,513.48Z" fill="#fff"/>
        <path id="Path_1506" data-name="Path 1506" d="M451.38,506.15s.1.05.12.1.05.22,0,.27a2.6,2.6,0,0,1-.43.38s-.1,0-.12-.08a.59.59,0,0,1,.43-.67Z" fill="#fff"/>
        <path id="Path_1507" data-name="Path 1507" d="M454.6,498.32a.68.68,0,0,1,.86-.42.18.18,0,0,1,.09.15.23.23,0,0,1-.14.16C455.15,498.26,454.88,498.28,454.6,498.32Z" fill="#fff"/>
        <path id="Path_1508" data-name="Path 1508" d="M450,517.74h.5a1.171,1.171,0,0,1-.1.59c-.1.18-.11.12-.16.18s-.14-.11-.15-.18A5.21,5.21,0,0,1,450,517.74Z" fill="#fff"/>
        <path id="Path_1509" data-name="Path 1509" d="M437.41,529.74l.73-.47a.22.22,0,0,1,.18,0s.06.1.05.14a.93.93,0,0,1-.96.33Z" fill="#fff"/>
        <path id="Path_1510" data-name="Path 1510" d="M423.19,524.4c.44,0,.69.29.78.8C423.55,525.07,423.46,524.69,423.19,524.4Z" fill="#fff"/>
        <path id="Path_1511" data-name="Path 1511" d="M433.34,498.34c-.41,0-.41,0-.53-.51C433.21,497.82,433.4,498,433.34,498.34Z" fill="#fff"/>
        <path id="Path_1512" data-name="Path 1512" d="M409.81,523a.34.34,0,0,1,0,.1l-.15.29c-.05-.09-.09-.18-.13-.27a.34.34,0,0,1,0-.1l.15-.41.21.35Z" fill="#fff"/>
        <path id="Path_1513" data-name="Path 1513" d="M439.75,495.61c-.07.21-.13.4-.2.58s-.1,0-.15,0a.16.16,0,0,1-.1-.11C439.23,495.88,439.4,495.66,439.75,495.61Z" fill="#fff"/>
        <path id="Path_1514" data-name="Path 1514" d="M412.79,516c-.12-.15-.24-.23-.22-.29a.931.931,0,0,1,.19-.31,1.19,1.19,0,0,1,.21.29C413,515.72,412.88,515.81,412.79,516Z" fill="#fff"/>
        <path id="Path_1515" data-name="Path 1515" d="M425.1,525.13a5,5,0,0,1,.37.43.21.21,0,0,1,0,.17h-.18a3.12,3.12,0,0,1-.28-.47Z" fill="#fff"/>
        <path id="Path_1516" data-name="Path 1516" d="M415.91,525.75l-.06-.42.53.16v.12Z" fill="#fff"/>
        <path id="Path_1517" data-name="Path 1517" d="M448.36,500.38a1.34,1.34,0,0,1-.25.23s-.14-.11-.21-.17l.36-.19Z" fill="#fff"/>
        <path id="Path_1518" data-name="Path 1518" d="M452.83,499.55l-.3.45c-.06-.11-.15-.2-.13-.23a1.638,1.638,0,0,1,.26-.33s.11.08.16.12Z" fill="#fff"/>
      </g>
    </g>
    <g id="cloud_left" data-name="cloud left">
      <path id="Path_1519" data-name="Path 1519" d="M145,231.64a62.942,62.942,0,0,1-6.83-3.7c-6.74-4-15-8.91-23.13-4.87a21.48,21.48,0,0,0-14.39-13.94,22.63,22.63,0,0,0-19.85,4,7.4,7.4,0,0,0-4.3-3,7.2,7.2,0,0,0-3.36.08,21.3,21.3,0,0,0-1.75-11.68,22.07,22.07,0,0,0-22.06-12.15,22.14,22.14,0,0,0-17.94,15,9.23,9.23,0,0,0-6.51,1.7A9.15,9.15,0,0,0,21,209C11,210.51,2.47,218.14.44,227.7c-2.26,10.71,4.4,22.16,14.54,25a17.279,17.279,0,0,0,4.66.62,20.23,20.23,0,0,0,11.14-3.45l.19-.16a15.27,15.27,0,0,0,15.45,7.42,17,17,0,0,0,12.49-7.92,11.27,11.27,0,0,0,3.89,4,10.75,10.75,0,0,0,10.06.46,11,11,0,0,0,4.5-3.78,19.28,19.28,0,0,0,14.89,7.47H93c5,0,9.81-1.5,14.44-2.95,2.43-.76,4.73-1.48,7.07-2,5.8-1.29,11.32-.47,17.16.4,4.82.71,9.79,1.46,15,.92,12.79-1.32,23.75-8.88,30.07-20.73l2.42-4.54-4.86,1.68C163.06,234,155.46,236.09,145,231.64Z" fill="#fff"/>
      <path id="Path_1520" data-name="Path 1520" d="M145,231.64a62.942,62.942,0,0,1-6.83-3.7c-6.74-4-15-8.91-23.13-4.87a21.48,21.48,0,0,0-14.39-13.94,22.63,22.63,0,0,0-19.85,4,7.4,7.4,0,0,0-4.3-3,7.2,7.2,0,0,0-3.36.08,21.3,21.3,0,0,0-1.75-11.68,22.07,22.07,0,0,0-22.06-12.15,22.14,22.14,0,0,0-17.94,15,9.23,9.23,0,0,0-6.51,1.7A9.15,9.15,0,0,0,21,209C11,210.51,2.47,218.14.44,227.7c-2.26,10.71,4.4,22.16,14.54,25a17.279,17.279,0,0,0,4.66.62,20.23,20.23,0,0,0,11.14-3.45l.19-.16a15.27,15.27,0,0,0,15.45,7.42,17,17,0,0,0,12.49-7.92,11.27,11.27,0,0,0,3.89,4,10.75,10.75,0,0,0,10.06.46,11,11,0,0,0,4.5-3.78,19.28,19.28,0,0,0,14.89,7.47H93c5,0,9.81-1.5,14.44-2.95,2.43-.76,4.73-1.48,7.07-2,5.8-1.29,11.32-.47,17.16.4,4.82.71,9.79,1.46,15,.92,12.79-1.32,23.75-8.88,30.07-20.73l2.42-4.54-4.86,1.68C163.06,234,155.46,236.09,145,231.64Zm1.23,18.07c-4.66.48-9.18-.19-14-.9-5.94-.88-12.09-1.79-18.62-.35-2.51.55-5,1.33-7.4,2.09-4.76,1.48-9.24,2.91-13.9,2.74a15,15,0,0,1-13.54-8.7l-2.75-5.77L75,245.12a6.91,6.91,0,0,1-10.17,4.6,8.89,8.89,0,0,1-3.85-6.6l-1.64-13L57,243a12.68,12.68,0,0,1-11.09,10.13,11.38,11.38,0,0,1-11.83-6.09,17.13,17.13,0,0,0,4.78-9.75,16.6,16.6,0,0,0-7.18-15.73c-5.36-3.42-12.79-2.86-17.27,1.33-4.78,4.47-5.37,12.36-1.27,17.21a2.015,2.015,0,0,0,3.08-2.6c-2.66-3.15-2.21-8.72,1-11.67A10.51,10.51,0,0,1,29.53,225a12.51,12.51,0,0,1,5.34,11.86,13.88,13.88,0,0,1-6.34,9.7,15.33,15.33,0,0,1-12.46,2.29c-8-2.25-13.49-11.73-11.68-20.28,1.75-8.27,9.8-15,18.72-15.75l2.05-.16-.2-2a4.88,4.88,0,0,1,2.27-4.24,4.86,4.86,0,0,1,4.76-.68l2.34,1.13.51-2.55a17.92,17.92,0,0,1,15-13.89,17.48,17.48,0,0,1,14.21,30,2.019,2.019,0,1,0,2.79,2.92,20.85,20.85,0,0,0,5-7.69,3.2,3.2,0,0,0,.27-.25,3.29,3.29,0,0,1,5.94,1.44l.56,4.05,2.87-2.9a18.88,18.88,0,0,1,18.1-5,17.51,17.51,0,0,1,12.26,13.78,16.29,16.29,0,0,1-8,16.28,13.84,13.84,0,0,1-11.87.67,11.19,11.19,0,0,1-6.66-9.19A9.38,9.38,0,0,1,91,225.37a8,8,0,0,1,9.62,3.5,2.017,2.017,0,1,0,3.59-1.84,12,12,0,0,0-14.63-5.44,13.4,13.4,0,0,0-8.3,13.21,15.33,15.33,0,0,0,9.06,12.63,16.71,16.71,0,0,0,6.74,1.4,18.4,18.4,0,0,0,8.67-2.2,20.42,20.42,0,0,0,10.18-19.36c6.45-4,13.46.1,20.25,4.14a66.308,66.308,0,0,0,7.31,3.94c9.89,4.22,17.58,3.24,26.84.37a33.87,33.87,0,0,1-24.06,13.99Z" fill="#333"/>
    </g>
    <g id="cloud_right" data-name="cloud right">
      <path id="Path_1521" data-name="Path 1521" d="M671,291.62c1.65-.19,3.3-.43,5-.66,6.53-.94,12.69-1.81,18.47.05a40.7,40.7,0,0,1,7.45,3.6,43.237,43.237,0,0,0,8.52,4,20.919,20.919,0,0,0,6.15.91A23.74,23.74,0,0,0,735,290.41a17.351,17.351,0,0,0,3.63,6.48,21.06,21.06,0,0,0,15.51,6.49,22.809,22.809,0,0,0,3.94-.35c6.5-1.16,11.95-5.23,14.43-10.44a16.66,16.66,0,0,0,25.69-1.38,31.311,31.311,0,0,0,16.86,5A28.91,28.91,0,0,0,832,291a55.779,55.779,0,0,0,5.36-4.6,48.5,48.5,0,0,1,5.67-4.76c3.17-2.11,8.35-2.62,13.85-1.35l5,1.14-2.88-4.2c-7.36-10.72-20.56-15.24-34.42-11.82l-.57.14c-4.05,1-7.87,2-11.65,1.11-5.71-1.27-10.77-4.65-15.64-8.08a23.88,23.88,0,0,0,1.42-21.66c-4.83-11.16-18.32-17.77-30.09-14.68-10,2.61-17.71,11.93-19,22.12a11.4,11.4,0,0,0-5.08-1.71,10.94,10.94,0,0,0-8,2.27A18.18,18.18,0,0,0,724.6,239a17.45,17.45,0,0,0-14.46,4.4,15.32,15.32,0,0,0-2.63,3.53c-6-3.44-13.53-2.17-18.7.85-5.73,3.37-9.86,8.81-13.47,14.2l-1.42,2.14c-2.89,4.38-5.88,8.9-9.75,12.33-4.85,4.29-10.64,6.17-15.51,5l-5.59-1.35,3.57,4.5C652.51,292,663.11,292.52,671,291.62Z" fill="#fff"/>
      <path id="Path_1522" data-name="Path 1522" d="M671,291.61c1.65-.19,3.3-.42,5-.66,6.53-.93,12.69-1.81,18.47.06a40.061,40.061,0,0,1,7.45,3.6,43.241,43.241,0,0,0,8.52,4,20.919,20.919,0,0,0,6.15.91A23.77,23.77,0,0,0,735,290.41a17.351,17.351,0,0,0,3.63,6.48,21.06,21.06,0,0,0,15.51,6.49,22.809,22.809,0,0,0,3.94-.35c6.5-1.17,11.95-5.23,14.43-10.44a16.67,16.67,0,0,0,25.69-1.39,31.24,31.24,0,0,0,16.86,5A28.91,28.91,0,0,0,832,291a57.236,57.236,0,0,0,5.36-4.6,47.541,47.541,0,0,1,5.67-4.76c3.17-2.12,8.35-2.62,13.85-1.35l5,1.14-2.88-4.2c-7.36-10.72-20.56-15.25-34.42-11.82l-.57.14c-4.05,1-7.87,2-11.65,1.11-5.71-1.27-10.77-4.65-15.64-8.08a23.88,23.88,0,0,0,1.42-21.66c-4.83-11.17-18.32-17.77-30.09-14.68-10,2.6-17.71,11.93-19,22.11a11.66,11.66,0,0,0-5.08-1.71,10.94,10.94,0,0,0-8,2.28A18.18,18.18,0,0,0,724.6,239a17.45,17.45,0,0,0-14.46,4.4,15.48,15.48,0,0,0-2.63,3.52c-6-3.43-13.53-2.17-18.7.86-5.73,3.36-9.86,8.81-13.47,14.2l-1.42,2.14c-2.89,4.37-5.88,8.9-9.75,12.33-4.85,4.29-10.64,6.17-15.51,5l-5.59-1.36,3.57,4.51C652.51,292,663.11,292.52,671,291.61Zm41.93-45.34A14.39,14.39,0,0,1,734.06,249l1.65,2.72,1.72-2.68c1.38-2.17,4.05-2.71,6.12-2.52s4.58,1.27,5.51,3.66l5.31,13.62-1.49-14.54c-1-10.23,6.19-20.67,16.14-23.26s21.37,3,25.45,12.42c2.82,6.55,1.94,14.4-2.2,19.55-4.3,5.36-12.26,7.42-18.13,4.69a13.17,13.17,0,0,1-6.64-7.52,11.65,11.65,0,0,1,.19-9,11.06,11.06,0,0,1,7.67-5.78,9.87,9.87,0,0,1,8.5,1.72,2,2,0,0,0,2.53-3.06,13.79,13.79,0,0,0-11.9-2.52,15,15,0,0,0-10.38,7.95,15.65,15.65,0,0,0-.34,12,17.2,17.2,0,0,0,8.69,9.76c7.1,3.3,16.15,1.27,21.78-4.62,5,3.56,10.71,7.38,17.23,8.83,4.69,1,9.15-.07,13.47-1.14l.56-.13c10.6-2.62,20.38-.22,27,6.42-3.62-.2-8.07.23-11.71,2.67a48.589,48.589,0,0,0-6.17,5.16,53,53,0,0,1-5,4.28c-8.25,6-20.61,5.89-29.46.07a15.6,15.6,0,0,0,1-2.93,17.15,17.15,0,0,0-7.09-17.75,2,2,0,0,0-2.2,3.3,12.86,12.86,0,1,1-18.39,16.91l-2.76-5-.93,5.67c-1,6-7,10.17-12.47,11.15-5.94,1.06-12.15-.86-15.82-4.91a13.62,13.62,0,0,1-3.46-9.47,2.061,2.061,0,0,0,0-.55,11.37,11.37,0,0,1,1.73-5.41,10.78,10.78,0,0,1,6.94-4.5,9.19,9.19,0,0,1,7.12,1.33,7.89,7.89,0,0,1,3.4,6.83,6,6,0,0,1-4.52,5.31,4.78,4.78,0,0,1-5.37-3.32,2,2,0,0,0-3.87.83,8.73,8.73,0,0,0,10,6.38,9.9,9.9,0,0,0,7.72-8.86,11.84,11.84,0,0,0-5.06-10.41,13.18,13.18,0,0,0-10.16-2,14.6,14.6,0,0,0-9.52,6.24A15.261,15.261,0,0,0,734.2,284c-3.43,8.45-13.93,13.52-22.67,10.85a39.319,39.319,0,0,1-7.72-3.68,44.453,44.453,0,0,0-8.19-3.92,25.219,25.219,0,0,0-5-1.07,10.24,10.24,0,0,1,18.13-7.24l4.11,5-.6-6.44a7.41,7.41,0,0,1,14.22-3.5,2,2,0,0,0,3.67-1.51,11.74,11.74,0,0,0-13.25-6.71,10.25,10.25,0,0,0-2.76,1.14,13.78,13.78,0,0,1-5-9.55,13.61,13.61,0,0,1,3.76-11.1Zm-1.75,23.24a12.241,12.241,0,0,0-2.39,4.17A14.15,14.15,0,0,0,686.66,286a82,82,0,0,0-11.29,1c-1.62.23-3.24.46-4.85.64-5.17.6-11.67.55-16.58-2.07a24.44,24.44,0,0,0,12.86-6.17c4.25-3.77,7.39-8.52,10.43-13.1l1.41-2.13c3.86-5.77,7.41-10.19,12.17-13,4.27-2.51,10.53-3.58,15.16-.6a18.819,18.819,0,0,0-.74,7.09" fill="#333"/>
    </g>
     <g id="herobg">
      <path id="Path_1267" data-name="Path 1267" d="M816.8,386.81H57.37L194.29,193.72l38.37,17.8L434.89.63,640.54,210.55l37.73-23.97L816.8,386.81" fill="#fff"/>
      <rect id="Rectangle_72" data-name="Rectangle 72" width="537" height="537" transform="translate(57.38 386.806) rotate(-45)" fill="#fff"/>
      <path id="Path_1268" data-name="Path 1268" d="M816.6,386.18H57.17L194.09,193.09l38.37,17.8L434.69,0,640.34,209.92l37.74-23.96L816.6,386.18" fill="#fff"/>
      <path id="Path_1269" data-name="Path 1269" d="M434.69,9.64,422.91,65.26l22.42,16.37-22.42,27.39L640.34,219.56Z" fill="#333"/>
      <path id="Path_1270" data-name="Path 1270" d="M232.46,213.89l-38.37-17.8,4.41,8.9-4.41,8.9Z" fill="#333"/>
      <path id="Path_1271" data-name="Path 1271" d="M678.08,189.96l21.77,31.47-28.92-8.55,7.73-7.19-2.62-8Z" fill="#333"/>
      <g id="tree">
        <rect id="Rectangle_76" data-name="Rectangle 76" width="7.13" height="19.05" transform="translate(83.5 381.22)" fill="#683f18"/>
        <path id="Path_1272" data-name="Path 1272" d="M87.06,305.8,65.47,383.7h43.19Z" fill="#86c440"/>
      </g>
      <g id="plant">
        <path id="Path_1273" data-name="Path 1273" d="M741.79,508.84a.6.6,0,0,1-.1.32c-.44.66-2.21,1.27-4.94,1.77a137.712,137.712,0,0,1-38.47,0c-2.73-.5-4.5-1.11-4.94-1.77a.62.62,0,0,1-.11-.32c0-1.91,10.88-3.45,24.28-3.45S741.79,506.93,741.79,508.84Z" fill="#683f18"/>
        <path id="Path_1274" data-name="Path 1274" d="M700.87,543.52a.4.4,0,0,1-.08-.22v-.07Z" fill="#333"/>
        <g id="Group_57" data-name="Group 57">
          <g id="Group_55" data-name="Group 55">
            <path id="Path_1164" data-name="Path 1164" d="M716.92,514c4.14-6.68,5.72-12.58,2.73-20.11a35.831,35.831,0,0,0-11.59-13.56c-4.8-3.78-10-6.94-14.07-10.66a25.72,25.72,0,0,1-7.5-26.6,27.11,27.11,0,0,1,20.94-19.71c4.84-1,10.45-.74,14,3,4.06,4.22,4.13,11.2,2.48,16.76s-4.64,10.4-5.9,15.8-.22,12.33,4.55,15.79c4.29,3.18,10.57,2,14,4.84,3,2.59,1.66,8.4-.59,12.74A83.681,83.681,0,0,1,718.57,514Z" fill="#86c440"/>
            <path id="Path_1165" data-name="Path 1165" d="M723.23,487.7c-2.87-9.95-13.26-18.08-18.45-28a27.92,27.92,0,0,1-2.31-21.58,28.26,28.26,0,0,1,12.51-15,20.18,20.18,0,0,0-7.55.29,27.11,27.11,0,0,0-20.95,19.7,25.71,25.71,0,0,0,7.5,26.6c4.1,3.72,9.28,6.88,14.08,10.67a35.73,35.73,0,0,1,11.58,13.56,18.61,18.61,0,0,1,1,12.07c.27-.5.52-1,.76-1.54A24.28,24.28,0,0,0,723.23,487.7Z" fill="url(#linear-gradient)"/>
          </g>
          <g id="Group_56" data-name="Group 56">
            <path id="Path_1166" data-name="Path 1166" d="M718,514a12.59,12.59,0,0,1-1.68-12.4,21.869,21.869,0,0,1,7.14-8.36c3-2.34,6.15-4.29,8.68-6.58a15.85,15.85,0,0,0,4.63-16.4,16.73,16.73,0,0,0-12.91-12.16,9.13,9.13,0,0,0-8.64,1.83,10.82,10.82,0,0,0-1.53,10.34c1,3.45,2.86,6.41,3.64,9.74a9.49,9.49,0,0,1-2.81,9.74c-2.64,2-6.51,1.23-8.6,3-1.87,1.61-1,5.18.36,7.86A52,52,0,0,0,717,514Z" fill="url(#linear-gradient-2)"/>
            <path id="Path_1167" data-name="Path 1167" d="M714.14,497.8c1.76-6.14,8.18-11.15,11.37-17.24a17.24,17.24,0,0,0,1.43-13.3,17.42,17.42,0,0,0-7.71-9.28,12.14,12.14,0,0,1,4.65.18,16.68,16.68,0,0,1,12.91,12.15,15.84,15.84,0,0,1-4.62,16.4c-2.53,2.3-5.71,4.24-8.69,6.58a22,22,0,0,0-7.14,8.36,11.4,11.4,0,0,0-.58,7.44c-.17-.31-.33-.63-.47-.95a14.93,14.93,0,0,1-1.15-10.34Z" fill="url(#linear-gradient-3)"/>
          </g>
        </g>
        <path id="Path_1275" data-name="Path 1275" d="M739.91,514.3l-7,27.92a.31.31,0,0,1-.07.2c-.27.42-1.4.81-3.14,1.13a88.272,88.272,0,0,1-24.44,0c-1.73-.32-2.86-.71-3.13-1.13l-.07-.26-7-27.86Z" fill="#683f18"/>
        <path id="Path_1276" data-name="Path 1276" d="M741.79,509.16V513c0,1.9-10.87,3.44-24.28,3.44s-24.28-1.54-24.28-3.44v-3.87h.11c.44.66,2.21,1.27,4.94,1.77a137.708,137.708,0,0,0,38.47,0c2.73-.5,4.5-1.11,4.94-1.77Z" fill="#553014"/>
      </g>
      <g id="tree-2" data-name="tree">
        <rect id="Rectangle_77" data-name="Rectangle 77" width="7.13" height="19.05" transform="translate(58.33 369.02)" fill="#683f18"/>
        <path id="Path_1277" data-name="Path 1277" d="M61.9,293.6,40.3,371.5H83.5Z" fill="#52b148"/>
      </g>
    </g>
  </g>
</svg>
