<svg xmlns="http://www.w3.org/2000/svg" width="96.643" height="96.643" viewBox="0 0 96.643 96.643">
  <g id="moon" transform="translate(1318.992 810.985)">
    <circle id="Ellipse_209" data-name="Ellipse 209" cx="48.321" cy="48.321" r="48.321" transform="translate(-1318.992 -810.985)" fill="#c0bfbf"/>
    <circle id="Ellipse_210" data-name="Ellipse 210" cx="4.448" cy="4.448" r="4.448" transform="translate(-1239.856 -777.434)" fill="#262626" opacity="0.2"/>
    <circle id="Ellipse_211" data-name="Ellipse 211" cx="4.448" cy="4.448" r="4.448" transform="translate(-1263.433 -756.065)" fill="#262626" opacity="0.2"/>
    <circle id="Ellipse_212" data-name="Ellipse 212" cx="3.241" cy="3.241" r="3.241" transform="translate(-1287.286 -759.356)" fill="#262626" opacity="0.2"/>
    <circle id="Ellipse_213" data-name="Ellipse 213" cx="1.588" cy="1.588" r="1.588" transform="translate(-1269.331 -768.537)" fill="#262626" opacity="0.2"/>
    <circle id="Ellipse_214" data-name="Ellipse 214" cx="1.588" cy="1.588" r="1.588" transform="translate(-1250.729 -802.506)" fill="#262626" opacity="0.2"/>
    <circle id="Ellipse_215" data-name="Ellipse 215" cx="1.588" cy="1.588" r="1.588" transform="translate(-1238.583 -759.29)" fill="#262626" opacity="0.2"/>
    <circle id="Ellipse_216" data-name="Ellipse 216" cx="1.588" cy="1.588" r="1.588" transform="translate(-1297.87 -741.044)" fill="#262626" opacity="0.2"/>
    <circle id="Ellipse_217" data-name="Ellipse 217" cx="1.588" cy="1.588" r="1.588" transform="translate(-1302.601 -772.985)" fill="#262626" opacity="0.2"/>
    <circle id="Ellipse_218" data-name="Ellipse 218" cx="4.448" cy="4.448" r="4.448" transform="translate(-1289.701 -799.331)" fill="#262626" opacity="0.2"/>
    <circle id="Ellipse_219" data-name="Ellipse 219" cx="8.255" cy="8.255" r="8.255" transform="translate(-1267.24 -790.745)" fill="#262626" opacity="0.2"/>
    <circle id="Ellipse_220" data-name="Ellipse 220" cx="1.813" cy="1.813" r="1.813" transform="translate(-1260.798 -727.013)" fill="#262626" opacity="0.2"/>
  </g>
</svg>
