<svg xmlns="http://www.w3.org/2000/svg" width="210.335" height="261.984" viewBox="0 0 210.335 261.984">
  <g id="Orion" transform="translate(-266.369 -76.733) rotate(-17)">
    <circle id="Ellipse_190" data-name="Ellipse 190" cx="2.555" cy="2.555" r="2.555" transform="translate(296.576 256.905)" fill="#fff"/>
    <circle id="Ellipse_191" data-name="Ellipse 191" cx="2.555" cy="2.555" r="2.555" transform="translate(381.34 250.933)" fill="#fff"/>
    <circle id="Ellipse_192" data-name="Ellipse 192" cx="2.555" cy="2.555" r="2.555" transform="translate(395.394 260)" fill="#fff"/>
    <circle id="Ellipse_193" data-name="Ellipse 193" cx="2.555" cy="2.555" r="2.555" transform="translate(393.782 295.925)" fill="#fff"/>
    <circle id="Ellipse_194" data-name="Ellipse 194" cx="2.555" cy="2.555" r="2.555" transform="translate(390.284 319.519)" fill="#fff"/>
    <circle id="Ellipse_195" data-name="Ellipse 195" cx="2.555" cy="2.555" r="2.555" transform="translate(379.668 327.386)" fill="#fff"/>
    <circle id="Ellipse_196" data-name="Ellipse 196" cx="2.555" cy="2.555" r="2.555" transform="translate(238.38 252.453)" fill="#fff"/>
    <circle id="Ellipse_197" data-name="Ellipse 197" cx="2.555" cy="2.555" r="2.555" transform="translate(225.632 214.217)" fill="#fff"/>
    <circle id="Ellipse_198" data-name="Ellipse 198" cx="2.555" cy="2.555" r="2.555" transform="translate(239.373 208.775)" fill="#fff"/>
    <circle id="Ellipse_199" data-name="Ellipse 199" cx="2.555" cy="2.555" r="2.555" transform="translate(259.246 165.785)" fill="#fff"/>
    <circle id="Ellipse_200" data-name="Ellipse 200" cx="2.555" cy="2.555" r="2.555" transform="translate(234.91 164.53)" fill="#fff"/>
    <circle id="Ellipse_201" data-name="Ellipse 201" cx="3.832" cy="3.832" r="3.832" transform="translate(337.975 415.819)" fill="#fff"/>
    <circle id="Ellipse_202" data-name="Ellipse 202" cx="3.832" cy="3.832" r="3.832" transform="translate(264.35 427.348)" fill="#fff"/>
    <circle id="Ellipse_203" data-name="Ellipse 203" cx="3.832" cy="3.832" r="3.832" transform="translate(249.838 274.369)" fill="#fff"/>
    <circle id="Ellipse_204" data-name="Ellipse 204" cx="3.832" cy="3.832" r="3.832" transform="translate(315.249 284.46)" fill="#fff"/>
    <circle id="Ellipse_205" data-name="Ellipse 205" cx="3.832" cy="3.832" r="3.832" transform="translate(305.578 347.858)" fill="#fff"/>
    <circle id="Ellipse_206" data-name="Ellipse 206" cx="3.832" cy="3.832" r="3.832" transform="translate(292.743 353.436)" fill="#fff"/>
    <circle id="Ellipse_207" data-name="Ellipse 207" cx="3.832" cy="3.832" r="3.832" transform="translate(279.908 358.801)" fill="#fff"/>
    <circle id="Ellipse_208" data-name="Ellipse 208" cx="3.832" cy="3.832" r="3.832" transform="translate(393.13 282.887)" fill="#fff"/>
    <path id="Path_1525" data-name="Path 1525" d="M365.856,525.435l-73.625,11.529,15.559-68.547,25.67-10.943Z" transform="translate(-24.049 -105.784)" fill="none" stroke="#fff" stroke-miterlimit="10" stroke-width="1"/>
    <path id="Path_1526" data-name="Path 1526" d="M284.733,363.427l-29.619-83.781-12.736-23.194-12.747-38.236,9.278-49.687" transform="translate(-1.444 -1.444)" fill="none" stroke="#fff" stroke-miterlimit="10" stroke-width="1"/>
    <path id="Path_1527" data-name="Path 1527" d="M228.262,218.925l14.616-5.442,19.872-42.99" transform="translate(-0.949 -2.153)" fill="none" stroke="#fff" stroke-miterlimit="10" stroke-width="1"/>
    <path id="Path_1528" data-name="Path 1528" d="M325.258,405.345l9.671-63.4-19.951-28.832-45.461,18.742" transform="translate(-15.847 -53.655)" fill="none" stroke="#fff" stroke-miterlimit="10" stroke-width="1"/>
    <path id="Path_1529" data-name="Path 1529" d="M373.8,357.355l76.664-1.573-.626,12.129-3.5,23.225L435.729,399" transform="translate(-53.506 -69.062)" fill="none" stroke="#fff" stroke-miterlimit="10" stroke-width="1"/>
    <path id="Path_1530" data-name="Path 1530" d="M486.413,336.282l.986-23.448-14.054-9.067" transform="translate(-89.45 -50.279)" fill="none" stroke="#fff" stroke-miterlimit="10" stroke-width="1"/>
  </g>
</svg>
