<svg xmlns="http://www.w3.org/2000/svg" width="317.306" height="229.906" viewBox="0 0 317.306 229.906">
  <g id="scorpio" transform="translate(-54.536 -222.311)">
    <path id="Path_1523" data-name="Path 1523" d="M94.989,394.083,58.535,425.619l16.413,39.967,54.039,8.793,41.7,2.318,20.76-49.437,14.4-46.818,53.971-58.221,22.287-15.584,25.818-3.227,62.121-17.351" transform="translate(-1.681 -26.799)" fill="none" stroke="#fff" stroke-miterlimit="10" stroke-width="1"/>
    <path id="Path_1524" data-name="Path 1524" d="M550.925,228.309,488.8,279.134,540.7,306.322" transform="translate(-182.56 -2.522)" fill="none" stroke="#fff" stroke-miterlimit="10" stroke-width="1"/>
    <circle id="Ellipse_177" data-name="Ellipse 177" cx="3.477" cy="3.477" r="3.477" transform="translate(364.888 222.311)" fill="#fff"/>
    <circle id="Ellipse_178" data-name="Ellipse 178" cx="3.477" cy="3.477" r="3.477" transform="translate(364.888 255.784)" fill="#fff"/>
    <circle id="Ellipse_179" data-name="Ellipse 179" cx="3.477" cy="3.477" r="3.477" transform="translate(354.662 300.323)" fill="#fff"/>
    <circle id="Ellipse_180" data-name="Ellipse 180" cx="3.477" cy="3.477" r="3.477" transform="translate(276.949 276.362)" fill="#fff"/>
    <circle id="Ellipse_181" data-name="Ellipse 181" cx="3.477" cy="3.477" r="3.477" transform="translate(200.692 350.167)" fill="#fff"/>
    <circle id="Ellipse_182" data-name="Ellipse 182" cx="3.477" cy="3.477" r="3.477" transform="translate(89.831 363.807)" fill="#fff"/>
    <circle id="Ellipse_183" data-name="Ellipse 183" cx="3.477" cy="3.477" r="3.477" transform="translate(69.79 435.31)" fill="#fff"/>
    <circle id="Ellipse_184" data-name="Ellipse 184" cx="3.477" cy="3.477" r="3.477" transform="translate(186.289 396.985)" fill="#fff"/>
    <circle id="Ellipse_185" data-name="Ellipse 185" cx="2.318" cy="2.318" r="2.318" transform="translate(303.927 274.294)" fill="#fff"/>
    <circle id="Ellipse_186" data-name="Ellipse 186" cx="2.318" cy="2.318" r="2.318" transform="translate(255.821 293.105)" fill="#fff"/>
    <circle id="Ellipse_187" data-name="Ellipse 187" cx="2.318" cy="2.318" r="2.318" transform="translate(166.689 447.581)" fill="#fff"/>
    <circle id="Ellipse_188" data-name="Ellipse 188" cx="2.318" cy="2.318" r="2.318" transform="translate(124.988 445.262)" fill="#fff"/>
    <circle id="Ellipse_189" data-name="Ellipse 189" cx="2.318" cy="2.318" r="2.318" transform="translate(54.536 396.502)" fill="#fff"/>
  </g>
</svg>
