<svg xmlns="http://www.w3.org/2000/svg" width="1596.954" height="394.016" viewBox="0 0 1596.954 394.016">
  <g id="stars" transform="translate(-159.225 -38.167)">
    <circle id="Ellipse_221" data-name="Ellipse 221" cx="3.477" cy="3.477" r="3.477" transform="translate(392.225 305.229)" fill="#fff"/>
    <circle id="Ellipse_257" data-name="Ellipse 257" cx="3.477" cy="3.477" r="3.477" transform="translate(398.225 412.229)" fill="#fff"/>
    <circle id="Ellipse_260" data-name="Ellipse 260" cx="3.477" cy="3.477" r="3.477" transform="translate(185.225 425.229)" fill="#fff"/>
    <circle id="Ellipse_258" data-name="Ellipse 258" cx="3.477" cy="3.477" r="3.477" transform="translate(509.225 322.229)" fill="#fff"/>
    <circle id="Ellipse_259" data-name="Ellipse 259" cx="3.477" cy="3.477" r="3.477" transform="translate(749.225 292.229)" fill="#fff"/>
    <circle id="Ellipse_222" data-name="Ellipse 222" cx="3.477" cy="3.477" r="3.477" transform="translate(562.225 231.229)" fill="#fff"/>
    <circle id="Ellipse_223" data-name="Ellipse 223" cx="3.477" cy="3.477" r="3.477" transform="translate(337.225 192.229)" fill="#fff"/>
    <circle id="Ellipse_224" data-name="Ellipse 224" cx="3.477" cy="3.477" r="3.477" transform="translate(620.225 114.229)" fill="#fff"/>
    <circle id="Ellipse_225" data-name="Ellipse 225" cx="3.477" cy="3.477" r="3.477" transform="translate(742.225 124.229)" fill="#fff"/>
    <circle id="Ellipse_226" data-name="Ellipse 226" cx="3.477" cy="3.477" r="3.477" transform="translate(742.225 185.229)" fill="#fff"/>
    <circle id="Ellipse_227" data-name="Ellipse 227" cx="3.477" cy="3.477" r="3.477" transform="translate(865.225 124.229)" fill="#fff"/>
    <circle id="Ellipse_255" data-name="Ellipse 255" cx="3.477" cy="3.477" r="3.477" transform="translate(1049.225 142.229)" fill="#fff"/>
    <circle id="Ellipse_228" data-name="Ellipse 228" cx="3.477" cy="3.477" r="3.477" transform="translate(1070.225 93.229)" fill="#fff"/>
    <circle id="Ellipse_229" data-name="Ellipse 229" cx="3.477" cy="3.477" r="3.477" transform="translate(1185.225 121.229)" fill="#fff"/>
    <circle id="Ellipse_230" data-name="Ellipse 230" cx="3.477" cy="3.477" r="3.477" transform="translate(1185.225 227.229)" fill="#fff"/>
    <circle id="Ellipse_231" data-name="Ellipse 231" cx="3.477" cy="3.477" r="3.477" transform="translate(1286.225 220.229)" fill="#fff"/>
    <circle id="Ellipse_232" data-name="Ellipse 232" cx="3.477" cy="3.477" r="3.477" transform="translate(1342.225 158.229)" fill="#fff"/>
    <circle id="Ellipse_233" data-name="Ellipse 233" cx="3.477" cy="3.477" r="3.477" transform="translate(1384.225 75.229)" fill="#fff"/>
    <circle id="Ellipse_234" data-name="Ellipse 234" cx="3.477" cy="3.477" r="3.477" transform="translate(1473.225 60.229)" fill="#fff"/>
    <circle id="Ellipse_235" data-name="Ellipse 235" cx="3.477" cy="3.477" r="3.477" transform="translate(1550.225 48.229)" fill="#fff"/>
    <circle id="Ellipse_236" data-name="Ellipse 236" cx="3.477" cy="3.477" r="3.477" transform="translate(1606.225 110.229)" fill="#fff"/>
    <circle id="Ellipse_237" data-name="Ellipse 237" cx="3.477" cy="3.477" r="3.477" transform="translate(1470.225 345.229)" fill="#fff"/>
    <circle id="Ellipse_261" data-name="Ellipse 261" cx="3.477" cy="3.477" r="3.477" transform="translate(1749.225 309.229)" fill="#fff"/>
    <circle id="Ellipse_256" data-name="Ellipse 256" cx="3.477" cy="3.477" r="3.477" transform="translate(1416.225 223.229)" fill="#fff"/>
    <circle id="Ellipse_238" data-name="Ellipse 238" cx="3.477" cy="3.477" r="3.477" transform="translate(1720.225 117.229)" fill="#fff"/>
    <circle id="Ellipse_239" data-name="Ellipse 239" cx="3.477" cy="3.477" r="3.477" transform="translate(1650.225 45.229)" fill="#fff"/>
    <circle id="Ellipse_240" data-name="Ellipse 240" cx="3.477" cy="3.477" r="3.477" transform="translate(1363.225 306.229)" fill="#fff"/>
    <circle id="Ellipse_241" data-name="Ellipse 241" cx="3.477" cy="3.477" r="3.477" transform="translate(1238.225 44.229)" fill="#fff"/>
    <circle id="Ellipse_242" data-name="Ellipse 242" cx="3.477" cy="3.477" r="3.477" transform="translate(780.225 67.229)" fill="#fff"/>
    <circle id="Ellipse_243" data-name="Ellipse 243" cx="3.477" cy="3.477" r="3.477" transform="translate(494.225 70.229)" fill="#fff"/>
    <circle id="Ellipse_244" data-name="Ellipse 244" cx="3.477" cy="3.477" r="3.477" transform="translate(395.225 143.229)" fill="#fff"/>
    <circle id="Ellipse_245" data-name="Ellipse 245" cx="3.477" cy="3.477" r="3.477" transform="translate(246.225 143.229)" fill="#fff"/>
    <circle id="Ellipse_246" data-name="Ellipse 246" cx="3.477" cy="3.477" r="3.477" transform="translate(159.225 131.229)" fill="#fff"/>
    <circle id="Ellipse_247" data-name="Ellipse 247" cx="3.477" cy="3.477" r="3.477" transform="translate(267.225 231.229)" fill="#fff"/>
    <circle id="Ellipse_248" data-name="Ellipse 248" cx="3.477" cy="3.477" r="3.477" transform="translate(192.225 238.229)" fill="#fff"/>
    <circle id="Ellipse_249" data-name="Ellipse 249" cx="2.318" cy="2.318" r="2.318" transform="translate(383.354 77.167)" fill="#fff"/>
    <circle id="Ellipse_250" data-name="Ellipse 250" cx="2.318" cy="2.318" r="2.318" transform="translate(590.354 58.167)" fill="#fff"/>
    <circle id="Ellipse_251" data-name="Ellipse 251" cx="2.318" cy="2.318" r="2.318" transform="translate(684.354 79.167)" fill="#fff"/>
    <circle id="Ellipse_252" data-name="Ellipse 252" cx="2.318" cy="2.318" r="2.318" transform="translate(769.354 38.167)" fill="#fff"/>
    <circle id="Ellipse_253" data-name="Ellipse 253" cx="2.318" cy="2.318" r="2.318" transform="translate(924.354 72.167)" fill="#fff"/>
    <circle id="Ellipse_254" data-name="Ellipse 254" cx="2.318" cy="2.318" r="2.318" transform="translate(1094.354 116.167)" fill="#fff"/>
  </g>
</svg>
