<svg xmlns="http://www.w3.org/2000/svg" width="677.992" height="270.009" viewBox="0 0 677.992 270.009"><defs><style>.a{fill:#e6e6e6;}.b{fill:#3f3d56;}</style></defs><g transform="translate(-486 -954.539)"><g transform="translate(486 756.543)"><path class="a" d="M312.41,535.854c0,59.561-35.408,80.357-79.086,80.357s-79.086-20.8-79.086-80.357,79.086-135.331,79.086-135.331S312.41,476.293,312.41,535.854Z" transform="translate(-154.239 -202.527)"/><path class="b" d="M89.249,462.719l.81-49.846L123.767,351.2,90.186,405.053l.364-22.414,23.232-44.616L90.647,376.708h0L91.3,336.4l24.876-35.52L91.4,330.058l.409-73.916-2.571,97.852.211-4.037L64.161,311.242l24.886,46.464-2.356,45.021-.07-1.2L57.463,360.79l29.07,44.963-.3,5.63-.053.084.024.462L80.23,526.151h7.989l.958-59,29-44.852Z" transform="translate(-13.045 -58.146)"/></g><path class="a" d="M854.532,521.576l.474-29.2,19.745-36.123L855.081,487.8l.213-13.129L868.9,448.531l-13.552,22.661h0l.383-23.613,14.572-20.807-14.512,17.094.24-43.3-1.506,57.32.124-2.365-14.816-22.679,14.578,27.218-1.38,26.372-.041-.7-17.08-23.865,17.028,26.338-.172,3.3-.031.049.014.271-3.5,66.909h4.68l.561-34.56L871.477,497.9Z" transform="translate(289.24 651.611)"/></g></svg>