<svg xmlns="http://www.w3.org/2000/svg" width="686.417" height="472.482" viewBox="0 0 686.417 472.482"><defs><style>.a{fill:#3f3d56;}.b{fill:#fff;}.c{fill:#ff6584;}.d{fill:#6c63ff;}.e{opacity:0.2;}.f{fill:#2f2e41;}.g{fill:#a0616a;}.h{fill:#e6e6e6;}.i{opacity:0.1;}</style></defs><g transform="translate(-2.723)"><path class="a" d="M407.7,404.06v2.995H325.662a47.479,47.479,0,0,0-47.479,47.479v173.8a47.479,47.479,0,0,0,47.479,47.479H775.706a47.479,47.479,0,0,0,47.479-47.479v-173.8a47.479,47.479,0,0,0-47.479-47.479H466.089V404.06Z" transform="translate(-182.375 -203.33)"/><path class="b" d="M329.621,421.007H779a35.459,35.459,0,0,1,35.458,35.458V631.1A35.459,35.459,0,0,1,779,666.558H329.621A35.459,35.459,0,0,1,294.163,631.1V609.914a16.854,16.854,0,0,0,23.207-15.6V494.747a16.854,16.854,0,0,0-23.207-15.6V456.466a35.459,35.459,0,0,1,35.458-35.458Z" transform="translate(-186.003 -207.177)"/><circle class="c" cx="49.773" cy="49.773" r="49.773" transform="translate(226.11 256.644)"/><path class="d" d="M641.088,679.242H396.915a4.979,4.979,0,0,1-.912-.072L511.485,479.138a8.086,8.086,0,0,1,14.075,0l77.5,134.237,3.713,6.423Z" transform="translate(-209.121 -219.442)"/><path class="e" d="M534.341,575.488H450.975L491.9,516.045l2.945-4.282,1.473-2.141,3.713,6.423Z" transform="translate(-102.375 -115.688)"/><path class="d" d="M826.922,696.555H615.732l40.924-59.444,2.945-4.282,53.328-77.467c3.5-5.077,11.907-5.393,16.017-.958a9.635,9.635,0,0,1,.768.958Z" transform="translate(-259.002 -236.755)"/><path class="f" d="M613.049,192.968c0,26.834-11.553,27.668-30.375,27.668s-37.783-.834-37.783-27.668,15.258-48.588,34.079-48.588S613.049,166.134,613.049,192.968Z" transform="translate(-242.92 -144.381)"/><path class="g" d="M572.589,205.274s8.035,33.6,5.113,37.252,24.834,11.687,24.834,11.687l11.687-32.139-6.574-.73s-9.5-2.191-6.574-20.452S572.589,205.274,572.589,205.274Z" transform="translate(-249.208 -155.594)"/><circle class="g" cx="23.739" cy="23.739" r="23.739" transform="translate(312.425 11.699)"/><path class="f" d="M541.861,358.347l-16.8,14.609s-51.13,18.991-39.443,48.208,33.6,72.312,33.6,72.312l5.843,13.878h14.608l9.5-4.383-2.191-5.843s-5.113-8.035-5.113-12.417-8.765-54.782-14.608-58.434c0,0,29.217-28.487,50.4-29.947s27.026-6.574,38.712,0,57.7,18.991,57.7,18.991,24.834,45.286,37.252,53.321,22.643,35.06,22.643,35.06l20.452-3.652-10.226-21.182s-10.226-15.339-10.226-21.913-33.6-70.121-57.7-80.347-35.788-19.628-35.788-19.628L585.235,342Z" transform="translate(-229.07 -189.242)"/><path class="f" d="M525.873,541.184s-5.113-3.652-8.765,3.652-13.878,24.1-13.878,24.1-29.947,22.643-7.3,28.487c0,0,10.956.73,29.947-12.417s32.869-19.721,33.6-21.913-4.383-27.026-9.5-27.026-3.652,11.687-9.5,11.687a67.235,67.235,0,0,0-12.417,1.461Z" transform="translate(-229.883 -233.298)"/><path class="f" d="M832.859,548.885a14.97,14.97,0,0,0-19.252-9.09c-1.122.421-1.882.859-2.028,1.3-.731,2.191-7.341,3.274-8.053,2s-5.825-4.924-2.173,8.954,14.608,43.826,20.452,48.938,26.3,4.383,27.756-.731-.73-14.609-3.652-18.261-8.035-15.339-8.765-19.721C836.8,560.213,834.839,554.43,832.859,548.885Z" transform="translate(-300.843 -233.937)"/><path class="g" d="M673,415.48s5.747,24.77,17.03,18.95-12.37-29-12.37-29Z" transform="translate(-272.001 -203.64)"/><path class="g" d="M591.732,397.527s5.747,24.77,17.03,18.95-12.37-29-12.37-29Z" transform="translate(-253.553 -199.565)"/><path class="h" d="M635.781,320.166c-8.451,2.6-14.01,2.885-16.676,5.5a5.125,5.125,0,0,0-.855,1.074c-2.191,3.652-11.687,5.113-24.1,2.191a35.058,35.058,0,0,0-12.76-.935c-4.244.431-8.517,1.329-16.457.935-13.856-.694-20.481-46.061-23.622-58.215-.168-.665-.329-1.227-.482-1.68-2.922-8.765,12.417-17.53,14.609-19.722s8.765-10.956,14.813-11.869,15.134,11.869,15.134,11.869,14.243-17.165,12.782-21.548,13.878-1.461,16.8-2.191c1.651-.416,8.546,1.388,14.236,3.039a12.154,12.154,0,0,1,8.743,10.723c.1,1.191.2,2.484.3,3.871C640.054,267.064,643.034,317.938,635.781,320.166Z" transform="translate(-241.914 -162.748)"/><path class="i" d="M581.636,339.557c-4.244.431-8.517,1.329-16.457.935-13.856-.694-20.481-46.061-23.622-58.215.526-3.784.979-6.062.979-6.062l4.017,5.478s19.356,31.774,24.469,40.539C573.112,325.81,577.4,332.566,581.636,339.557Z" transform="translate(-242.163 -174.308)"/><path class="h" d="M545.831,272.434l-6.574,2.922s-8.765,43.825,6.574,65.738,21.182,25.565,24.1,29.217a8.176,8.176,0,0,0,7.3,2.922s-2.922,7.3,2.191,7.3,24.1-7.3,18.991-9.5-10.226-5.843-8.765-9.5-16.8-31.408-21.913-40.173S545.831,272.434,545.831,272.434Z" transform="translate(-241.075 -173.45)"/><path class="i" d="M658.75,322.921c-8.451,2.6-14.01,2.885-16.676,5.5-.672-7.217-.643-14.017.606-19.378,4.489-19.24,7.877-60.9,7.67-71.217-.025-1.224.237.73,1.461.73v.73c5.405,0,6.924-1.921,8.444,3.265q.46,1.556.957,3.411C663.023,269.819,666,320.693,658.75,322.921Z" transform="translate(-264.882 -165.502)"/><path class="h" d="M650.112,232.747h2.238a12.17,12.17,0,0,1,11.683,8.743,249.058,249.058,0,0,1,6.531,29.969c4.383,27.026,9.5,94.225,8.765,95.686s8.765,8.765,4.383,10.226-12.417,4.383-16.069,5.113-10.956-6.574-10.956-6.574-15.339-46.017-10.226-67.93S650.112,232.747,650.112,232.747Z" transform="translate(-265.74 -164.441)"/><path class="f" d="M602.129,164.524c0,7.268-9.97,13.159-22.269,13.159s-23.619,3.893-23.619-3.374,11.32-22.944,23.619-22.944S602.129,157.256,602.129,164.524Z" transform="translate(-245.496 -145.966)"/><path class="f" d="M545.152,213.129s-.909,24.463,23.4,23.114-3.285-20.911-3.285-20.911Z" transform="translate(-242.978 -159.987)"/><rect class="a" width="686.417" height="1.732" transform="translate(2.723 466.904)"/></g></svg>